<?xml version="1.0" encoding="utf-8"?>
<!-- Generator: Adobe Illustrator 22.1.0, SVG Export Plug-In . SVG Version: 6.00 Build 0)  -->
<svg version="1.1" id="グループ化_6599" xmlns="http://www.w3.org/2000/svg" xmlns:xlink="http://www.w3.org/1999/xlink"
	 x="0px" y="0px" viewBox="0 0 90 50" style="enable-background:new 0 0 90 50;" xml:space="preserve">
<g id="グループ化_6479" transform="translate(36.583)">
	<g id="グループ化_6478">
		<path id="パス_21959" d="M10.2,0.7c5.5,0,8.6,3.2,8.6,7.6c0.1,2.7-1.6,5.1-4.1,6.1c3,0.8,5.1,3.6,5,6.7c0,4.6-3.4,7.9-8.8,7.9H0
			V0.7H10.2z M9.4,12.5c2.5,0,4-1.4,4-3.6S12,5.4,9.3,5.4H5.4v7.1L9.4,12.5z M9.9,24.5c2.7,0,4.3-1.4,4.3-3.7c0-2.2-1.4-3.8-4.2-3.8
			H5.4v7.5L9.9,24.5z"/>
	</g>
</g>
<path id="パス_21960" d="M45,49.3L0,4.3l3.4-3.4L45,42.4L86.6,0.8L90,4.3L45,49.3z"/>
<g id="グループ化_6480" transform="translate(62.22 33.504)">
	<path id="パス_21961" d="M3.3,14.7V5.8H0V3.6c2,0,3.5-1.2,3.7-2.6h2.8v13.6L3.3,14.7z"/>
	<path id="パス_21962" d="M7.9,11c0-1.5,0.9-2.8,2.3-3.3C9,7.2,8.2,6,8.2,4.7c0-2.3,2.1-3.9,5-3.9c3,0,5,1.7,5,3.9
		c0,1.3-0.8,2.5-2.1,3c1.4,0.5,2.3,1.8,2.3,3.3c0,2.4-2.2,4-5.3,4C10.1,15,7.9,13.4,7.9,11z M15.2,10.6c0.2-1.1-0.6-2.2-1.7-2.4
		c-1.1-0.2-2.2,0.6-2.4,1.7C11,11,11.7,12,12.8,12.2c0.1,0,0.2,0,0.3,0c1,0.1,1.9-0.6,2-1.6C15.2,10.7,15.2,10.6,15.2,10.6z
		 M14.9,4.9c-0.2-1-1.1-1.6-2.1-1.4c-0.7,0.1-1.3,0.7-1.4,1.4c0.1,1,0.9,1.7,1.9,1.6C14.2,6.4,14.9,5.8,14.9,4.9z"/>
</g>
</svg>
