<?xml version="1.0" encoding="utf-8"?>
<!-- Generator: Adobe Illustrator 22.1.0, SVG Export Plug-In . SVG Version: 6.00 Build 0)  -->
<svg version="1.1" id="グループ化_6524" xmlns="http://www.w3.org/2000/svg" xmlns:xlink="http://www.w3.org/1999/xlink"
	 x="0px" y="0px" viewBox="0 0 246 24" style="enable-background:new 0 0 246 24;" xml:space="preserve">
<style type="text/css">
	.st0{fill:#FFFFFF;}
</style>
<path id="パス_21999" class="st0" d="M8.5,0.7c4.5,0,7,2.6,7,6.1c0,2.2-1.3,4.1-3.3,4.8c2.4,0.6,4.1,2.8,4,5.3
	c0,3.7-2.8,6.4-7.1,6.4H0V0.7H8.5z M7.6,9.7c1.8,0,2.9-0.9,2.9-2.5c0-1.5-1-2.4-3-2.4H4.9v4.9H7.6z M8,19.2c1.9,0,3.1-1,3.1-2.6
	S9.9,14,8,14H4.9v5.3L8,19.2z"/>
<path id="パス_22000" class="st0" d="M19,23.3V0.7h5.1v22.6C24.1,23.3,19,23.3,19,23.3z"/>
<path id="パス_22001" class="st0" d="M38.5,5.5v17.8h-5V5.5h-6.9V0.7h19v4.8H38.5z"/>
<path id="パス_22002" class="st0" d="M70.6,0.7H76l-8.3,22.6h-5.2L54.2,0.7h5.5l5.4,15.9L70.6,0.7z"/>
<path id="パス_22003" class="st0" d="M88.5,18.7h-8.7l-1.6,4.6h-5.3l8.5-22.6h5.8l8.4,22.6h-5.5L88.5,18.7z M81.5,14.1H87
	l-2.7-7.8L81.5,14.1z"/>
<path id="パス_22004" class="st0" d="M97.8,23.3V0.7h5v17.8h9.8v4.8H97.8z"/>
<path id="パス_22005" class="st0" d="M115.2,23.3V0.7h5v17.8h9.8v4.8H115.2z"/>
<path id="パス_22006" class="st0" d="M132.6,23.3V0.7h14.3v4.7h-9.3v4.3h8.4v4.4h-8.4v4.3h9.3v4.8L132.6,23.3z"/>
<path id="パス_22007" class="st0" d="M148.3,0.7h5.9l4.6,8.4l4.7-8.4h5.6l-7.9,13.1v9.4h-5v-9.4L148.3,0.7z"/>
<path id="パス_22008" class="st0" d="M193.7,23.3h-16.8v-0.2c0-4.5,1.7-7.4,5.3-9.6l3.6-2.2c1.8-1.1,2.5-2.2,2.5-3.6
	c0-1.6-1.3-2.8-2.8-2.8c-0.1,0-0.2,0-0.3,0c-2.1,0-3.3,1.3-3.3,3.5c0,0.4,0.1,0.8,0.1,1.2l0.1,0.3l-4.9-0.1V9.7
	c-0.1-0.5-0.2-1-0.2-1.6c0.1-5.1,4.2-7.7,8.4-7.7c4.8,0,8.2,3.1,8.2,7.3c0,2.8-1.5,5.3-4.4,7l-4.3,2.6c-0.7,0.4-1.3,1-1.7,1.6h10.5
	L193.7,23.3L193.7,23.3z"/>
<path id="パス_22009" class="st0" d="M205.3,23.8c-3,0.1-5.8-1.3-7.5-3.8c-1.4-2.4-2.1-5.2-2-8c-0.2-2.8,0.5-5.6,2-8l0,0
	c3-4.1,8.7-5.1,12.8-2.1c0.8,0.6,1.5,1.3,2.1,2.1c1.4,2.4,2.1,5.2,2,8c0.1,2.8-0.6,5.6-2,8C211.1,22.5,208.2,23.9,205.3,23.8z
	 M205.3,4.8c-1.3-0.1-2.5,0.6-3.2,1.7c-0.9,1.7-1.3,3.6-1.2,5.5c-0.1,1.9,0.3,3.8,1.2,5.5l0,0c0.7,1.1,1.9,1.8,3.2,1.7
	c1.3,0.1,2.5-0.6,3.1-1.7c0.9-1.7,1.3-3.6,1.2-5.5c0.1-1.9-0.3-3.8-1.2-5.5C207.8,5.4,206.6,4.7,205.3,4.8z"/>
<path id="パス_22010" class="st0" d="M226.3,23.3h-5.1V8.4h-5.3V4.9h0.2c3,0,5.3-1.6,5.7-4V0.8h4.4L226.3,23.3L226.3,23.3z"/>
<path id="パス_22011" class="st0" d="M237.4,23.8c-5.1,0-8.6-2.7-8.6-6.7c0-2.4,1.5-4.5,3.6-5.4c-1.9-0.9-3.1-2.8-3.2-5
	c0-3.8,3.4-6.6,8.1-6.6s8.1,2.8,8.1,6.6c0,2.1-1.2,4-3.1,5c2.1,1,3.5,3.1,3.6,5.4C246,21.1,242.6,23.8,237.4,23.8z M237.4,13.7
	c-2.4,0-3.5,1.5-3.5,2.9s1.1,2.9,3.5,2.9c2.5,0,3.6-1.5,3.6-2.9S239.9,13.7,237.4,13.7L237.4,13.7z M237.4,4.5
	c-1.5-0.2-2.9,0.9-3,2.4c0,0.1,0,0.1,0,0.2c0,1.6,1.2,2.7,3.1,2.7c1.8,0,3.1-1.1,3.1-2.7C240.5,5.8,239.5,4.5,237.4,4.5L237.4,4.5z"
	/>
</svg>
