<?xml version="1.0" encoding="utf-8"?>
<!-- Generator: Adobe Illustrator 22.1.0, SVG Export Plug-In . SVG Version: 6.00 Build 0)  -->
<svg version="1.1" id="グループ化_6529" xmlns="http://www.w3.org/2000/svg" xmlns:xlink="http://www.w3.org/1999/xlink"
	 x="0px" y="0px" viewBox="0 0 140 76" style="enable-background:new 0 0 140 76;" xml:space="preserve">
<style type="text/css">
	.st0{fill:#FFFFFF;}
</style>
<g id="グループ化_6479" transform="translate(56.907)">
	<g id="グループ化_6478">
		<path id="パス_21959" class="st0" d="M15.9,0.3c8.6,0,13.4,5,13.4,11.9c0.1,4.2-2.5,8-6.4,9.5c4.7,1.2,8,5.6,7.8,10.5
			c0,7.2-5.4,12.3-13.6,12.3H0V0.3H15.9z M14.5,18.5c3.9,0,6.3-2.2,6.3-5.5c0-3.4-2.2-5.5-6.4-5.5h-6v11H14.5z M15.4,37.2
			c4.2,0,6.7-2.2,6.7-5.7c0-3.5-2.2-5.9-6.5-5.9H8.5v11.6L15.4,37.2z"/>
	</g>
</g>
<path id="パス_21960" class="st0" d="M70,75.8L0,5.8l5.4-5.3L70,65.1l64.6-64.6l5.4,5.3L70,75.8z"/>
<g id="グループ化_6480" transform="translate(96.787 52.118)">
	<path id="パス_21961" class="st0" d="M5.1,21.9V8.1H0V4.7c3.2,0,5.4-1.8,5.8-4h4.4v21.2L5.1,21.9z"/>
	<path id="パス_21962" class="st0" d="M12.4,16.2c0-2.3,1.4-4.3,3.6-5.2c-1.9-0.7-3.2-2.6-3.2-4.6c0-3.6,3.2-6.1,7.8-6.1
		c4.6,0,7.8,2.6,7.8,6.1c0,2.1-1.3,3.9-3.2,4.6c2.1,0.8,3.6,2.9,3.6,5.2c0,3.7-3.4,6.2-8.2,6.2C15.7,22.4,12.4,19.9,12.4,16.2z
		 M23.7,15.6c0-1.3-1-2.7-3.2-2.7c-1.5-0.2-2.9,0.8-3.1,2.3c-0.2,1.5,0.8,2.9,2.3,3.1c0.3,0,0.6,0,0.8,0
		C22.6,18.2,23.7,16.8,23.7,15.6L23.7,15.6z M23.2,6.8C23,5.3,21.5,4.3,20,4.5c-1.1,0.2-2,1.1-2.2,2.2c0.1,1.5,1.5,2.6,3,2.5
		C22.1,9.1,23.1,8.1,23.2,6.8z"/>
</g>
</svg>
