<?xml version="1.0" encoding="utf-8"?>
<!-- Generator: Adobe Illustrator 22.1.0, SVG Export Plug-In . SVG Version: 6.00 Build 0)  -->
<svg version="1.1" id="flogo_RGB_HEX-1024" xmlns="http://www.w3.org/2000/svg" xmlns:xlink="http://www.w3.org/1999/xlink" x="0px"
	 y="0px" viewBox="0 0 38 38" style="enable-background:new 0 0 38 38;" xml:space="preserve">
<style type="text/css">
	.st0{fill:#4267B2;}
	.st1{fill:#FFFFFF;}
</style>
<path id="パス_22022" class="st0" d="M33.2,3H4.8C3.8,3,3,3.8,3,4.8v28.5c0,1,0.8,1.8,1.8,1.8h15.3V22.6h-4.2v-4.8h4.2v-3.6
	c0-4.1,2.5-6.4,6.2-6.4c1.2,0,2.5,0.1,3.7,0.2v4.3h-2.5c-2,0-2.4,1-2.4,2.4v3.1h4.8l-0.6,4.8h-4.2V35h8.1c1,0,1.8-0.8,1.8-1.8
	c0,0,0,0,0,0V4.8C35,3.8,34.2,3,33.2,3z"/>
<path id="f" class="st1" d="M25.1,35V22.6h4.2l0.6-4.8h-4.8v-3.1c0-1.4,0.4-2.4,2.4-2.4H30V8c-1.2-0.1-2.5-0.2-3.7-0.2
	c-3.7,0-6.2,2.2-6.2,6.4v3.6h-4.2v4.8h4.2V35L25.1,35z"/>
<path id="パス_22023" class="st0" d="M33.2,3H4.8C3.8,3,3,3.8,3,4.8v28.5c0,1,0.8,1.8,1.8,1.8h15.3V22.6h-4.2v-4.8h4.2v-3.6
	c0-4.1,2.5-6.4,6.2-6.4c1.2,0,2.5,0.1,3.7,0.2v4.3h-2.5c-2,0-2.4,1-2.4,2.4v3.1h4.8l-0.6,4.8h-4.2V35h8.1c1,0,1.8-0.8,1.8-1.8
	c0,0,0,0,0,0V4.8C35,3.8,34.2,3,33.2,3z"/>
<path id="f-2" class="st1" d="M25.1,35V22.6h4.2l0.6-4.8h-4.8v-3.1c0-1.4,0.4-2.4,2.4-2.4H30V8c-1.2-0.1-2.5-0.2-3.7-0.2
	c-3.7,0-6.2,2.2-6.2,6.4v3.6h-4.2v4.8h4.2V35L25.1,35z"/>
</svg>
