<?xml version="1.0" encoding="utf-8"?>
<!-- Generator: Adobe Illustrator 22.1.0, SVG Export Plug-In . SVG Version: 6.00 Build 0)  -->
<svg version="1.1" id="レイヤー_1" xmlns="http://www.w3.org/2000/svg" xmlns:xlink="http://www.w3.org/1999/xlink" x="0px"
	 y="0px" viewBox="0 0 18 18" style="enable-background:new 0 0 18 18;" xml:space="preserve">
<path d="M9,0.7c-4.7,0-8.5,3.8-8.5,8.5c0,3.8,2.4,6.9,5.8,8.1c0.4,0.1,0.6-0.2,0.6-0.4c0-0.2,0-0.9,0-1.6c-2.1,0.4-2.7-0.5-2.9-1
	c-0.1-0.2-0.5-1-0.9-1.2c-0.3-0.2-0.7-0.6,0-0.6c0.7,0,1.1,0.6,1.3,0.9c0.8,1.3,2,0.9,2.5,0.7C7,13.5,7.2,13.2,7.5,13
	C5.6,12.7,3.6,12,3.6,8.8c0-0.9,0.3-1.7,0.9-2.3C4.4,6.3,4.1,5.4,4.6,4.2c0,0,0.7-0.2,2.3,0.9C7.6,4.9,8.3,4.8,9,4.8
	c0.7,0,1.4,0.1,2.1,0.3c1.6-1.1,2.3-0.9,2.3-0.9c0.5,1.2,0.2,2,0.1,2.3c0.5,0.6,0.9,1.3,0.9,2.3c0,3.3-2,4-3.9,4.2
	c0.3,0.3,0.6,0.8,0.6,1.6c0,1.1,0,2.1,0,2.3c0,0.2,0.2,0.5,0.6,0.4c3.4-1.1,5.8-4.3,5.8-8.1C17.5,4.5,13.7,0.7,9,0.7z"/>
</svg>
