<?xml version="1.0" encoding="utf-8"?>
<!-- Generator: Adobe Illustrator 22.1.0, SVG Export Plug-In . SVG Version: 6.00 Build 0)  -->
<svg version="1.1" id="レイヤー_1" xmlns="http://www.w3.org/2000/svg" xmlns:xlink="http://www.w3.org/1999/xlink" x="0px"
	 y="0px" viewBox="0 0 18 18" style="enable-background:new 0 0 18 18;" xml:space="preserve">
<path id="パス_22023" d="M15.7,1.5H2.3c-0.5,0-0.8,0.4-0.8,0.8c0,0,0,0,0,0v13.4c0,0.5,0.4,0.8,0.8,0.8c0,0,0,0,0,0h7.2v-5.8h-2
	V8.4h2V6.7c-0.1-1.5,1-2.8,2.5-3c0.2,0,0.3,0,0.5,0c0.6,0,1.2,0,1.8,0.1v2H13c-0.9,0-1.1,0.4-1.1,1.1v1.5h2.3l-0.3,2.3h-2v5.8h3.8
	c0.5,0,0.8-0.4,0.8-0.8c0,0,0,0,0,0V2.3C16.5,1.8,16.2,1.5,15.7,1.5C15.7,1.5,15.7,1.5,15.7,1.5z"/>
</svg>
