<?xml version="1.0" encoding="utf-8"?>
<!-- Generator: Adobe Illustrator 22.1.0, SVG Export Plug-In . SVG Version: 6.00 Build 0)  -->
<svg version="1.1" id="レイヤー_1" xmlns="http://www.w3.org/2000/svg" xmlns:xlink="http://www.w3.org/1999/xlink" x="0px"
	 y="0px" viewBox="0 0 160 160" style="enable-background:new 0 0 160 160;" xml:space="preserve">
<path d="M126.3,118.6c1.6,3.5,2.9,6.8,4.1,9.8c-1.4,1.4-3.3,2.7-5.7,3.9c-2.3,1.2-5.1,2.2-8.2,3.2c-0.9,0.2-1.9,0.5-3,0.9
	c-1.2,0.4-2.5,0.7-4,1.1c-2.1,0.1-4.5,0.4-7.4,0.6c-2.9,0.3-6.3,0.7-10.2,1.2c-5.6,4.4-10.5,7.8-14.8,10.3
	c-4.3,2.5-7.9,4.1-10.9,4.8l-1.6,1.4c-2.4,1.1-5.4,1.9-8.8,2.6c-3.5,0.7-7.5,1.3-12.2,1.8c-0.9-0.2-1.7-0.7-2.6-1.5
	c-0.9-0.8-1.9-2-3-3.5c0.7-0.8,1.6-1.8,2.7-3.1c1.1-1.3,2.2-2.7,3.5-4.5c1.1-1.6,2.3-2.8,3.8-3.8c1.5-1,3.3-1.7,5.6-2.1
	c2.3-0.5,4.9-1.2,7.8-2.1c0.7-0.6,1.6-1.2,2.6-1.8c1-0.6,2.2-1.3,3.5-2.2c1.6-0.8,3.4-1.9,5.1-3.3c1.8-1.4,3.7-3.2,5.9-5.2
	c2.9-2.8,5.1-5,6.8-6.7c1.7-1.7,2.7-2.7,3.1-3.2c0.6-1,1.2-1.9,1.8-2.7c0.6-0.8,1.4-1.6,2.3-2.3c1-1.7,2.2-3.9,3.7-6.5
	c1.5-2.6,3.3-5.6,5.3-9c0.4-0.4,0.8-0.9,1.3-1.6c0.5-0.7,1.2-1.4,1.9-2.2c1.4-1.6,2.5-4.1,3.1-7.5c0.6-3.3,1-7.4,1-12.2
	c0-3.3-0.8-6.7-2.5-10.3c-1.7-3.6-4.3-7.3-7.7-11.3c-2.9-3.3-6-6.2-9.3-8.8c-3.3-2.6-6.6-4.7-9.9-6.4c-2.6-1.3-5-2.5-7.2-3.8
	c-2.2-1.2-4.3-2.4-6.1-3.4c-1,3.6-2.3,8.5-3.8,14.7C60.7,50.4,58.9,58,57,67c-2.1,10.1-3.7,18.3-4.8,24.5
	c-1.1,6.2-1.6,10.4-1.6,12.5c-0.4,1.8-0.8,3.6-1.1,5.3l-4.3,21.1c-2.5,4.8-4.6,8.4-6.4,10.8c-1.8,2.4-3.2,3.5-4.2,3.5
	c-0.5,0-1-0.4-1.4-1.2c-0.4-0.8-0.9-2.1-1.3-3.9l1.3-6.1c-0.2-0.4-0.4-1-0.6-1.8c0.4-4.6,0.8-9.3,1.2-14.1c0.4-4.7,0.8-9.5,1.2-14.2
	c0.4-5.3,0.9-10.2,1.6-14.9c0.7-4.6,1.5-8.9,2.4-12.8l-1.3-5.5c0.5-1.4,0.9-3,1.3-5c0.4-2,0.7-4.3,1-6.8c0.3-3.3,0.5-5.9,0.7-8
	c0.2-2,0.5-3.4,0.7-4.2c0.3-0.9,0.6-2.1,0.9-3.5c0.3-1.4,0.7-3.1,1.1-5.1c0.2-0.8,1.5-2.3,3.7-4.5c2.3-2.2,3.7-3.9,4.4-5.1
	c1.5-0.2,2.6-0.5,3.3-0.9c0.7-0.4,1.1-0.9,1.1-1.6c0-0.5-0.4-0.9-1.2-1.3c-0.8-0.4-2-0.6-3.7-0.9c-0.8,0-1.7-0.1-2.7-0.3
	c-1-0.2-2.1-0.5-3.2-0.9l-8.8-4.3c-1.9-0.9-3.3-1.7-4.3-2.6c-1-0.9-1.5-1.7-1.5-2.7c0.4-1.4,0.8-2.9,1.1-4.3
	c-0.5-1.4-0.9-2.6-1.2-3.5c-0.3-0.9-0.5-1.6-0.5-2.1c0-0.6,0.2-1.1,0.5-1.5c0.3-0.4,0.8-0.5,1.3-0.5c2,0.4,3.7,0.7,5.2,1
	c0.7-0.2,1.4-0.4,2.1-0.7c0.7-0.2,1.4-0.5,2.1-0.8c1.7,0,3.2,0.1,4.6,0.4c1.4,0.2,2.4,0.5,3.1,0.8c1,0.5,2,1,3.1,1.6
	c1.1,0.6,2.1,1.1,3.1,1.5c0.9-0.1,2-0.3,3.4-0.5c0.4,0,0.8,0.1,1.2,0.2c0.9,0.6,1.9,1.1,3.1,1.6c1.2,0.5,2.6,0.9,4.2,1.2
	c1.7,0.3,3.2,0.6,4.4,0.9c1.2,0.3,2.2,0.7,2.9,1c7.6,3.9,14.2,7.6,19.8,11.1c5.7,3.5,10.3,6.8,14.1,10.1
	c5.8,5.1,10.2,10.5,12.9,16.3c2.8,5.8,4.2,11.8,4.2,18.1c0,10-3,20.6-8.9,31.8c-5.9,11.2-14.7,23-26.4,35.3c1-0.4,2.3-0.9,4-1.4
	c1.6-0.5,3.5-1.1,5.7-1.8c4.5-1,9.1-2.1,13.9-3.2c3-0.9,5.5-1.8,7.6-2.8C123.4,121.2,125,120,126.3,118.6z"/>
</svg>
