<?xml version="1.0" encoding="utf-8"?>
<!-- Generator: Adobe Illustrator 22.1.0, SVG Export Plug-In . SVG Version: 6.00 Build 0)  -->
<svg version="1.1" id="レイヤー_1" xmlns="http://www.w3.org/2000/svg" xmlns:xlink="http://www.w3.org/1999/xlink" x="0px"
	 y="0px" viewBox="0 0 160 160" style="enable-background:new 0 0 160 160;" xml:space="preserve">
<path d="M109.9,123.1c-2.2,0.9-4.6,1.8-7.1,2.7s-5,1.8-7.7,2.6c-2.6,0.8-5.3,1.6-8.1,2.4c-2.7,0.7-5.5,1.4-8.3,2
	c0.7,1.1,1.8,1.8,3.1,2s2.8,0.1,4.5-0.4c1.7-0.5,3.4-1.2,5.2-2.2c1.8-1,3.6-2.1,5.3-3.4c1.1,0.1,2.4,0,3.7-0.2
	c1.3-0.2,2.6-0.5,3.8-0.9s2.4-0.9,3.5-1.6s2-1.4,2.7-2.2c0.1-0.2,0.2-0.4,0.2-0.5s0-0.3,0-0.4s-0.2-0.2-0.3-0.2
	S110.1,123,109.9,123.1z"/>
<path d="M144.6,33.3c-0.1-0.7-0.5-0.7-1.1-0.4c-0.5,0.3-1.1,0.8-1.6,1.1c-3.4,1.6-6.6,2.8-9.8,3.9c-3.3,1.2-6.6,2.3-10.2,3.8
	c-0.8-3.6,0.4-4.1,3.1-4.8c2.7-0.7,6.8-1.5,11.6-5.8c0.2-0.2,0.2-0.5,0.1-0.7s-0.4-0.3-0.6-0.3c-1.7-0.2-4-1-6.2-1.6
	c-0.2-0.1-0.4-0.1-0.6-0.2l-6.6,3.2c0.9,0.2,1.7,0.5,1.8,1.1l-2.2,1l-2.2,1l-0.4-1.4l-0.4-1.4c0.7-0.2,1.9-0.3,3-0.2
	c0.1,0,0.2,0,0.3,0.1l6.6-3.2c-2-0.6-3.8-1.1-5-1.1c-1.3,0-2.5,0.4-3.6,0.7c-1,0.4-1.9,0.7-2.5,0.7l-1.1-2.3l-1.1-2.3
	c-2.7,0-6.9-0.3-10.9-0.7c-4.1-0.4-8-1-10-1.4c1.7-3.3,2.8-6.3,3.5-9.1s0.9-5.6,0.8-8.2C97.9,4.1,94,3,89.8,1.9
	C85.7,0.9,81.3,0,79,0C74.8,0,71,4.6,66.7,9.1c-4.3,4.5-9.1,8.7-15.1,8c-2.2,3.3-3.3,6.3-3.8,9.3c-0.5,3-0.2,6,0.4,9
	c-1.2,2.5-2.4,4.9-3.5,7.3c-1.1,2.2-2.1,4.3-3.2,6.4c-1.6,3.1-3.1,6.1-4.6,9c-1.3,2.5-2.5,4.9-3.7,7.2c-1.4,2.7-2.7,5.2-3.9,7.7
	c-1.4,2.7-2.7,5.3-3.9,7.9c-1.5,3.1-2.8,6-4,8.8c-1.8,4.2-3.2,8.1-4.3,11.8c-1,3.7-1.6,7.2-1.7,10.5c-0.1,2.9,0,5.6,0.2,8.2
	c0.2,3.3,0.7,6.4,1.4,9.2c0.9,3.7,2.1,7,3.6,10c2,3.9,4.5,7.1,7.5,9.8c1.8,1.6,3.7,3,5.8,4.2c1.7,1,3.4,1.8,5.2,2.6
	c1.6,0.7,3.3,1.2,5.1,1.7c5.6,1.5,11.8,2.3,18.4,2.3c7.3,0,16.1-1.8,24.9-4.4s17.8-5.9,25.7-8.9c1.7-0.6,3-1.3,4.1-2.2
	c1.1-0.9,1.9-1.9,2.7-3.1c0.6-1.2,0.5-1.6,0.1-1.7s-1,0.2-1.3,0.3c-5.9,2-12.2,4.2-18.2,6.2s-11.7,3.8-16.5,5.1
	c-2.3,0.6-4.8,0.9-7.1,0.8c-2.3-0.1-4.6-0.5-6.4-1.3c1.5-0.4,2.9-0.7,4.4-1.1c1.8-0.5,3.5-0.9,5.3-1.4c1.6-0.4,3.2-0.9,4.8-1.3
	c2.1-0.6,4.2-1.1,6.2-1.7c1.3-0.4,2.6-0.7,3.9-1.1c1.7-0.5,3.3-1,5-1.5c2-0.6,3.9-1.2,5.8-1.8c1.7-0.6,3.4-1.1,5-1.7
	c0.4-0.1,0.7-0.3,0.8-0.5s0.1-0.4-0.3-0.5c-0.8-0.5-1.9-1.1-3-1.8c-1.1-0.7-2.1-1.3-2.8-1.8l2.8-1l5.4-2l4-1.5l4.2-1.5
	c1-0.5,2.3-1.1,3.4-1.8c1.1-0.7,1.9-1.4,1.6-2c-0.1-0.4-0.4-0.5-0.8-0.5s-0.8,0.1-1.1,0.2c-2.1,0.7-4.4,1.4-6.8,2.2
	c-1.9,0.6-4,1.3-6.1,2c-1.8,0.6-3.6,1.2-5.4,1.8c-1.1,0.4-2.3,0.7-3.4,1.1c-2,0.6-3.9,1.3-5.9,1.9c-1.7,0.5-3.4,1.1-5.1,1.6
	c-2.5,0.8-5,1.5-7.5,2.3c-2,0.6-4,1.1-5.9,1.7c-1.7,0.5-2.8-0.7-4-2c-1.2-1.3-2.4-2.6-4.2-2.3c0,0.7-0.5,1.4-1.3,2
	c-0.8,0.5-1.7,0.9-2.6,0.9l-0.7-1.2l-0.7-1.2c-2.2,0.5-4.8,1.1-7.7,1.5c-1.6,0.2-3.3,0.4-5.1,0.4c-2.3,0.1-4.7-0.1-6.9-0.6
	c-2.2-0.5-4.3-1.4-6.2-2.8c0.1-1.2,0.4-3.4,0.9-6.1h-2.7l-0.2,1.2l-0.6,3.3c-1-0.7-1.4-1.9-1.4-3.4c-0.1-1.5,0.2-3.4,0.7-5.5l1,1.2
	l1,1.2l-0.4,2h2.7c0.7-3.5,1.7-8,2.9-12.3c0-0.2,0.1-0.3,0.1-0.5H41l-1.7,5.7l-0.8-1.1l-0.8-1.1l1.3-4.5l1.3-4.5l1.2-0.1l1.2-0.1
	l-1.7,5.7h2.7c1.1-3.7,2.3-7.2,3.7-10.1h-4c-0.8,1-1.6,2-2.4,3h-0.1h-0.1v-1.3v-1.3c0.2-1.2,0.6-2.2,1.3-2.8
	c0.7-0.6,1.7-0.9,3.3-0.8c-0.5,1.2-1.2,2.3-2,3.3h4c1.4-2.9,2.9-5.1,4.5-5.7c2-0.9,4.8-1.8,8-2.7c3.3-0.9,7-1.9,11.1-2.8
	c3.6-0.8,7.4-1.6,11.3-2.4c3.2-0.6,6.3-1.2,9.4-1.8c4.3-0.8,8.5-1.5,12.3-2.1c4.1-0.7,7.7-1.3,10.6-1.7l0.8-2.7l0.8-2.7
	c-1.2-0.6-2.1-1.5-2.6-2.6c-0.5-1.1-0.5-2.3-0.1-3.7c-2.5-4.3-4.3-7.1-6.4-8.8s-4.3-2.3-7.8-2.3c-2.1,0-5.4,0.7-9.2,1.8
	c-2.5,0.7-5.3,1.6-8.1,2.4c-3.4,1-6.9,2.1-10.2,3c-3.5,0.9-6.7,1.7-9.1,1.9c0.5-0.8,1-1.5,1.4-2.3h-5.4l-1.1,2.5L56,72.5l-1.6,0.2
	c0.4-1.3,1.3-2.8,2.4-4c1.1-1.2,2.3-2,3.1-2l-1.2,2.8l-0.1,0.2h5.4c1.5-2.4,2.9-4.6,4.2-6.7c0.7-1.2,1.4-2.3,2.1-3.4h-3.9l-1.8,3
	L63,63l-1.6,0.4l2-3.4l2-3.4l1.6-0.4l1.6-0.4l-2,3.4l-0.2,0.4h3.9c0.9-1.4,1.7-2.7,2.4-4c3.7-1,7.4-1.9,11.2-2.7
	c2.4-0.5,4.9-1,7.4-1.5c4.6-0.9,9.3-1.7,14-2.6c3.2-0.6,6.4-1.3,9.5-2c3.4-0.8,6.8-1.7,10.2-2.8c4.4-1.4,8.9-3,13.3-5
	c1.2-1,2.9-1.8,4.2-2.7S144.8,34.5,144.6,33.3z"/>
</svg>
