<?xml version="1.0" encoding="utf-8"?>
<!-- Generator: Adobe Illustrator 22.1.0, SVG Export Plug-In . SVG Version: 6.00 Build 0)  -->
<svg version="1.1" id="レイヤー_1" xmlns="http://www.w3.org/2000/svg" xmlns:xlink="http://www.w3.org/1999/xlink" x="0px"
	 y="0px" viewBox="0 0 160 160" style="enable-background:new 0 0 160 160;" xml:space="preserve">
<path d="M136.3,156.6l-12.6-0.5c-1.3,0-2.2-0.2-2.8-0.7c-0.6-0.5-0.8-1.4-0.8-2.9V8.3c0-0.8,0.1-1.4,0.2-1.9
	c0.4-1.5,1.4-1.7,3.4-1.7l12.6-0.5c0.9,0,1.4-0.7,1.4-2c0-1.3-0.4-1.8-1.3-1.8c-32.4,0.4-38.2,0.4-56.6,0.4c-18.4,0-24.3,0-56.6-0.4
	c-0.9,0-1.3,0.4-1.3,1.8c0,1.3,0.5,2,1.3,2l12.6,0.5c1.4,0,2.2,0.1,2.8,0.6c0.6,0.5,0.8,1.4,0.8,3V80h4V8c0-1.2,0.1-2,0.4-2.5
	c0.5-0.8,1.5-0.9,3.4-0.9h6.7c1.6,0,2.5,0.1,3.1,0.5c0.6,0.4,0.7,1.3,0.7,2.9v144.5c0,1.6-0.2,2.4-0.7,2.9c-0.6,0.4-1.5,0.5-3.1,0.5
	H47c-1.6,0-2.5-0.1-3.1-0.5c-0.6-0.4-0.7-1.3-0.7-2.9V80h-4v68.2c0,0.7-0.1,5.6-0.2,6.1c-0.2,0.7-0.5,1.2-1.1,1.4
	c-0.6,0.3-1.3,0.4-2.3,0.4L23,156.6c-0.9,0-1.3,0.7-1.3,2c0,1.3,0.5,1.8,1.3,1.8c35.4-0.5,38.7-0.5,56.6-0.4c18.4,0,24.3,0,56.6,0.4
	c0.9,0,1.3-0.4,1.3-1.8C137.6,157.2,137.2,156.6,136.3,156.6z"/>
</svg>
