<?xml version="1.0" encoding="utf-8"?>
<!-- Generator: Adobe Illustrator 22.1.0, SVG Export Plug-In . SVG Version: 6.00 Build 0)  -->
<svg version="1.1" id="レイヤー_1" xmlns="http://www.w3.org/2000/svg" xmlns:xlink="http://www.w3.org/1999/xlink" x="0px"
	 y="0px" viewBox="0 0 160 160" style="enable-background:new 0 0 160 160;" xml:space="preserve">
<path d="M35.1,138.8l7.7-9.7l7.7-9.7l7.7-9.7l7.7-9.7l7.7-9.7l7.7-9.7l7.7-9.7l7.7-9.7c0.3-0.4,0.6-0.8,0.9-1.2
	c0.3-0.4,0.5-0.8,0.8-1.1c0.3-0.4,0.5-0.7,0.7-1.1s0.4-0.7,0.6-1.1c0.2-0.4,0.4-0.7,0.6-1.1c0.2-0.4,0.3-0.7,0.5-1.1
	c0.2-0.3,0.3-0.7,0.4-1s0.3-0.7,0.4-1c0.1-0.3,0.1-0.6,0.2-0.9c0.1-0.3,0.1-0.6,0.2-0.9c0.1-0.3,0.1-0.6,0.1-0.9s0.1-0.6,0.1-0.9
	c0-0.3,0.1-0.6,0.1-0.9c0-0.3,0-0.6,0.1-0.9s0-0.6,0-0.9s0-0.6,0-0.9c0-0.7,0-1.5-0.1-2.2c-0.1-0.7-0.1-1.4-0.3-2.1
	c-0.1-0.7-0.3-1.4-0.4-2.1s-0.4-1.3-0.6-2s-0.5-1.3-0.8-1.9c-0.3-0.6-0.6-1.2-1-1.8s-0.7-1.2-1.1-1.8s-0.8-1.1-1.3-1.7
	c-0.5-0.6-1-1.1-1.5-1.6c-0.5-0.5-1.1-0.9-1.7-1.4c-0.6-0.4-1.2-0.8-1.8-1.2s-1.3-0.7-2-1c-0.7-0.3-1.4-0.5-2.1-0.8
	c-0.7-0.2-1.5-0.4-2.3-0.6s-1.6-0.3-2.4-0.4c-0.8-0.1-1.7-0.1-2.6-0.2c-0.8,0-1.5,0-2.3,0.1s-1.5,0.2-2.2,0.3
	c-0.7,0.1-1.4,0.3-2.1,0.5s-1.3,0.4-2,0.7c-0.6,0.2-1.3,0.5-1.9,0.8c-0.6,0.3-1.2,0.7-1.8,1c-0.6,0.4-1.1,0.8-1.7,1.2
	s-1.1,0.9-1.6,1.4c-0.5,0.5-1,1-1.5,1.6s-0.9,1.1-1.4,1.7c-0.4,0.6-0.8,1.2-1.2,1.9s-0.7,1.3-1,2c-0.3,0.7-0.6,1.4-0.9,2.2
	c-0.3,0.8-0.5,1.5-0.7,2.3c-0.2,0.8-0.4,1.6-0.5,2.5c-0.2,0.9-0.3,1.7-0.4,2.6h-2.8H52h-2.8h-2.8h-2.8h-2.8h-2.8h-2.8
	c0.1-1.7,0.2-3.3,0.4-4.8s0.4-3.1,0.8-4.6c0.3-1.5,0.7-3,1.1-4.4c0.4-1.4,0.9-2.8,1.5-4.2s1.2-2.7,1.8-4c0.7-1.3,1.4-2.6,2.2-3.8
	c0.8-1.2,1.6-2.4,2.6-3.6c0.9-1.2,1.9-2.3,2.9-3.3c1-1.1,2.1-2,3.2-3c1.1-0.9,2.2-1.8,3.4-2.6s2.4-1.5,3.6-2.2
	c1.2-0.7,2.5-1.3,3.8-1.8c1.3-0.5,2.6-1,3.9-1.4c1.3-0.4,2.7-0.7,4.1-1s2.8-0.5,4.3-0.6c1.5-0.1,3-0.2,4.5-0.2c1.7,0,3.4,0.1,5,0.3
	s3.2,0.4,4.8,0.6c1.5,0.3,3,0.6,4.5,1c1.5,0.4,2.9,0.9,4.3,1.4c1.4,0.5,2.7,1.2,4,1.8c1.3,0.7,2.6,1.4,3.8,2.2s2.4,1.7,3.5,2.6
	c1.1,0.9,2.2,1.9,3.3,3c1.1,1.1,2.1,2.2,3,3.3c0.9,1.1,1.8,2.3,2.6,3.5c0.8,1.2,1.6,2.4,2.2,3.7s1.3,2.6,1.8,3.9s1,2.7,1.4,4.1
	s0.8,2.9,1,4.4s0.5,3,0.7,4.6c0.2,1.6,0.2,3.2,0.3,4.8c0,1.3,0,2.6-0.1,3.9c-0.1,1.3-0.2,2.5-0.4,3.8c-0.2,1.2-0.4,2.4-0.7,3.6
	c-0.3,1.2-0.6,2.4-1,3.5c-0.4,1.2-0.8,2.3-1.3,3.4c-0.5,1.1-1,2.2-1.6,3.3c-0.6,1.1-1.2,2.2-1.9,3.2c-0.7,1.1-1.4,2.1-2.2,3.1
	l-6.4,8l-6.4,8l-6.4,8l-6.4,8l-6.4,8l-6.4,8l-6.4,8l-6.4,8h7.6H80h7.6h7.6h7.6h7.6h7.6h7.6v2.8v2.8v2.8v2.8v2.8v2.8v2.8v2.8h-11.3
	h-11.3H91.6H80.3H69H57.7H46.4H35.1v-2.7v-2.7v-2.7v-2.7v-2.7v-2.7v-2.7V138.8z"/>
</svg>
