<?xml version="1.0" encoding="utf-8"?>
<!-- Generator: Adobe Illustrator 22.1.0, SVG Export Plug-In . SVG Version: 6.00 Build 0)  -->
<svg version="1.1" id="レイヤー_1" xmlns="http://www.w3.org/2000/svg" xmlns:xlink="http://www.w3.org/1999/xlink" x="0px"
	 y="0px" viewBox="0 0 160 160" style="enable-background:new 0 0 160 160;" xml:space="preserve">
<path d="M97.1,4.2c-0.8-2.3-2.8-3.6-4.6-3.6H67.1c-1.8,0-3.8,1.3-4.6,3.6l-47,152.6c0,2.5,2,3.8,3.8,3.8h13.2c1.8,0,3.6-1.5,4.3-3.8
	l9.1-29.2h33.8v-19.3H51.8l27.9-91.4l28.2,91.4H79.8v19.3h34l8.9,29.2c0.8,2.3,2.5,3.8,4.3,3.8h13.2c1.8,0,3.8-1.3,3.8-3.8L97.1,4.2
	z"/>
</svg>
