<?xml version="1.0" encoding="utf-8"?>
<!-- Generator: Adobe Illustrator 22.1.0, SVG Export Plug-In . SVG Version: 6.00 Build 0)  -->
<svg version="1.1" id="レイヤー_1" xmlns="http://www.w3.org/2000/svg" xmlns:xlink="http://www.w3.org/1999/xlink" x="0px"
	 y="0px" viewBox="0 0 160 160" style="enable-background:new 0 0 160 160;" xml:space="preserve">
<path d="M17.2,160.6v-6.7v-6.6v-6.7V134l22.2-27l22.2-27l22.2-27l22.2-27H84.3H62.8H41.2H19.7v-6.4v-6.4V7V0.6H50h30.3h30.3h30.3V7
	v6.4v6.4v6.4l-22.5,27.1L95.9,80.6l-22.5,27.2L51,134.9h22.8h22.8h22.8H142v6.4v6.4v6.4v6.4h-31.2H79.6H48.4L17.2,160.6L17.2,160.6
	L17.2,160.6L17.2,160.6L17.2,160.6z"/>
</svg>
