<?xml version="1.0" encoding="utf-8"?>
<!-- Generator: Adobe Illustrator 22.1.0, SVG Export Plug-In . SVG Version: 6.00 Build 0)  -->
<svg version="1.1" id="レイヤー_1" xmlns="http://www.w3.org/2000/svg" xmlns:xlink="http://www.w3.org/1999/xlink" x="0px"
	 y="0px" viewBox="0 0 160 160" style="enable-background:new 0 0 160 160;" xml:space="preserve">
<path d="M95.2,143.8c0,2.4-0.3,4.7-1,6.8c-0.6,2.1-1.6,3.9-2.9,5.4c-1.3,1.5-2.9,2.8-4.9,3.6c-2,0.8-4.3,1.3-6.9,1.3
	c-2.7,0-5-0.5-6.9-1.3c-2-0.8-3.6-2.1-4.9-3.6c-1.3-1.5-2.3-3.4-2.9-5.4c-0.6-2.1-1-4.3-1-6.8v-14.5v-14.5v-14.5V86
	c-5.1-4-10.4-9.1-15.5-14.8S38.3,59,34,52.4S26,39,23.4,32.6s-4.1-12.7-4.1-18.1c0-2,0.4-3.9,1.2-5.5c0.7-1.7,1.8-3.1,3.1-4.3
	s2.8-2.1,4.4-2.8s3.3-1,5-1c1.5,0,3.1,0.2,4.7,0.6c1.6,0.5,3.2,1.2,4.7,2.3c1.5,1.1,3,2.6,4.2,4.6s2.3,4.5,3.1,7.6
	c1,3.9,2.5,8.2,4.5,12.6c1.9,4.4,4.2,8.9,6.8,13.3s5.5,8.5,8.6,12.3s6.4,7,9.9,9.5c3.5-2.5,6.8-5.8,9.9-9.5c3.1-3.7,6-7.9,8.6-12.3
	c2.6-4.4,4.9-8.9,6.8-13.3s3.4-8.7,4.5-12.6c0.8-3.1,1.9-5.6,3.1-7.6c1.3-2,2.7-3.5,4.2-4.6c1.5-1.1,3.1-1.9,4.7-2.3
	c1.6-0.5,3.2-0.6,4.7-0.6c1.7,0,3.4,0.3,5,1s3.1,1.6,4.4,2.8c1.3,1.2,2.3,2.6,3.1,4.3s1.2,3.5,1.2,5.5c0,5.4-1.5,11.6-4.1,18.1
	s-6.2,13.2-10.5,19.8s-9.2,13-14.3,18.7S100.3,82,95.2,86v14.5v14.5v14.5V143.8z"/>
</svg>
