<?xml version="1.0" encoding="utf-8"?>
<!-- Generator: Adobe Illustrator 22.1.0, SVG Export Plug-In . SVG Version: 6.00 Build 0)  -->
<svg version="1.1" id="レイヤー_1" xmlns="http://www.w3.org/2000/svg" xmlns:xlink="http://www.w3.org/1999/xlink" x="0px"
	 y="0px" viewBox="0 0 160 160" style="enable-background:new 0 0 160 160;" xml:space="preserve">
<path d="M137,14.5c-10.7-11.3-28.8-14-58.2-14C49.6,0.6,32,3.7,21.6,15.3C11.2,26.9,8.1,46.9,8.1,80.6c0,34.7,3.4,54.7,14.1,66
	c6.3,6.7,15.2,10.3,27.5,12.2L61.2,130c-6.4-0.8-10.8-2.5-13.8-5.9C41.8,117.7,41,105.3,41,81c0-24.4,0.8-37,6.1-43.6
	c5.2-6.5,14.9-7,32.5-7c9.8,0,17.6,0.2,23.4,1.8c5.9,1.6,9.8,4.5,11.8,9.7c1.4,3.8,2.2,11.9,2.7,20.2c0.5,8.3,0.6,16.9,0.6,21.6
	c0,21.7-1,33.4-6,39.8c-5,6.3-14.1,7.2-30.2,7.2c-8.6,0-15.4-0.1-20.8-0.7l-11.5,28.8c8.5,1.3,18.6,1.7,30.7,1.7
	c29.3,0,46.9-3.1,57.3-14.7C148,134.3,151,114.3,151,80.6C151,45.9,147.7,25.9,137,14.5z"/>
</svg>
