<?xml version="1.0" encoding="utf-8"?>
<!-- Generator: Adobe Illustrator 22.1.0, SVG Export Plug-In . SVG Version: 6.00 Build 0)  -->
<svg version="1.1" id="レイヤー_1" xmlns="http://www.w3.org/2000/svg" xmlns:xlink="http://www.w3.org/1999/xlink" x="0px"
	 y="0px" viewBox="0 0 160 160" style="enable-background:new 0 0 160 160;" xml:space="preserve">
<path d="M14.1,156.4h1.4h1.4h1.4h1.4h1.4h1.4H24h1.4c0.8-1.2,1.5-2.4,2.1-3.6s1.2-2.4,1.8-3.7s1-2.6,1.5-4c0.4-1.4,0.8-2.9,1.1-4.4
	c0.3-1.6,0.6-3.2,0.9-5.1c0.2-1.8,0.4-3.7,0.6-5.8c0.2-2.1,0.3-4.3,0.3-6.8c0.1-2.4,0.1-5.1,0.1-7.9v-2.2v-2.2v-2.2v-2.2v-2.2v-2.2
	v-2.2v-2.2c-1.5-0.4-2.9-0.9-4.3-1.5s-2.8-1.3-4.1-2.1c-1.3-0.8-2.6-1.7-3.7-2.6c-1.2-1-2.3-2-3.3-3.2c-1-1.2-1.9-2.4-2.7-3.7
	c-0.8-1.3-1.5-2.8-2.1-4.3s-1-3.1-1.3-4.8s-0.5-3.4-0.5-5.3c0-0.7,0-1.5,0.1-2.3c0.1-0.8,0.2-1.7,0.3-2.6c0.1-0.9,0.3-1.8,0.5-2.7
	c0.2-0.9,0.4-1.8,0.7-2.6c0.3-0.8,0.6-1.6,0.9-2.3c0.3-0.7,0.6-1.3,1-1.9c0.4-0.5,0.7-1,1.1-1.3c0.4-0.3,0.8-0.5,1.2-0.5
	c0.1,0,0.2,0,0.3,0c0.1,0,0.2,0.1,0.3,0.1c0.1,0,0.2,0.1,0.2,0.2s0.1,0.1,0.2,0.2c0.1,0.1,0.1,0.2,0.1,0.2c0,0.1,0.1,0.2,0.1,0.3
	c0,0.1,0,0.2,0.1,0.3s0,0.2,0,0.3c0,0.1,0,0.3-0.1,0.6c-0.1,0.3-0.2,0.7-0.4,1.1s-0.3,0.9-0.5,1.5c-0.2,0.6-0.4,1.2-0.6,1.8
	s-0.4,1.4-0.6,2.1c-0.2,0.7-0.4,1.5-0.5,2.3s-0.3,1.6-0.4,2.5c-0.1,0.8-0.1,1.7-0.1,2.5c0,1.9,0.2,3.7,0.5,5.3
	c0.3,1.6,0.8,3.1,1.3,4.5c0.6,1.4,1.2,2.6,2,3.7c0.8,1.1,1.6,2.1,2.5,3c0.9,0.9,1.9,1.7,2.8,2.4s2,1.3,3,1.9c1,0.5,2,1,3,1.4
	c1,0.4,1.9,0.7,2.8,1v-5.9v-5.9v-5.9v-5.9v-5.9v-5.9v-5.9v-5.9c0-2.8,0-5.5-0.1-7.9s-0.2-4.7-0.3-6.8c-0.2-2.1-0.3-4-0.6-5.8
	s-0.5-3.5-0.9-5.1c-0.3-1.6-0.7-3-1.1-4.4c-0.4-1.4-0.9-2.7-1.5-4s-1.1-2.5-1.8-3.7s-1.4-2.4-2.1-3.6H24h-1.4h-1.4h-1.4h-1.4h-1.4
	h-1.4h-1.4V4V3.5V3V2.5V2V1.5V1V0.4h8h8h8h8h8h8h8h8V1v0.5V2v0.5V3v0.5V4v0.5h-1h-1h-1h-1h-1h-1h-1h-1c-0.8,1.2-1.5,2.4-2.1,3.6
	s-1.2,2.4-1.8,3.7c-0.5,1.3-1,2.6-1.5,4c-0.4,1.4-0.8,2.9-1.1,4.4c-0.3,1.6-0.6,3.2-0.9,5.1s-0.4,3.7-0.6,5.8s-0.3,4.3-0.3,6.8
	s-0.1,5.1-0.1,7.9V52v6.3v6.3v6.3v6.3v6.3v6.3v6.3c0.7-0.1,1.4-0.2,2-0.3c0.7-0.1,1.4-0.2,2.1-0.4s1.4-0.3,2.1-0.5s1.4-0.4,2.1-0.6
	s1.4-0.5,2.1-0.7c0.7-0.3,1.4-0.5,2-0.8c0.7-0.3,1.3-0.6,2-1c0.7-0.3,1.3-0.7,2-1.1c-0.5-1.2-1-2.2-1.5-3.2c-0.5-1-0.9-1.8-1.4-2.6
	c-0.4-0.8-0.9-1.5-1.3-2.1c-0.5-0.6-0.9-1.2-1.4-1.8c-0.5-0.5-1-1-1.6-1.5c-0.6-0.5-1.2-0.9-1.9-1.3s-1.5-0.8-2.4-1.2
	c-0.9-0.4-1.8-0.8-2.9-1.2c2.3-1.2,4.3-2.3,6.1-3.5c1.8-1.2,3.5-2.3,5-3.5c1.5-1.2,2.8-2.4,4-3.6c1.2-1.2,2.3-2.5,3.3-3.9
	s1.9-2.8,2.7-4.4c0.8-1.5,1.6-3.2,2.4-5c0.8-1.8,1.5-3.7,2.3-5.8s1.6-4.3,2.4-6.7c0.3,2,0.6,3.8,0.8,5.4c0.2,1.6,0.5,3.1,0.7,4.4
	c0.2,1.4,0.4,2.6,0.7,3.8c0.2,1.2,0.5,2.4,0.7,3.6c0.3,1.2,0.6,2.4,0.9,3.7c0.4,1.3,0.8,2.7,1.2,4.2c0.5,1.5,1,3.2,1.6,5
	c0.6,1.8,1.3,3.9,2.2,6.2c0.7-0.8,1.4-1.7,2.1-2.6c0.7-1,1.4-2,2.1-3.1c0.7-1.1,1.4-2.3,2-3.6c0.6-1.3,1.3-2.6,1.8-4
	c0.6-1.4,1.1-2.8,1.6-4.3c0.5-1.5,0.9-3,1.2-4.6c0.3-1.6,0.6-3.2,0.8-4.8c0.2-1.6,0.3-3.3,0.3-5c0-1.8-0.1-3.6-0.2-5.4
	c-0.1-1.8-0.3-3.5-0.6-5.2c-0.3-1.7-0.6-3.3-1-5c-0.4-1.6-0.9-3.2-1.6-4.8c-0.6-1.6-1.3-3.2-2.2-4.7c-0.8-1.6-1.8-3.1-2.8-4.6
	s-2.3-3.1-3.6-4.6c-1.3-1.5-2.8-3.1-4.4-4.6h-1.4h-1.4h-1.4h-1.4h-1.4h-1.4h-1.4H85V4V3.5V3V2.5V2V1.5V1V0.4h6h6h6h6h6h6h6h6
	c0.1,0.5,0.2,0.9,0.2,1.4s0.2,0.9,0.2,1.4c0.1,0.5,0.1,0.9,0.2,1.4c0.1,0.5,0.1,0.9,0.2,1.4c0,0.5,0.1,0.9,0.1,1.4
	c0,0.5,0.1,0.9,0.1,1.4c0,0.5,0,0.9,0.1,1.4c0,0.5,0,0.9,0,1.4c0,3.9-0.2,7.6-0.7,11.1c-0.5,3.6-1.1,7-2,10.3s-1.9,6.4-3.1,9.5
	c-1.2,3-2.6,5.9-4.1,8.7s-3.1,5.5-4.8,8c-1.7,2.6-3.5,5-5.4,7.4c-1.9,2.4-3.8,4.7-5.7,6.9c-2,2.2-3.9,4.3-5.9,6.4L104,84l1.8,4.4
	l1.8,4.4l1.8,4.4l1.8,4.4l1.8,4.4l1.8,4.4l1.8,4.4c1.1,2.7,2.2,5.3,3.3,7.8c1.1,2.5,2.2,4.8,3.4,7c1.1,2.2,2.3,4.3,3.4,6.3
	c1.1,2,2.2,3.8,3.3,5.5c1.1,1.7,2.1,3.3,3.1,4.8c1,1.5,1.9,2.8,2.8,4c0.9,1.2,1.7,2.3,2.4,3.3c0.7,1,1.4,1.8,2,2.5h1h1h1h1h1h1h1h1
	v0.5v0.5v0.5v0.5v0.5v0.5v0.5v0.5h-8h-8h-8h-8h-8h-8h-8h-8v-0.5v-0.5v-0.5v-0.5v-0.5v-0.5v-0.5v-0.5h1.4h1.4h1.4h1.4H91h1.4h1.4h1.4
	c0.2-0.5,0.4-0.9,0.6-1.4c0.2-0.5,0.4-0.9,0.5-1.4c0.2-0.5,0.3-0.9,0.5-1.4c0.2-0.5,0.3-1,0.4-1.4c0.1-0.5,0.3-1,0.4-1.5
	c0.1-0.5,0.2-1,0.3-1.5c0.1-0.5,0.1-1,0.2-1.5c0-0.5,0.1-1,0.1-1.5c0-1.2-0.1-2.4-0.3-3.6c-0.2-1.2-0.4-2.4-0.7-3.7
	c-0.3-1.2-0.7-2.5-1.1-3.7c-0.4-1.2-0.9-2.5-1.4-3.7s-1-2.5-1.6-3.7c-0.5-1.3-1.1-2.5-1.7-3.8c-0.6-1.3-1.1-2.5-1.7-3.8
	c-0.6-1.3-1.1-2.5-1.6-3.7l-1.1-2.6l-1.1-2.6l-1.1-2.6l-1.1-2.6l-1.1-2.6l-1.1-2.6l-1.1-2.6l-1.1-2.6c-0.7,0.3-1.4,0.6-2.1,0.9
	s-1.4,0.6-2.1,0.9s-1.4,0.5-2.2,0.8c-0.7,0.3-1.5,0.5-2.2,0.7c-0.7,0.2-1.5,0.5-2.3,0.7c-0.8,0.2-1.5,0.4-2.3,0.6
	c-0.8,0.2-1.6,0.3-2.4,0.5c-0.8,0.1-1.6,0.3-2.4,0.4v1.9v1.9v1.9v1.9v1.9v1.9v1.9v1.9c0,2.8,0,5.5,0.1,7.9c0.1,2.4,0.2,4.7,0.4,6.8
	c0.2,2.1,0.4,4,0.6,5.8c0.2,1.8,0.5,3.5,0.9,5.1c0.3,1.6,0.7,3,1.2,4.4c0.4,1.4,0.9,2.7,1.4,4s1.1,2.5,1.7,3.7s1.3,2.4,2.1,3.6h1h1
	h1h1h1h1h1h1v0.5v0.5v0.5v0.5v0.5v0.5v0.5v0.5h-8h-8h-8h-8h-8h-8h-8h-8v-0.5v-0.5v-0.5v-0.5v-0.5v-0.5v-0.5V156.4z"/>
</svg>
