<?xml version="1.0" encoding="utf-8"?>
<!-- Generator: Adobe Illustrator 22.1.0, SVG Export Plug-In . SVG Version: 6.00 Build 0)  -->
<svg version="1.1" id="レイヤー_1" xmlns="http://www.w3.org/2000/svg" xmlns:xlink="http://www.w3.org/1999/xlink" x="0px"
	 y="0px" viewBox="0 0 160 160" style="enable-background:new 0 0 160 160;" xml:space="preserve">
<path d="M139.2,127.9c-5.4-12.9-10.9-26.6-16.6-41c-1.8-4.7-3.7-9.4-5.5-14.1H82.7c3.3,9,6.7,18.2,10.1,27.6H50.4
	c3.4-9.4,6.9-18.6,10.4-27.6c3.5-9,7.3-18.2,11.3-27.4c3.7,9.2,7.2,18.4,10.5,27.4H117c-3.8-9.9-7.7-19.8-11.5-29.9
	c-5.6-14.9-10.9-29-15.8-42.1c-1.5,0.3-3,0.6-4.4,0.8C84,1.7,82.5,1.9,81,1.9c-1.5,0-3-0.1-4.4-0.3c-1.4-0.2-2.9-0.5-4.4-0.8
	C68.8,9.5,65,19,61,29.1c-4.1,10.2-8.2,20.5-12.5,31C44.2,70.6,40,81,35.8,91.2c-4.2,10.3-8.2,19.8-11.9,28.8
	c-3.7,8.9-7.1,17-10.2,24c-3.1,7.1-5.5,12.6-7.4,16.6c2.2-0.3,4.2-0.5,6-0.5s3.7,0,5.5,0c1.8,0,3.7,0,5.4,0c1.8,0,3.6,0.2,5.4,0.5
	c2.2-7.5,4.5-15.3,7.2-23.1c2.6-7.9,5.5-15.7,8.6-23.6c4-0.2,8-0.3,12-0.3c4-0.1,8-0.1,12-0.1c4.9,0,9.9,0,14.8,0.1
	c4.9,0.1,9.9,0.2,14.8,0.3c2.9,7.9,5.7,15.7,8.3,23.6c2.6,7.9,5.2,15.6,7.6,23.1c3.2-0.3,6.5-0.5,9.8-0.5c3.3,0,6.6,0,9.8,0
	c3.2,0,6.5,0,9.8,0c3.3,0,6.8,0.2,10.5,0.5C149.6,151.8,144.6,140.8,139.2,127.9z"/>
</svg>
