<?xml version="1.0" encoding="utf-8"?>
<!-- Generator: Adobe Illustrator 22.1.0, SVG Export Plug-In . SVG Version: 6.00 Build 0)  -->
<svg version="1.1" id="レイヤー_1" xmlns="http://www.w3.org/2000/svg" xmlns:xlink="http://www.w3.org/1999/xlink" x="0px"
	 y="0px" viewBox="0 0 160 160" style="enable-background:new 0 0 160 160;" xml:space="preserve">
<path d="M99.1,160.6H60.5c-6.2,0-7-0.6-7-10.7V10.6c0-9.2,0.9-10,7.7-10h34.6c6.6,0,8.3,1.5,8.3,4.9c0,11.7-29.7,57.6-29.7,116.7
	c0,3.8,2.3,6.2,6.6,6.2c3,0,5.1-2.6,5.1-5.1c0-5.3-5.5-3-5.5-6.6c0-30.3,16.6-55.7,22.6-55.7c3.6,0,4.3,2.3,4.3,9.6v79.8
	C107.5,159.7,106.8,160.6,99.1,160.6z"/>
</svg>
