<?xml version="1.0" encoding="utf-8"?>
<!-- Generator: Adobe Illustrator 22.1.0, SVG Export Plug-In . SVG Version: 6.00 Build 0)  -->
<svg version="1.1" id="レイヤー_1" xmlns="http://www.w3.org/2000/svg" xmlns:xlink="http://www.w3.org/1999/xlink" x="0px"
	 y="0px" viewBox="0 0 160 160" style="enable-background:new 0 0 160 160;" xml:space="preserve">
<path d="M42.5,114.1c-0.2,0.2-0.4,0.5-0.6,0.8c-0.2,0.2-0.4,0.5-0.6,0.8s-0.4,0.5-0.5,0.8c-0.2,0.3-0.3,0.5-0.5,0.8
	c-0.1,0.2-0.3,0.5-0.5,0.8s-0.4,0.6-0.5,0.9c-0.1,0.3-0.3,0.6-0.4,0.8s-0.3,0.6-0.4,0.8c-0.2,0.3-0.3,0.6-0.4,0.9
	c-0.1,0.3-0.2,0.6-0.3,0.9s-0.2,0.6-0.3,0.9c-0.1,0.3-0.2,0.6-0.3,1c-0.1,0.3-0.2,0.6-0.2,1s-0.1,0.7-0.2,1c0,0.3-0.1,0.7-0.1,1
	c-0.1,0.3-0.1,0.7-0.2,1c0.4-0.5,0.8-0.9,1.3-1.3s0.9-0.8,1.3-1.2c0.5-0.4,0.9-0.8,1.3-1.1c0.5-0.4,0.9-0.7,1.4-1.1s0.9-0.7,1.4-1
	c0.5-0.3,1-0.6,1.5-0.9c0.5-0.3,1-0.6,1.5-0.8s1-0.5,1.5-0.7c0.5-0.2,1-0.4,1.5-0.6s1-0.4,1.5-0.6c0.5-0.2,1.1-0.3,1.6-0.4
	c0.6-0.1,1.1-0.3,1.7-0.4c0.5-0.1,1.1-0.2,1.7-0.3s1.1-0.2,1.7-0.2c0.6,0,1.2-0.1,1.8-0.1s1.2-0.1,1.8-0.1c0.5,0,1.1,0,1.7,0.1
	c0.5,0,1.1,0.1,1.7,0.1c0.6,0.1,1.1,0.1,1.7,0.2s1.1,0.2,1.7,0.3c0.5,0.1,1.1,0.2,1.7,0.4c0.6,0.2,1.1,0.3,1.7,0.5
	c0.6,0.2,1.1,0.4,1.7,0.6s1.2,0.4,1.8,0.7s1.2,0.5,1.8,0.8c0.6,0.3,1.2,0.5,1.8,0.8c0.6,0.3,1.2,0.6,1.8,1c0.6,0.3,1.2,0.7,1.8,1
	s1.2,0.7,1.8,1.1c0.6,0.4,1.2,0.8,1.8,1.3c0.6,0.5,1.2,0.9,1.8,1.3c0.6,0.4,1.2,0.9,1.8,1.4c0.7,0.6,1.4,1.1,2,1.6
	c0.6,0.5,1.3,1,1.9,1.4c0.7,0.4,1.3,0.9,1.9,1.3c0.6,0.4,1.2,0.9,1.8,1.3c0.6,0.4,1.2,0.8,1.8,1.1s1.2,0.7,1.7,1.1
	c0.6,0.3,1.1,0.7,1.6,1s1.1,0.6,1.6,0.8s1,0.5,1.5,0.7c0.5,0.2,1,0.5,1.5,0.7s1,0.4,1.4,0.5s0.9,0.3,1.4,0.5
	c0.4,0.1,0.9,0.3,1.3,0.4c0.4,0.1,0.8,0.2,1.2,0.2s0.8,0.1,1.2,0.1c0.4,0,0.8,0.1,1.1,0.1c0.2,0,0.5,0,0.8,0c0.2,0,0.5,0,0.8-0.1
	c0.2,0,0.5,0,0.8-0.1c0.2,0,0.5-0.1,0.8-0.1c0.2-0.1,0.5-0.1,0.7-0.2c0.2,0,0.5-0.1,0.7-0.1s0.5-0.1,0.7-0.2s0.4-0.2,0.6-0.3
	c0.2-0.1,0.4-0.2,0.6-0.3c0.2-0.1,0.4-0.2,0.6-0.3c0.2-0.1,0.4-0.2,0.6-0.4c0.2-0.1,0.4-0.2,0.6-0.3c0.2-0.1,0.4-0.2,0.5-0.4
	s0.4-0.3,0.6-0.4c0.2-0.2,0.4-0.3,0.5-0.5s0.3-0.3,0.5-0.5c0.2-0.2,0.3-0.3,0.4-0.5c0.2-0.2,0.3-0.4,0.5-0.6s0.3-0.4,0.4-0.6
	c0.1-0.2,0.3-0.4,0.4-0.6s0.2-0.4,0.3-0.6s0.2-0.4,0.3-0.6s0.2-0.4,0.3-0.7c0.1-0.2,0.2-0.4,0.3-0.6c0.1-0.2,0.2-0.4,0.2-0.7
	s0.1-0.5,0.2-0.7s0.1-0.5,0.2-0.7c0-0.2,0.1-0.5,0.2-0.7c0-0.2,0.1-0.5,0.1-0.8s0.1-0.5,0.1-0.8s0.1-0.5,0.1-0.8c0-0.3,0-0.6,0-0.8
	c0-0.1,0-0.2,0-0.3c0-0.1,0-0.2,0-0.3s0-0.2,0-0.3c0-0.1,0-0.2,0-0.3s0-0.2,0-0.3c0-0.1,0-0.2-0.1-0.3c0-0.1,0-0.2,0-0.3
	c0-0.1-0.1-0.2-0.1-0.3s0-0.2-0.1-0.3c0-0.1,0-0.2,0-0.3s0-0.2-0.1-0.3c0-0.1-0.1-0.2-0.1-0.3s-0.1-0.2-0.1-0.3
	c0-0.1-0.1-0.2-0.1-0.4c0-0.1-0.1-0.2-0.1-0.3s-0.1-0.2-0.1-0.3c-0.2,0.2-0.3,0.3-0.5,0.4c-0.1,0.1-0.3,0.3-0.4,0.4
	c-0.2,0.2-0.3,0.3-0.4,0.4c-0.2,0.1-0.3,0.2-0.5,0.3s-0.3,0.2-0.5,0.3c-0.2,0.1-0.3,0.2-0.5,0.3c-0.2,0.1-0.3,0.2-0.5,0.3
	s-0.3,0.2-0.5,0.2c-0.2,0.1-0.3,0.1-0.5,0.2c-0.2,0.1-0.3,0.2-0.5,0.2c-0.2,0.1-0.3,0.1-0.5,0.2c-0.2,0-0.4,0.1-0.6,0.2
	s-0.4,0.1-0.6,0.1c-0.2,0-0.3,0.1-0.5,0.1c-0.2,0-0.4,0-0.5,0.1c-0.2,0-0.4,0-0.6,0c-0.4,0-0.8,0-1.2,0c-0.4,0-0.8,0-1.1-0.1
	c-0.4,0-0.7-0.1-1-0.2c-0.3-0.1-0.7-0.1-1-0.2c-0.3-0.1-0.6-0.2-0.9-0.3c-0.3-0.1-0.6-0.2-0.8-0.4s-0.5-0.3-0.7-0.5
	c-0.2-0.2-0.5-0.3-0.7-0.5c-0.2-0.2-0.4-0.4-0.6-0.6s-0.4-0.4-0.5-0.7c-0.2-0.2-0.3-0.5-0.4-0.8c-0.1-0.3-0.3-0.5-0.4-0.8
	c-0.1-0.3-0.2-0.6-0.3-0.9c-0.1-0.3-0.2-0.6-0.2-1c-0.1-0.3-0.1-0.7-0.1-1.1c0-0.4-0.1-0.7-0.1-1.1c0-0.2,0-0.4,0-0.7
	c0-0.2,0-0.4,0.1-0.7c0-0.2,0-0.4,0.1-0.6c0-0.2,0.1-0.4,0.1-0.6s0.1-0.4,0.2-0.6c0-0.2,0.1-0.4,0.2-0.6s0.1-0.4,0.2-0.5
	s0.1-0.3,0.2-0.6c0.1-0.2,0.1-0.4,0.2-0.5s0.2-0.3,0.3-0.5s0.2-0.3,0.3-0.5c0.1-0.2,0.2-0.3,0.4-0.5c0.1-0.2,0.2-0.3,0.4-0.4
	c0.1-0.2,0.3-0.3,0.4-0.5s0.3-0.3,0.4-0.4c0.2-0.2,0.3-0.3,0.5-0.5s0.3-0.3,0.5-0.4s0.3-0.2,0.5-0.4s0.4-0.3,0.5-0.4
	c0.2-0.1,0.4-0.2,0.6-0.3s0.4-0.2,0.6-0.3c0.2-0.1,0.4-0.2,0.5-0.3s0.3-0.2,0.6-0.2c0.2-0.1,0.4-0.2,0.6-0.2c0.2,0,0.4-0.1,0.7-0.2
	c0.2-0.1,0.4-0.2,0.7-0.2c0.2,0,0.4-0.1,0.7-0.2c0.2,0,0.5-0.1,0.7-0.2c0.2,0,0.5-0.1,0.8-0.1s0.5,0,0.8-0.1c0.2,0,0.5,0,0.8,0
	c0.2,0,0.5-0.1,0.8-0.1c0.3,0,0.7,0,1,0c0.3,0,0.7,0,1,0.1c0.3,0.1,0.7,0.1,1,0.2c0.3,0,0.6,0.1,0.9,0.2s0.6,0.1,0.9,0.2
	c0.3,0.1,0.6,0.2,0.9,0.3s0.6,0.2,0.9,0.3c0.3,0.1,0.6,0.2,0.8,0.4c0.3,0.1,0.6,0.2,0.8,0.4c0.3,0.1,0.5,0.3,0.8,0.4
	s0.5,0.3,0.8,0.5c0.2,0.2,0.5,0.3,0.8,0.5c0.2,0.2,0.5,0.4,0.7,0.6c0.2,0.2,0.5,0.4,0.7,0.6c0.2,0.2,0.5,0.4,0.7,0.7
	c0.2,0.2,0.4,0.5,0.6,0.7s0.4,0.5,0.6,0.8c0.2,0.3,0.4,0.5,0.6,0.8c0.2,0.2,0.4,0.5,0.5,0.8c0.2,0.3,0.3,0.6,0.5,0.9
	c0.1,0.3,0.3,0.6,0.4,0.9c0.2,0.3,0.3,0.6,0.4,0.9s0.3,0.6,0.4,1c0.1,0.3,0.2,0.7,0.3,0.9c0.1,0.3,0.2,0.7,0.3,1
	c0.1,0.3,0.2,0.7,0.3,1c0.1,0.3,0.2,0.7,0.2,1.1s0.1,0.7,0.2,1.1c0.1,0.3,0.1,0.7,0.1,1.1c0,0.4,0.1,0.8,0.1,1.2s0,0.8,0.1,1.2
	c0,0.4,0.1,0.8,0.1,1.2c0,0.6,0,1.2,0,1.7c0,0.6,0,1.1-0.1,1.7s-0.1,1.1-0.2,1.6s-0.1,1.1-0.2,1.7s-0.2,1.1-0.3,1.6
	c-0.1,0.5-0.2,1.1-0.4,1.6c-0.2,0.5-0.3,1-0.5,1.5c-0.2,0.5-0.3,1-0.5,1.5c-0.2,0.5-0.4,1-0.6,1.5c-0.2,0.5-0.4,1-0.6,1.4
	c-0.2,0.5-0.5,1-0.8,1.4c-0.2,0.5-0.5,0.9-0.8,1.4c-0.2,0.4-0.5,0.9-0.8,1.3s-0.6,0.9-1,1.4c-0.3,0.4-0.6,0.9-1,1.3
	c-0.3,0.4-0.7,0.8-1.1,1.2c-0.3,0.4-0.7,0.8-1.1,1.2c-0.4,0.4-0.8,0.8-1.2,1.1c-0.4,0.3-0.8,0.7-1.2,1c-0.4,0.3-0.8,0.7-1.2,1
	s-0.8,0.6-1.2,0.9c-0.4,0.3-0.8,0.6-1.3,0.8s-0.9,0.5-1.3,0.7c-0.4,0.2-0.9,0.5-1.3,0.7s-0.9,0.4-1.3,0.6c-0.5,0.2-0.9,0.4-1.3,0.5
	c-0.4,0.1-0.9,0.3-1.4,0.4c-0.5,0.1-1,0.3-1.5,0.4c-0.5,0.1-1,0.2-1.5,0.3s-1,0.2-1.5,0.2s-1,0.1-1.5,0.1c-0.5,0-1,0.1-1.6,0.1
	c-0.5,0-1,0-1.5-0.1c-0.5,0-1-0.1-1.6-0.1c-0.5-0.1-1-0.1-1.6-0.2c-0.5-0.1-1.1-0.2-1.6-0.4c-0.5-0.2-1.1-0.3-1.7-0.5
	s-1.1-0.3-1.7-0.5c-0.6-0.2-1.1-0.4-1.7-0.7c-0.6-0.2-1.2-0.5-1.8-0.7s-1.2-0.5-1.8-0.8s-1.2-0.6-1.9-1c-0.6-0.4-1.2-0.7-1.9-1.1
	c-0.6-0.4-1.3-0.7-1.9-1.1c-0.7-0.4-1.3-0.8-2-1.3s-1.3-0.9-2-1.3c-0.7-0.4-1.3-0.9-2-1.4s-1.4-1-2.1-1.6s-1.4-1.1-2.1-1.6
	s-1.4-1-2-1.4c-0.7-0.4-1.4-0.9-2-1.3s-1.3-0.9-2-1.3c-0.7-0.4-1.3-0.8-1.9-1.1c-0.7-0.4-1.3-0.7-2-1.1c-0.7-0.4-1.3-0.7-1.9-1
	c-0.6-0.3-1.2-0.6-1.8-0.8s-1.2-0.5-1.8-0.7c-0.6-0.2-1.2-0.5-1.8-0.7s-1.2-0.4-1.8-0.5c-0.6-0.2-1.2-0.3-1.8-0.5
	c-0.6-0.2-1.2-0.3-1.7-0.4c-0.6-0.1-1.1-0.2-1.6-0.2c-0.5-0.1-1.1-0.1-1.6-0.1c-0.5,0-1.1-0.1-1.6-0.1s-1,0-1.5,0
	c-0.5,0-1,0-1.5,0.1s-0.9,0.1-1.4,0.2c-0.5,0.1-0.9,0.1-1.3,0.2c-0.5,0.1-0.9,0.2-1.3,0.3c-0.4,0.1-0.8,0.2-1.1,0.4
	c-0.4,0.1-0.8,0.3-1.1,0.5c-0.3,0.2-0.7,0.3-1,0.5s-0.6,0.4-0.9,0.6c-0.3,0.2-0.6,0.4-0.9,0.7c-0.3,0.2-0.6,0.5-0.8,0.8
	s-0.5,0.5-0.7,0.8c-0.2,0.3-0.5,0.6-0.7,0.9s-0.4,0.6-0.5,0.9c-0.2,0.3-0.4,0.7-0.5,1c-0.1,0.4-0.3,0.7-0.4,1.1c0.1,0,0.2,0,0.3,0
	c0.1,0,0.2,0,0.2,0s0.1,0,0.2,0c0.1,0,0.2,0,0.3,0s0.2,0,0.2,0s0.1,0,0.2,0s0.1,0,0.2,0s0.2,0,0.2,0s0.1,0,0.2,0s0.1,0,0.1,0
	s0.1,0,0.2,0c0,0,0.1,0,0.1,0s0.1,0,0.1,0c0,0,0,0,0.1,0c0,0,0.1,0,0.1,0s0,0,0,0c0.2,0,0.5,0,0.8,0c0.3,0,0.5,0,0.7,0.1
	c0.2,0.1,0.5,0.1,0.7,0.1s0.4,0.1,0.6,0.2s0.4,0.1,0.6,0.2c0.2,0.1,0.4,0.2,0.5,0.3c0.1,0.1,0.3,0.2,0.5,0.3
	c0.1,0.1,0.3,0.2,0.5,0.4c0.1,0.1,0.3,0.3,0.4,0.4c0.1,0.1,0.2,0.3,0.3,0.4s0.2,0.3,0.3,0.5c0.1,0.2,0.2,0.4,0.2,0.6
	c0,0.2,0.1,0.4,0.2,0.6c0,0.2,0.1,0.4,0.1,0.7s0.1,0.5,0.1,0.8c0,0.2,0,0.5,0,0.8c0,0.4,0,0.8-0.1,1.2c0,0.4-0.1,0.8-0.1,1.2
	c0,0.3-0.1,0.7-0.2,1c-0.1,0.4-0.2,0.7-0.3,1.1c-0.1,0.3-0.2,0.6-0.4,0.9c-0.2,0.3-0.3,0.6-0.5,0.8s-0.4,0.5-0.6,0.7
	c-0.2,0.2-0.4,0.5-0.6,0.7c-0.2,0.2-0.5,0.4-0.8,0.6c-0.3,0.2-0.5,0.4-0.8,0.5c-0.3,0.1-0.6,0.3-0.9,0.4c-0.3,0.1-0.6,0.3-1,0.4
	c-0.4,0.1-0.7,0.2-1.1,0.3c-0.4,0.1-0.8,0.2-1.2,0.2s-0.8,0.1-1.3,0.1c-0.4,0-0.9,0.1-1.3,0.1c-0.3,0-0.6,0-0.9,0
	c-0.3,0-0.6,0-0.9-0.1s-0.6-0.1-0.9-0.2c-0.3-0.1-0.6-0.1-0.8-0.1c-0.3-0.1-0.6-0.1-0.8-0.2c-0.3-0.1-0.5-0.2-0.8-0.3
	c-0.2-0.1-0.5-0.2-0.8-0.3s-0.5-0.2-0.8-0.4c-0.2-0.2-0.5-0.3-0.8-0.5c-0.2-0.1-0.5-0.3-0.8-0.4s-0.5-0.3-0.7-0.5
	c-0.2-0.2-0.5-0.4-0.7-0.6c-0.2-0.2-0.5-0.4-0.7-0.6c-0.2-0.2-0.4-0.4-0.6-0.7s-0.4-0.5-0.6-0.8c-0.2-0.2-0.4-0.5-0.6-0.8
	s-0.4-0.5-0.5-0.8c-0.2-0.3-0.4-0.6-0.6-0.9c-0.1-0.3-0.3-0.6-0.4-0.9c-0.2-0.3-0.3-0.6-0.5-0.9s-0.3-0.6-0.4-1s-0.3-0.6-0.4-0.9
	c-0.1-0.4-0.2-0.7-0.3-1.1c-0.1-0.4-0.2-0.7-0.3-1.1s-0.1-0.7-0.2-1.1s-0.2-0.8-0.2-1.1c-0.1-0.4-0.1-0.7-0.2-1.1
	c-0.1-0.4-0.2-0.8-0.2-1.3c0-0.4-0.1-0.8-0.1-1.2s-0.1-0.8-0.1-1.3s0-0.9,0-1.3c0-0.4-0.1-0.9-0.1-1.3c0-1.7,0.1-3.2,0.2-4.8
	c0.1-1.6,0.3-3.1,0.6-4.7c0.3-1.5,0.6-3,1.1-4.5s0.9-2.9,1.4-4.3s1.2-2.8,1.9-4.1s1.5-2.7,2.3-4c0.9-1.3,1.8-2.6,2.8-3.8
	c1-1.2,2-2.4,3.1-3.6c1.1-1.2,2.4-2.3,3.6-3.5c1.3-1.1,2.6-2.2,4-3.2c1.4-1,2.9-2.1,4.4-3.1c1.6-1,3.2-2,4.9-3
	c1.7-0.9,3.5-1.9,5.3-2.8c1.8-0.9,3.7-1.8,5.7-2.6c2-0.8,4-1.6,6.2-2.4c2.1-0.8,4.3-1.5,6.5-2.3l1-0.3l1-0.3l1-0.3l1-0.3l1-0.3
	l1-0.3l1-0.3l1-0.3l1-0.3l1-0.3l1-0.3l1-0.3l1-0.3l1-0.3l1-0.3l1-0.3c0.5-0.2,0.9-0.3,1.3-0.4c0.5-0.2,0.9-0.3,1.3-0.5
	c0.7-0.2,1.3-0.5,1.9-0.8c0.6-0.2,1.2-0.5,1.8-0.8c0.4-0.2,0.8-0.3,1.2-0.5c0.4-0.2,0.8-0.4,1.1-0.6c0.5-0.2,2.2-1.2,3.8-2.2
	c1.7-1,3.4-2.1,4.1-2.6c0.7-0.5,2.2-2,3.6-3.6s2.8-3.1,3.2-3.8s0.8-1.4,1.2-2.1c0.4-0.7,0.7-1.4,0.9-2.1c0.3-0.8,0.7-2.7,1.1-4.7
	c0.3-2,0.6-4,0.6-4.9c0-0.6,0-1.2-0.1-1.7s-0.1-1.1-0.1-1.7c0-0.5-0.1-1.1-0.2-1.6c-0.1-0.5-0.2-1.1-0.3-1.6s-0.2-1-0.4-1.5
	c-0.1-0.5-0.3-1-0.4-1.5c-0.2-0.5-0.3-1-0.5-1.4c-0.2-0.5-0.4-0.9-0.6-1.4s-0.4-0.9-0.7-1.3c-0.2-0.5-0.5-0.9-0.7-1.4
	c-0.2-0.4-0.5-0.9-0.8-1.3c-0.3-0.4-0.6-0.8-0.9-1.2s-0.6-0.8-1-1.2c-0.3-0.4-0.7-0.8-1-1.1s-0.7-0.7-1.1-1
	c-0.4-0.4-0.8-0.7-1.2-1.1s-0.8-0.7-1.3-1c-0.4-0.3-0.9-0.6-1.3-0.9c-0.4-0.3-0.9-0.6-1.4-0.8s-0.9-0.5-1.4-0.8s-1-0.5-1.5-0.7
	s-1-0.5-1.5-0.7c-0.5-0.2-1-0.4-1.6-0.6s-1.1-0.4-1.6-0.5c-0.6-0.1-1.1-0.3-1.7-0.4c-0.6-0.2-1.2-0.3-1.8-0.5s-1.2-0.3-1.8-0.4
	c-0.6-0.1-1.2-0.2-1.9-0.2c-0.7-0.1-1.3-0.2-1.9-0.2c-0.7-0.1-1.3-0.1-2-0.2c-0.7-0.1-1.3-0.1-2-0.1s-1.4,0-2.2,0
	c-0.7,0-1.3,0-1.9,0c-0.6,0-1.2,0-1.8,0.1s-1.2,0.1-1.8,0.1c-0.6,0.1-1.2,0.1-1.7,0.2s-1.1,0.1-1.7,0.2c-0.6,0.1-1.1,0.2-1.7,0.3
	c-0.6,0.1-1.1,0.2-1.6,0.3c-0.5,0.1-1.1,0.2-1.6,0.4c-0.5,0.2-1,0.3-1.5,0.4c-0.5,0.1-1,0.3-1.5,0.5c-0.5,0.1-1,0.3-1.5,0.5
	c-0.5,0.2-1,0.4-1.5,0.5c-0.5,0.2-0.9,0.4-1.3,0.6c-0.5,0.2-0.9,0.4-1.4,0.6c0.1,0,0,0.2-0.2,0.4S55.4,20.7,55,21s-0.8,0.5-1.2,0.8
	c-0.4,0.3-0.8,0.5-1.1,0.8c-0.4,0.3-0.7,0.6-1,0.9c-0.4,0.3-0.7,0.6-1,0.9c-0.4,0.3-0.7,0.6-1,0.9s-0.6,0.6-0.8,1
	c-0.2,0.4-0.5,0.7-0.8,1s-0.5,0.6-0.8,1s-0.5,0.7-0.7,1.1c-0.2,0.4-0.4,0.7-0.6,1.1c-0.2,0.4-0.4,0.7-0.6,1.1
	c-0.2,0.4-0.4,0.8-0.5,1.2c-0.1,0.4-0.3,0.8-0.4,1.2c-0.1,0.4-0.3,0.8-0.4,1.2s-0.2,0.8-0.3,1.3c-0.1,0.4-0.2,0.9-0.3,1.3
	c0.5,0,1,0.1,1.5,0.2c0.5,0.1,0.9,0.1,1.3,0.2c0.5,0.1,0.9,0.2,1.3,0.3c0.4,0.1,0.8,0.2,1.2,0.3c0.4,0.2,0.8,0.3,1.1,0.5
	c0.3,0.1,0.7,0.3,1,0.5s0.6,0.3,0.9,0.5c0.3,0.2,0.6,0.4,0.8,0.7s0.5,0.5,0.7,0.7s0.4,0.5,0.6,0.8s0.4,0.6,0.5,0.8
	c0.2,0.3,0.3,0.6,0.4,0.9c0.1,0.3,0.2,0.6,0.3,1c0.1,0.3,0.2,0.7,0.3,1c0,0.4,0.1,0.7,0.1,1.1c0,0.4,0.1,0.8,0.1,1.2
	c0,0.2,0,0.5,0,0.7c0,0.2,0,0.5-0.1,0.7s-0.1,0.4-0.1,0.7s-0.1,0.5-0.1,0.7s-0.1,0.5-0.1,0.7C55,52,55,52.2,54.9,52.4
	c0,0.2-0.1,0.4-0.2,0.7c-0.1,0.2-0.2,0.5-0.3,0.6c-0.1,0.2-0.2,0.4-0.3,0.6c-0.1,0.2-0.2,0.4-0.3,0.6s-0.2,0.4-0.3,0.6
	c-0.1,0.2-0.2,0.4-0.4,0.6c-0.1,0.2-0.3,0.4-0.5,0.6c-0.1,0.2-0.3,0.4-0.5,0.5c-0.1,0.2-0.3,0.4-0.5,0.6c-0.2,0.2-0.3,0.3-0.5,0.5
	c-0.2,0.2-0.4,0.3-0.5,0.5c-0.2,0.2-0.3,0.4-0.5,0.5c-0.2,0.2-0.4,0.3-0.6,0.4c-0.2,0.1-0.4,0.3-0.6,0.4c-0.2,0.2-0.4,0.3-0.6,0.4
	c-0.2,0.1-0.4,0.2-0.6,0.3c-0.2,0.1-0.4,0.2-0.6,0.3c-0.2,0.1-0.4,0.2-0.7,0.3s-0.5,0.2-0.7,0.2s-0.5,0.2-0.7,0.2
	c-0.2,0-0.5,0.1-0.7,0.2c-0.2,0-0.5,0.1-0.7,0.1s-0.5,0.1-0.8,0.1c-0.2,0-0.5,0.1-0.8,0.1s-0.5,0-0.8,0c-0.2,0-0.5,0-0.8,0
	c-0.3,0-0.6,0-1,0c-0.3,0-0.6,0-1-0.1s-0.6-0.1-0.9-0.1s-0.6,0-0.9-0.1c-0.3,0-0.6-0.1-0.8-0.2c-0.3-0.1-0.5-0.1-0.9-0.2
	c-0.2-0.1-0.5-0.2-0.8-0.3c-0.3-0.1-0.5-0.2-0.8-0.3s-0.5-0.2-0.8-0.3s-0.5-0.2-0.8-0.4c-0.2-0.1-0.5-0.3-0.7-0.4
	c-0.2-0.2-0.4-0.3-0.7-0.5c-0.2-0.1-0.4-0.3-0.6-0.5s-0.5-0.4-0.6-0.6s-0.4-0.4-0.6-0.6c-0.2-0.2-0.4-0.4-0.6-0.6
	c-0.2-0.2-0.4-0.4-0.6-0.7c-0.2-0.2-0.3-0.5-0.5-0.7s-0.4-0.5-0.5-0.8c-0.1-0.2-0.3-0.5-0.4-0.8s-0.3-0.5-0.4-0.8
	c-0.1-0.3-0.3-0.5-0.4-0.8c-0.1-0.2-0.2-0.5-0.3-0.8c-0.1-0.3-0.2-0.6-0.3-0.9c-0.1-0.3-0.2-0.6-0.3-0.9c-0.1-0.3-0.2-0.6-0.2-0.9
	s-0.1-0.6-0.2-0.9c-0.1-0.3-0.1-0.6-0.2-1c-0.1-0.3-0.1-0.7-0.1-1s-0.1-0.6-0.1-1c0-0.3,0-0.7-0.1-1c0-0.4,0-0.7,0-1
	c0-0.8,0-1.5,0.1-2.2c0-0.8,0.1-1.5,0.2-2.2c0.1-0.8,0.2-1.5,0.3-2.2s0.3-1.4,0.5-2.1c0.1-0.7,0.3-1.4,0.6-2.1
	c0.2-0.7,0.5-1.4,0.7-2c0.2-0.6,0.5-1.3,0.8-2c0.3-0.7,0.6-1.3,1-1.9c0.4-0.6,0.7-1.3,1.1-1.9c0.4-0.6,0.8-1.2,1.2-1.9
	c0.5-0.6,0.9-1.2,1.4-1.8s1-1.2,1.5-1.8c0.5-0.6,1-1.2,1.6-1.7s1.2-1.1,1.8-1.7s1.2-1.1,1.9-1.6c0.7-0.5,1.3-1.1,2-1.6
	s1.4-1,2.1-1.5c0.7-0.5,1.4-1,2.2-1.4c0.8-0.5,1.5-0.9,2.2-1.3c0.8-0.4,1.5-0.8,2.2-1.2s1.5-0.8,2.3-1.1s1.6-0.7,2.5-1
	c0.9-0.3,1.7-0.6,2.5-0.9s1.6-0.6,2.5-0.8s1.7-0.5,2.6-0.7c0.9-0.2,1.8-0.5,2.7-0.7s1.8-0.4,2.7-0.5s1.8-0.3,2.8-0.5
	s1.9-0.3,2.9-0.4s1.9-0.2,2.9-0.2s2-0.1,3-0.1s2-0.1,3-0.1s2,0,2.9,0.1s1.9,0.1,2.9,0.1s1.9,0.1,2.8,0.2C91,0.6,92,0.7,92.9,0.9
	c0.9,0.2,1.8,0.3,2.7,0.5s1.8,0.3,2.6,0.5c0.8,0.2,1.7,0.4,2.5,0.6c0.8,0.2,1.7,0.5,2.5,0.8s1.6,0.6,2.4,0.9s1.6,0.6,2.3,0.9
	s1.5,0.7,2.2,1c0.8,0.4,1.5,0.7,2.2,1.1s1.4,0.8,2.1,1.2c0.7,0.4,1.4,0.9,2.1,1.3c0.7,0.4,1.4,0.9,2,1.4s1.3,1,1.9,1.5
	c0.7,0.5,1.3,1,1.9,1.6s1.2,1.1,1.7,1.6c0.6,0.5,1.1,1.1,1.6,1.7c0.5,0.6,1,1.2,1.5,1.8c0.5,0.6,0.9,1.2,1.3,1.8
	c0.4,0.6,0.9,1.2,1.3,1.9c0.4,0.7,0.8,1.3,1.1,2c0.4,0.6,0.7,1.3,1,1.9s0.6,1.3,0.9,2c0.3,0.7,0.6,1.4,0.8,2.2
	c0.2,0.8,0.5,1.5,0.7,2.2c0.2,0.7,0.4,1.5,0.5,2.2s0.3,1.5,0.4,2.3s0.2,1.5,0.3,2.3s0.1,1.6,0.1,2.4c0,0.8,0.1,1.6,0.1,2.4
	c0,0.5,0,1.1,0,1.7c0,0.5,0,1.1-0.1,1.6s-0.1,1.1-0.2,1.6c0,0.5-0.1,1.1-0.1,1.6s-0.1,1-0.2,1.5c-0.1,0.5-0.2,1-0.4,1.5
	s-0.3,1-0.4,1.5s-0.2,1-0.4,1.5s-0.3,1-0.5,1.5c-0.2,0.5-0.3,1-0.5,1.4c-0.2,0.5-0.4,1-0.6,1.4c-0.2,0.5-0.4,0.9-0.7,1.4
	s-0.5,0.9-0.8,1.3c-0.2,0.5-0.5,0.9-0.8,1.3s-0.5,0.9-0.8,1.3s-0.6,0.9-0.9,1.3c-0.3,0.5-0.6,0.9-0.9,1.3s-0.6,0.8-1,1.2
	s-0.7,0.8-1,1.2c-0.4,0.4-0.7,0.8-1.1,1.1c-0.3,0.4-0.7,0.8-1.1,1.1c-0.4,0.4-0.8,0.7-1.2,1.1s-0.8,0.7-1.2,1s-0.8,0.7-1.3,1
	c-0.4,0.3-0.9,0.6-1.3,1c-0.4,0.3-0.8,0.7-1.3,0.9c-0.5,0.3-0.9,0.6-1.4,0.9s-0.9,0.6-1.4,0.8s-1,0.5-1.5,0.8
	c-0.5,0.3-1,0.5-1.5,0.7c-0.5,0.2-1,0.5-1.6,0.7c-0.5,0.2-1.1,0.4-1.6,0.7c-0.2,0.1-0.3,0.1-0.6,0.2c-0.2,0.1-0.5,0.2-0.7,0.3
	s-0.5,0.2-0.9,0.3c-0.3,0.1-0.7,0.2-1,0.4c-0.3,0.2-0.8,0.3-1.2,0.5c-0.4,0.1-0.9,0.3-1.3,0.4s-0.9,0.3-1.5,0.5
	c-0.5,0.2-1.1,0.4-1.6,0.6c-0.5,0.2-1.1,0.4-1.7,0.6c-0.6,0.2-1.3,0.4-2,0.7c-0.7,0.2-1.3,0.5-2,0.8c-0.7,0.2-1.5,0.5-2.3,0.8
	c-0.8,0.2-1.5,0.5-2.3,0.8s-1.7,0.6-2.6,0.9c-0.8,0.3-1.7,0.6-2.6,0.9s-1.8,0.6-2.8,1c-0.7,0.2-1.4,0.5-2,0.7
	c-0.7,0.2-1.3,0.4-2,0.7s-1.3,0.5-1.9,0.7c-0.6,0.2-1.3,0.4-1.9,0.7s-1.2,0.5-1.8,0.7c-0.6,0.2-1.2,0.4-1.8,0.7s-1.2,0.5-1.7,0.7
	c-0.6,0.2-1.1,0.4-1.7,0.7s-1.1,0.5-1.6,0.7c-0.5,0.2-1.1,0.4-1.6,0.6c-0.5,0.2-1,0.4-1.5,0.7s-1,0.5-1.5,0.7
	c-0.5,0.2-1,0.4-1.4,0.7c-0.5,0.2-0.9,0.5-1.4,0.7c-0.5,0.2-0.9,0.4-1.3,0.7s-0.9,0.5-1.3,0.7c-0.3,0.2-0.6,0.3-0.9,0.5
	c-0.3,0.2-0.6,0.3-0.9,0.5c-0.3,0.2-0.6,0.3-0.8,0.5c-0.3,0.2-0.5,0.4-0.9,0.6c-0.3,0.2-0.6,0.4-0.8,0.6c-0.3,0.2-0.5,0.3-0.8,0.5
	c-0.2,0.2-0.5,0.4-0.8,0.6c-0.3,0.2-0.5,0.4-0.8,0.6c-0.2,0.2-0.5,0.4-0.8,0.6c-0.2,0.2-0.5,0.4-0.8,0.6c-0.2,0.2-0.5,0.4-0.7,0.7
	s-0.5,0.5-0.7,0.7c-0.2,0.2-0.5,0.4-0.7,0.7c-0.2,0.2-0.5,0.5-0.7,0.7c-0.1,0.2-0.2,0.5-0.4,0.7S42.7,113.8,42.5,114.1z"/>
</svg>
