<?xml version="1.0" encoding="utf-8"?>
<!-- Generator: Adobe Illustrator 22.1.0, SVG Export Plug-In . SVG Version: 6.00 Build 0)  -->
<svg version="1.1" id="レイヤー_1" xmlns="http://www.w3.org/2000/svg" xmlns:xlink="http://www.w3.org/1999/xlink" x="0px"
	 y="0px" viewBox="0 0 160 160" style="enable-background:new 0 0 160 160;" xml:space="preserve">
<path d="M159.8,14.4h-14.9h-14.9h-14.9h-14.9l7.3,14l7.3,14l7.3,14l7.3,14l7.6-14l7.6-14l7.6-14L159.8,14.4z"/>
<path d="M-0.2,146.8H14h14.2h14.2h14.2l-6.9-13.3l-6.9-13.3L35.8,107l-6.9-13.3L21.6,107l-7.3,13.3l-7.3,13.3L-0.2,146.8z"/>
<path d="M0.3,14.4v0.4v0.4v0.4v0.4l17.3,32.7l17.3,32.7l17.2,32.7l17.2,32.7h22.1h22.2h22.2h22.1l-17.6-33.1l-17.7-33.1l-17.7-33.1
	L87.3,14.4H65.6H43.8H22.1H0.3z"/>
</svg>
