<?xml version="1.0" encoding="utf-8"?>
<!-- Generator: Adobe Illustrator 22.1.0, SVG Export Plug-In . SVG Version: 6.00 Build 0)  -->
<svg version="1.1" id="レイヤー_1" xmlns="http://www.w3.org/2000/svg" xmlns:xlink="http://www.w3.org/1999/xlink" x="0px"
	 y="0px" viewBox="0 0 160 160" style="enable-background:new 0 0 160 160;" xml:space="preserve">
<path d="M135.3,49.1C135.3,49.1,135.3,49.1,135.3,49.1C135.3,49.1,135.3,49.1,135.3,49.1C135.3,49.1,135.3,49,135.3,49.1
	c0-0.1,0-0.1,0-0.1h-6.9h-6.9h-6.9h-6.9c0,0,0,0,0,0c0,0,0,0,0,0s0,0,0,0c0,0,0,0,0,0c0,3.7-0.7,7-2,10c-1.3,3-3.2,5.6-5.6,7.7
	s-5.3,3.8-8.7,4.9c-3.4,1.1-7.2,1.7-11.3,1.7h-7.3h-7.3h-7.3h-7.3v-49h7.3h7.3h7.3h7.3c4.2,0,8,0.6,11.3,1.7
	c3.4,1.1,6.3,2.8,8.7,4.9s4.3,4.7,5.6,7.7c1.3,3,2,6.4,2,10.1h6.9h6.9h6.9h6.9c0-6.8-1.2-13.2-3.5-19c-2.3-5.8-5.7-11-10-15.4
	S112.2,6.8,106,4.4S92.9,0.6,85.2,0.6H69.8H54.5H39.2H23.8v160h27.3V97.4H71l33.6,63.2h30.7L99.2,94.7c5.6-1.4,10.6-3.5,15.1-6.2
	c4.4-2.7,8.2-6.1,11.4-10.1s5.5-8.4,7.2-13.3S135.3,54.8,135.3,49.1z"/>
</svg>
