<?xml version="1.0" encoding="utf-8"?>
<!-- Generator: Adobe Illustrator 22.1.0, SVG Export Plug-In . SVG Version: 6.00 Build 0)  -->
<svg version="1.1" id="レイヤー_1" xmlns="http://www.w3.org/2000/svg" xmlns:xlink="http://www.w3.org/1999/xlink" x="0px"
	 y="0px" viewBox="0 0 160 160" style="enable-background:new 0 0 160 160;" xml:space="preserve">
<path d="M94.6,151.9c-0.9-4.1-2.7-13.8-2.7-40.3V50.7c0-7.7-0.2-21-0.4-42.5h-0.4C88,29.7,88,43,88,50.7V105
	c0,21.1,2.8,36.6,6.2,47.1L94.6,151.9z"/>
<path d="M153.6,0.2l-4.2,4.2l1.1,25.8c-6.8-10.5-15.4-20.4-26.1-25.8h25L153.6,0.2V0H80v4.4h18.1v122.3c0,9.5,1.1,21.9,5.7,29H56.4
	c4.4-7.6,5.5-16.6,5.5-28.9V4.4H80V0H6.4l4.2,4.4h25.2C25,9.9,16.8,19.1,9.5,30.2l1.1-25.8L6.4,0L4.5,45.8l1.1,0.5
	C17.5,22.4,33,4.4,53.8,4.4h3.8v122.3c0,19.5-4.2,30-11.2,32.2v1.1H114v-1.1c-7.4-2.2-11.6-12.7-11.6-32.2V4.4h3.8
	c20.8,0,36.4,17.9,48.2,41.8l1.1-0.5L153.6,0.2z"/>
<path d="M72.4,105V50.7c0-7.7,0-21-3.1-42.5h-0.4c-0.2,21.5-0.4,34.8-0.4,42.5v61c0,26.5-1.8,36.1-2.7,40.4l0.4,0.2
	C69.6,141.6,72.4,126.1,72.4,105z"/>
<path d="M81.4,151.4c0.8-10.8,1.1-19.5,1.2-26.4c0.1-7,0.1-12.2,0-16.1l-0.3-29.2L82,50.6c0-3.8-0.2-9.2-0.5-16.2
	c-0.4-7-1-15.8-1.9-26.3l-0.2,0l-0.2,0c-0.5,10.5-0.8,19.2-1,26.3c-0.1,7-0.2,12.4-0.1,16.2l0.3,29.1l0.3,29.2
	c0,3.8,0.1,9.1,0.4,16.1c0.3,7,0.9,15.7,1.8,26.4l0.2,0L81.4,151.4z"/>
</svg>
