<?xml version="1.0" encoding="utf-8"?>
<!-- Generator: Adobe Illustrator 22.1.0, SVG Export Plug-In . SVG Version: 6.00 Build 0)  -->
<svg version="1.1" id="レイヤー_1" xmlns="http://www.w3.org/2000/svg" xmlns:xlink="http://www.w3.org/1999/xlink" x="0px"
	 y="0px" viewBox="0 0 160 160" style="enable-background:new 0 0 160 160;" xml:space="preserve">
<path d="M124.8,115.7c0.1,3.4-0.2,6.7-0.8,9.8c-0.6,3.1-1.5,6-2.8,8.8s-2.7,5.3-4.5,7.7c-1.8,2.4-3.8,4.6-6,6.5
	c-2.2,2-4.7,3.7-7.3,5.3s-5.5,2.8-8.4,3.9c-3,1.1-6.1,1.9-9.3,2.4c-3.2,0.5-6.5,0.8-9.9,0.8c-2.8,0-5.6-0.2-8.2-0.4
	s-5.2-0.7-7.7-1.3s-4.8-1.2-7-2s-4.2-1.7-6.1-2.7s-3.6-2.1-5-3.2s-2.8-2.4-3.8-3.7c-1-1.3-1.9-2.6-2.4-4c-0.6-1.4-0.8-2.8-0.8-4.3
	c0-1,0.1-2,0.2-3c0.2-0.9,0.4-1.8,0.7-2.6s0.7-1.6,1.2-2.3s1-1.4,1.6-2s1.3-1.1,2-1.6c0.7-0.5,1.6-0.8,2.4-1.2
	c0.9-0.3,1.8-0.6,2.8-0.7c1-0.2,2.1-0.2,3.2-0.2c1.3,0,2.5,0.1,3.5,0.3c1.1,0.2,2.1,0.5,3,0.9c0.9,0.4,1.8,0.8,2.7,1.2
	c0.9,0.4,1.8,0.9,2.6,1.4s1.8,0.9,2.8,1.4c1,0.4,2,0.9,3.2,1.2c1.2,0.4,2.4,0.7,3.8,0.9c1.4,0.2,2.9,0.3,4.7,0.3
	c1.5,0,3-0.1,4.4-0.4c1.4-0.2,2.8-0.6,4-1.1c1.3-0.5,2.4-1.1,3.5-1.8c1.1-0.7,2.1-1.5,3-2.4c0.9-0.9,1.7-1.9,2.4-3.1
	s1.3-2.3,1.8-3.7c0.5-1.3,0.9-2.7,1.1-4.2s0.4-3.1,0.4-4.7v-11.9V88.2V76.3V64.3V52.4V40.5V28.5V16.6c0-1.1,0.1-2.2,0.2-3.2
	s0.4-2,0.7-2.9c0.3-0.9,0.7-1.8,1.1-2.7s1-1.6,1.6-2.3c0.6-0.7,1.3-1.3,2-1.9c0.8-0.6,1.6-1,2.5-1.4s1.9-0.7,3-0.9s2.2-0.3,3.5-0.3
	s2.4,0.1,3.5,0.3s2.1,0.5,3,0.9c0.9,0.4,1.7,0.9,2.5,1.4c0.8,0.6,1.4,1.2,2,1.9c0.6,0.7,1.1,1.5,1.6,2.3s0.8,1.7,1.1,2.7
	c0.3,0.9,0.5,1.9,0.7,2.9s0.2,2.1,0.2,3.2V29v12.4v12.4v12.4v12.4V91v12.4V115.7z"/>
</svg>
