<?xml version="1.0" encoding="utf-8"?>
<!-- Generator: Adobe Illustrator 22.1.0, SVG Export Plug-In . SVG Version: 6.00 Build 0)  -->
<svg version="1.1" id="レイヤー_1" xmlns="http://www.w3.org/2000/svg" xmlns:xlink="http://www.w3.org/1999/xlink" x="0px"
	 y="0px" viewBox="0 0 160 160" style="enable-background:new 0 0 160 160;" xml:space="preserve">
<path d="M159,111.1l-3.6-1.1c-3.2,4.1-8.2,9.8-11.6,13.4c-13.4,14.3-50.7,34.1-73,34.1c-2.4,0-4.6-0.2-6.5-0.5
	c-2-0.3-3.7-0.8-5.3-1.6c-1.3-0.6-2.5-1.4-3.6-2.3c-1.1-1-2.1-2.3-2.9-3.7c-1.1-1.9-1.8-4.3-2.3-7c-0.4-2.3-0.6-4.9-0.6-7.9V80H38.7
	v57c0,8.9,0.7,13.2,12.7,20v0.5h-37V157c6.6-3,10.5-8.6,10.5-15.9V23.6c0-3,0.9-5.7,4.8-6.6v-3l-13-9.8V3.8h33.4v0.5l-11.4,8.9V80
	h10.9V22c0-14.1,8.6-18.2,24.8-18.2V0.7H2.8v3.2l7.3,1.8c0.8,0.2,8.7,5.8,9.2,6.6c0.8,1.3,1.4,2.7,1.8,4.2c0.4,1.5,0.6,9.7,0.6,9.7
	v110c0,0-0.4,7.5-1,9.1c-0.7,1.5-1.6,2.9-2.8,4.2c-0.8,0.9-5.3,4.4-6.8,5.1c-1.4,0.7-3,1.4-4.5,1.8c-1.8,0.5-3.6,0.9-5.4,1.1v3.2
	h116.3v-3.2H91.9V157c18.9-6.4,36.4-15,50.7-27.5l0.5,0.5c-5.2,8.4-9.1,20-11.4,27.5h-14.2v3.2h27.4
	C147.6,143.6,152.6,127.3,159,111.1z"/>
</svg>
