<?xml version="1.0" encoding="utf-8"?>
<!-- Generator: Adobe Illustrator 22.1.0, SVG Export Plug-In . SVG Version: 6.00 Build 0)  -->
<svg version="1.1" id="レイヤー_1" xmlns="http://www.w3.org/2000/svg" xmlns:xlink="http://www.w3.org/1999/xlink" x="0px"
	 y="0px" viewBox="0 0 160 160" style="enable-background:new 0 0 160 160;" xml:space="preserve">
<path d="M90.2,44c0.7,0,1.3,0,2,0.1c0.6,0.1,1.3,0.2,1.9,0.3s1.2,0.3,1.8,0.5c0.6,0.2,1.2,0.4,1.8,0.7c0.5,0.3,1,0.6,1.5,0.9
	c0.4,0.3,0.8,0.6,1.2,1s0.7,0.7,0.9,1.1s0.5,0.7,0.7,1.1l0.1-0.1l0.1-0.1l0.1-0.1l0.1-0.1c-0.2-0.5-0.4-1.1-0.7-1.5
	c-0.3-0.5-0.6-0.9-0.9-1.3s-0.8-0.8-1.2-1.1c-0.5-0.3-0.9-0.7-1.5-0.9c-0.6-0.3-1.2-0.5-1.8-0.8c-0.6-0.2-1.3-0.4-1.9-0.5
	s-1.3-0.3-2.1-0.3c-0.7-0.1-1.4-0.1-2.2-0.1c-1.3,0-2.6,0.1-3.7,0.4s-2.2,0.7-3.2,1.2s-1.9,1.2-2.7,1.9s-1.6,1.7-2.2,2.7l0.2,0.2
	l0.2,0.2l0.2,0.2l0.2,0.2c0.7-0.9,1.5-1.8,2.3-2.5s1.7-1.3,2.6-1.8s1.9-0.8,2.9-1.1S89.1,44,90.2,44z"/>
<path d="M117.9,92.8h-0.2h-0.2h-0.2h-0.2h-0.2h-0.2h-0.2h-0.2c2.1,1.8,3.8,3.7,5.4,5.7c1.5,2,2.8,4.1,3.8,6.3s1.8,4.4,2.3,6.8
	c0.5,2.3,0.8,4.8,0.8,7.3c0,1.6-0.1,3.3-0.3,4.9c-0.2,1.6-0.5,3.2-0.9,4.8s-0.9,3.1-1.5,4.7s-1.3,3.1-2.1,4.6
	c-0.9,1.7-1.9,3.3-3,4.7c-1.2,1.5-2.5,2.8-3.9,4.1s-3,2.4-4.8,3.4s-3.6,2-5.7,2.8c-2,0.9-4.1,1.6-6.3,2.3c-2.1,0.6-4.3,1.2-6.5,1.6
	c-2.2,0.4-4.5,0.8-6.8,1c-2.3,0.2-4.7,0.3-7.1,0.3c-1.6,0-3.2,0-4.8-0.1c-1.6-0.1-3.2-0.2-4.8-0.4c-1.6-0.2-3.1-0.4-4.7-0.7
	c-1.6-0.3-3.1-0.6-4.7-1c-1.6-0.4-3.1-0.8-4.5-1.3c-1.4-0.5-2.7-1-4-1.5s-2.4-1.1-3.5-1.7c-1.1-0.6-2.1-1.3-3-1.9l0.1,0.3l0.1,0.3
	l0.1,0.3l0.1,0.3c1.4,1.7,3.2,3.1,5.4,4.3c2.1,1.2,4.6,2.3,7.4,3.1c2.8,0.8,6,1.4,9.5,1.9s7.4,0.6,11.6,0.6c5.7,0,10.8-0.4,15.5-1.2
	c4.7-0.8,8.9-2,12.7-3.7c3.7-1.6,7-3.7,9.8-6.1c2.8-2.4,5.1-5.3,6.9-8.5c1-1.8,1.8-3.6,2.6-5.5s1.3-3.6,1.8-5.4
	c0.5-1.8,0.9-3.6,1.1-5.4s0.4-3.5,0.4-5.3c0-2.9-0.3-5.6-0.8-8.2c-0.5-2.6-1.3-4.9-2.4-7.1c-1.1-2.2-2.4-4.2-4-6.1
	C121.9,96,120.1,94.3,117.9,92.8z"/>
<path d="M82.6,29.3l0.8,0.1l0.8,0.1l0.8,0.1l0.8,0.1c2.4-1.3,4.5-2.7,6.3-4.1c1.8-1.4,3.3-2.9,4.5-4.4s2.1-3.1,2.7-4.7
	c0.6-1.6,0.9-3.2,0.9-4.9c0-1-0.1-2-0.3-3c-0.2-0.9-0.5-1.8-0.9-2.7s-0.9-1.6-1.5-2.4c-0.6-0.7-1.3-1.4-2.1-2.1l-0.2,0.1l-0.2,0.1
	l-0.2,0.1L94.7,2c0.5,0.8,0.9,1.5,1.3,2.3c0.4,0.8,0.7,1.5,0.9,2.3s0.4,1.5,0.6,2.3s0.2,1.6,0.2,2.3c0,1.6-0.3,3.3-0.9,4.8
	c-0.6,1.6-1.6,3.1-2.8,4.6s-2.8,3-4.7,4.4S85.1,28,82.6,29.3z"/>
<path d="M78.7,153.6c0.3,0,0.5,0,0.8,0s0.5,0,0.8,0s0.5,0,0.8,0s0.5,0,0.8,0c1.7-0.1,3.4-0.2,5.1-0.5c1.7-0.2,3.4-0.5,5.1-0.9
	s3.4-0.9,5-1.4c1.7-0.6,3.3-1.2,5-1.9c1.6-0.7,3.1-1.4,4.6-2.3s2.8-1.8,4.2-2.8s2.5-2.1,3.7-3.3c1.2-1.2,2.2-2.5,3.2-3.8
	c1-1.3,1.9-2.7,2.6-4.2c0.7-1.4,1.4-2.9,1.9-4.5s0.9-3.2,1.1-4.9s0.4-3.4,0.4-5.2c0-1.8-0.1-3.6-0.4-5.3s-0.6-3.4-1.2-5.1
	s-1.2-3.3-1.9-4.9s-1.7-3.1-2.7-4.6c-1-1.5-2.1-2.9-3.3-4.3s-2.4-2.6-3.8-3.8s-2.7-2.3-4.2-3.4s-3-2-4.6-2.9c3-1.7,5.6-3.5,7.9-5.4
	s4.2-3.9,5.8-6s2.8-4.3,3.7-6.6c0.9-2.3,1.5-4.7,1.7-7.1c0-0.1,0-0.3,0-0.4c0-0.1,0-0.3,0-0.4s0-0.3,0-0.4s0-0.3,0-0.4
	c0-1-0.1-2-0.2-3c-0.1-1-0.3-1.9-0.6-2.9s-0.6-1.9-0.9-2.8s-0.8-1.8-1.3-2.7c-0.6-1-1.2-1.9-1.8-2.7c-0.6-0.8-1.1-1.5-1.7-2.1
	s-1.1-1.2-1.6-1.6c-0.5-0.5-1-0.8-1.5-1.1l-0.1,0.1L111,38l-0.1,0.1l-0.1,0.1c1.3,1.1,2.5,2.4,3.5,3.7c1,1.3,1.8,2.7,2.5,4.2
	s1.2,3,1.5,4.6c0.3,1.6,0.5,3.3,0.5,5.1c0,1.3-0.1,2.6-0.3,3.9c-0.2,1.3-0.6,2.6-1,3.8s-1,2.5-1.7,3.7s-1.5,2.4-2.4,3.6
	c-1,1.2-2,2.3-3.1,3.4c-1.1,1.1-2.2,2.1-3.4,3s-2.4,1.8-3.7,2.7c-1.3,0.8-2.6,1.6-4,2.3c-0.2-0.1-0.4-0.2-0.5-0.3
	c-0.2-0.1-0.4-0.2-0.5-0.3s-0.4-0.2-0.5-0.3c-0.2-0.1-0.4-0.2-0.5-0.3c-0.2-0.1-0.4-0.2-0.6-0.3c-0.2-0.1-0.5-0.2-0.7-0.4
	s-0.6-0.3-0.9-0.5c-0.3-0.2-0.6-0.4-1-0.6c3.3-1.8,6.1-3.7,8.6-5.7c2.4-1.9,4.5-3.9,6.1-6s2.9-4.2,3.7-6.4c0.8-2.2,1.2-4.4,1.2-6.7
	c0-1.8-0.2-3.4-0.5-5c-0.3-1.6-0.8-3.1-1.4-4.5s-1.4-2.8-2.3-4.1c-0.9-1.3-2-2.5-3.2-3.6c-1.2-1.1-2.5-2.1-3.9-2.9
	c-1.4-0.8-2.8-1.5-4.3-2.1s-3.1-1-4.8-1.2c-1.7-0.3-3.4-0.4-5.3-0.4c-1.3,0-2.4,0.1-3.6,0.2c-1.1,0.2-2.2,0.4-3.3,0.7
	s-2,0.7-2.9,1.1c-0.9,0.5-1.8,1-2.6,1.6c-0.8,0.6-1.5,1.4-2.2,2.2s-1.2,1.7-1.6,2.6s-0.8,2-1,3.1s-0.4,2.3-0.4,3.5
	c0,0.4,0.1,0.7,0.2,1c0.1,0.3,0.3,0.6,0.6,0.8s0.6,0.5,1,0.7c0.4,0.2,0.8,0.4,1.3,0.5c0.4-0.1,0.7-0.2,0.9-0.4s0.5-0.3,0.7-0.4
	s0.3-0.3,0.4-0.5c0.1-0.2,0.1-0.3,0.1-0.5c0.6-1.6,1.4-3,2.3-4.3c0.9-1.2,1.9-2.2,3-3s2.3-1.4,3.7-1.8s2.8-0.6,4.4-0.6
	c1.1,0,2.3,0.1,3.3,0.3c1.1,0.2,2.1,0.5,3.1,0.9s1.9,0.9,2.8,1.4c0.9,0.6,1.8,1.2,2.6,2c0.8,0.8,1.5,1.6,2.1,2.5
	c0.6,0.9,1.1,1.8,1.5,2.7s0.7,1.9,0.9,3c0.2,1,0.3,2.1,0.3,3.2c0,1.6-0.2,3.1-0.6,4.6c-0.4,1.5-1,2.9-1.8,4.2s-1.8,2.7-2.9,3.9
	c-1.2,1.3-2.6,2.5-4.1,3.6c-1.3,0.9-2.5,1.7-3.6,2.4s-2.2,1.3-3.2,1.7s-1.9,0.8-2.8,1c-0.9,0.2-1.6,0.3-2.4,0.3c-0.2,0-0.4,0-0.5,0
	c-0.2,0-0.3,0-0.5-0.1s-0.3-0.1-0.5-0.1c-0.2-0.1-0.3-0.1-0.4-0.2c-0.6-0.2-1.4-0.5-2.2-0.8c-0.8-0.3-1.7-0.7-2.6-1.1
	s-1.9-0.8-3-1.3c-1.1-0.5-2.2-1-3.4-1.5c-1.3-0.5-2.5-1.1-3.7-1.7s-2.3-1.3-3.4-2c-1.1-0.7-2.1-1.5-3.2-2.3c-1-0.8-2-1.7-2.9-2.6
	c-0.8-0.7-1.4-1.4-2-2.1s-1-1.5-1.4-2.3s-0.7-1.6-0.8-2.4S53,52.8,53,51.9c0-0.2,0-0.4,0-0.7s0-0.5,0-0.7s0-0.5,0.1-0.7
	s0.1-0.5,0.1-0.7c0.3-1.1,0.6-2.2,1-3.3c0.4-1,0.9-2,1.4-2.9s1.2-1.7,1.9-2.5c0.7-0.8,1.5-1.5,2.3-2.1c0.8-0.6,1.8-1.4,2.9-2.1
	c1.1-0.8,2.3-1.6,3.7-2.5s2.9-1.9,4.5-2.9c1.6-1,3.4-2.2,5.3-3.3c1.9-1.1,3.6-2.3,5.2-3.3s3-2.1,4.3-3.1s2.5-1.9,3.5-2.8
	s1.9-1.8,2.7-2.6c0.5-0.6,1-1.2,1.4-1.8s0.7-1.3,1-2s0.5-1.4,0.6-2.1s0.2-1.5,0.2-2.3c0-0.8-0.1-1.5-0.3-2.2s-0.4-1.3-0.8-1.8
	s-0.8-1.1-1.3-1.5S91.7,1,91,0.7c-0.1,0-0.1-0.1-0.2-0.1s-0.1-0.1-0.2-0.1s-0.1-0.1-0.2-0.1s-0.1-0.1-0.2-0.1c-0.1,0-0.2,0-0.3,0
	c-0.1,0-0.2,0-0.4,0s-0.3,0-0.5,0c-0.2,0-0.4,0-0.6,0c-0.4,0-0.7,0-1.1,0.1c-0.3,0.1-0.7,0.2-1,0.3S85.8,1,85.5,1.2
	c-0.3,0.2-0.6,0.4-0.9,0.7c-0.3,0.3-0.6,0.6-0.8,0.9s-0.4,0.6-0.6,0.9s-0.3,0.6-0.4,0.9c-0.1,0.3-0.1,0.6-0.1,1c0,0.4,0,0.7,0.1,1
	c0.1,0.3,0.2,0.6,0.4,0.9S83.7,8,84,8.2c0.3,0.3,0.6,0.5,1,0.7c0.4,0.2,0.7,0.5,0.9,0.7s0.5,0.5,0.7,0.7s0.3,0.5,0.4,0.7
	s0.1,0.4,0.1,0.7v0.1v0.1V12v0.1c-0.9,0.8-2,1.7-3.2,2.7s-2.7,2-4.4,3S76,20,74,21.2c-2,1.2-4.2,2.5-6.7,3.8
	c-2.4,1.3-4.6,2.6-6.7,3.9s-4,2.5-5.8,3.7s-3.4,2.4-4.9,3.6s-2.8,2.3-4,3.4c-1.2,1.1-2.2,2.4-3.2,3.7c-0.9,1.3-1.7,2.8-2.4,4.3
	s-1.2,3.1-1.7,4.9c-0.4,1.7-0.7,3.5-0.9,5.4c0.1,2.6,0.7,5,1.7,7.4c1,2.4,2.4,4.6,4.2,6.7s4,4.1,6.7,6s5.7,3.7,9.2,5.4
	c-4.8,2-9.1,4.1-12.8,6.5c-3.7,2.4-6.7,5-9.2,7.8s-4.4,5.9-5.7,9.1c-1.3,3.3-2,6.7-2.1,10.4c0.1,0.5,0.1,0.9,0.2,1.4
	c0.1,0.5,0.1,0.9,0.2,1.3s0.1,0.9,0.2,1.3s0.1,0.8,0.2,1.2h3.7h3.7h3.7h3.7c-0.1-0.4-0.1-0.8-0.2-1.2c-0.1-0.4-0.1-0.8-0.1-1.2
	s-0.1-0.8-0.1-1.2s0-0.8,0-1.2c0-3.1,0.5-6,1.4-8.8c1-2.8,2.4-5.4,4.3-7.9s4.3-4.8,7.2-7C60.6,92,64,89.9,67.8,88l1.9,0.7l1.9,0.7
	l1.9,0.7l1.9,0.7c-1.8,0.6-3.5,1.3-5.1,2.1c-1.6,0.8-3.2,1.7-4.6,2.6s-2.8,2-4.1,3.1c-1.3,1.1-2.5,2.3-3.6,3.6
	c-1.1,1.3-2.2,2.7-3,4.1c-0.9,1.4-1.6,2.8-2.2,4.3s-1,3-1.4,4.5c-0.3,1.5-0.5,3.1-0.5,4.7c0.1,2.3,0.5,4.5,1.1,6.6
	c0.7,2.1,1.6,4.1,2.8,6s2.7,3.7,4.4,5.3s3.8,3.2,6.1,4.7v-0.2v-0.2V142v-0.2c-1.9-1.5-3.5-3.1-4.9-4.8c-1.4-1.7-2.6-3.4-3.6-5.1
	c-1-1.8-1.7-3.6-2.3-5.5s-0.9-3.8-1-5.8c0-1.6,0.2-3.1,0.5-4.6c0.3-1.5,0.8-3,1.4-4.4s1.3-2.8,2.2-4.2c0.9-1.4,1.9-2.7,3-4
	c1.1-1.3,2.4-2.5,3.7-3.6c1.3-1.1,2.7-2.2,4.1-3.1s2.9-1.8,4.5-2.6c1.6-0.8,3.2-1.5,5-2.1c5.1,1.7,9.6,3.7,13.4,5.8
	c3.8,2.2,7,4.6,9.6,7.2s4.5,5.5,5.8,8.6c1.3,3.1,1.9,6.5,1.9,10.1c0,2-0.2,3.8-0.5,5.5c-0.3,1.7-0.9,3.3-1.6,4.8s-1.6,2.8-2.6,4
	c-1,1.2-2.3,2.3-3.7,3.3c-1.4,1-2.9,1.8-4.4,2.6c-1.6,0.8-3.2,1.4-4.9,1.9c-1.7,0.5-3.5,1-5.4,1.3c-1.9,0.3-3.8,0.5-5.9,0.6
	c-2.2-0.1-4.4-0.3-6.5-0.6s-4.1-0.8-6-1.3s-3.8-1.3-5.6-2.1c-1.8-0.8-3.5-1.8-5.2-2.8c-1.6-1-3.1-2.2-4.4-3.5s-2.4-2.7-3.3-4.2
	c-0.9-1.5-1.7-3.2-2.3-4.9c-0.6-1.8-1-3.6-1.2-5.6h-3.7h-3.7h-3.7h-3.7c0.1,0.6,0.2,1.2,0.3,1.8c0.1,0.6,0.2,1.1,0.3,1.6
	s0.2,1,0.3,1.5c0.1,0.5,0.2,0.9,0.3,1.3c0.8,2.2,1.9,4.2,3.1,6c1.2,1.9,2.6,3.6,4.2,5.2c1.6,1.6,3.4,3.1,5.4,4.4
	c2,1.3,4.2,2.5,6.5,3.5c2.2,0.9,4.4,1.7,6.6,2.4c2.2,0.7,4.5,1.3,6.9,1.7c2.3,0.5,4.7,0.8,7.1,1C73.8,153.5,76.2,153.6,78.7,153.6z"
	/>
<path d="M68.7,41.2l0.1-0.9l0.1-0.9l0.1-0.9l0.1-0.9c-1.8,1-3.4,2-4.7,3.1s-2.5,2.3-3.5,3.5s-1.7,2.6-2.2,4
	c-0.5,1.4-0.8,2.9-0.9,4.4c0.1,1,0.3,2,0.6,3c0.3,1,0.7,1.9,1.2,2.9s1.1,1.9,1.8,2.8c0.7,0.9,1.5,1.8,2.4,2.7l0.2-0.1l0.2-0.1
	l0.2-0.1l0.2-0.1c-0.6-0.7-1.2-1.5-1.8-2.2s-1-1.5-1.4-2.3s-0.7-1.6-1-2.5c-0.3-0.8-0.5-1.7-0.6-2.6c0.1-1.4,0.4-2.7,0.8-4
	c0.4-1.2,1-2.4,1.7-3.5s1.6-2.1,2.7-3S67.3,42,68.7,41.2z"/>
</svg>
