<?xml version="1.0" encoding="utf-8"?>
<!-- Generator: Adobe Illustrator 22.1.0, SVG Export Plug-In . SVG Version: 6.00 Build 0)  -->
<svg version="1.1" id="レイヤー_1" xmlns="http://www.w3.org/2000/svg" xmlns:xlink="http://www.w3.org/1999/xlink" x="0px"
	 y="0px" viewBox="0 0 160 160" style="enable-background:new 0 0 160 160;" xml:space="preserve">
<path d="M14.1,99.5v-18v-18v-18v-18c0-2.7-0.6-5-1.4-6.9c-0.9-2-2-3.6-3.1-5.1s-2.3-2.9-3.1-4.4S5,8.1,5,6.4V6.2V6V5.7V5.5
	c0-0.7,0.1-1.4,0.4-1.9s0.6-1.1,1.1-1.5s1.1-0.7,1.8-0.9s1.4-0.3,2.3-0.3h13.6h13.6h13.6H65c0.8,0,1.6,0.1,2.3,0.3
	C68,1.4,68.6,1.7,69,2.1s0.9,0.9,1.1,1.5c0.3,0.6,0.4,1.2,0.4,1.9v0.2V6v0.2v0.2c0,1.7-0.6,3.2-1.6,4.7c-1,1.5-2.2,2.9-3.5,4.4
	s-2.6,3.2-3.5,5.1s-1.6,4.2-1.6,6.9v18v18v18v18c0,7.5,0.7,13.9,2.1,19.3c1.4,5.4,3.5,9.8,6.4,13.3c2.8,3.5,6.3,6,10.4,7.6
	c4.1,1.7,9,2.4,14.4,2.4c2.7,0,5.9-0.4,9.2-1.5c3.3-1.2,6.7-3.1,9.7-6.1c3-3.1,5.7-7.3,7.7-13c1.9-5.7,3.1-12.9,3.1-22v-18v-18v-18
	v-18c0-2.7-0.6-5-1.4-6.9c-0.9-2-2-3.6-3.1-5.1c-1.1-1.5-2.3-2.9-3.1-4.4c-0.9-1.5-1.4-3-1.4-4.7V6.2V6V5.7V5.5
	c0-0.7,0.1-1.4,0.4-1.9c0.3-0.6,0.6-1.1,1.1-1.5s1.1-0.7,1.8-0.9c0.7-0.2,1.4-0.3,2.3-0.3h7.6h7.6h7.6h7.6c0.8,0,1.6,0.1,2.3,0.3
	c0.7,0.2,1.3,0.5,1.8,0.9s0.9,0.9,1.1,1.5s0.4,1.2,0.4,1.9v0.2V6v0.2v0.2c0,1.7-0.6,3.2-1.6,4.7c-1,1.5-2.2,2.9-3.5,4.4
	c-1.3,1.5-2.6,3.2-3.5,5.1c-1,2-1.6,4.2-1.6,6.9v18.1v18.1v18.1V100c0,10.2-1.6,19.1-4.5,26.8s-7.3,14-12.8,19
	c-5.5,5.1-12.1,8.8-19.7,11.3s-16.1,3.8-25.4,3.8c-10.1,0-19.5-1.2-27.9-3.8c-8.4-2.5-15.7-6.3-21.9-11.4
	c-6.1-5.1-11-11.5-14.3-19.1S14.1,109.9,14.1,99.5z"/>
</svg>
