<?xml version="1.0" encoding="utf-8"?>
<!-- Generator: Adobe Illustrator 22.1.0, SVG Export Plug-In . SVG Version: 6.00 Build 0)  -->
<svg version="1.1" id="レイヤー_1" xmlns="http://www.w3.org/2000/svg" xmlns:xlink="http://www.w3.org/1999/xlink" x="0px"
	 y="0px" viewBox="0 0 160 160" style="enable-background:new 0 0 160 160;" xml:space="preserve">
<path d="M138.2,60.9c-2.2-18-8.6-37-22.9-49C101-0.1,79.7-2.9,62.1,2.6c-9.5,2.9-17.8,8.5-24,16.2c-5.6,6.9-9.5,15.1-12.2,23.6
	c-2.8,9-4.2,18.3-4.8,27.7c-0.5,9.5-0.3,19.1,0.9,28.6c2.3,18,8.7,36.8,22.8,49c1.2,1.1,2.5,2.1,3.9,3c4.4-7.4,8.8-14.8,13.2-22.2
	c0.2-0.4,0.4-0.7,0.7-1.1c0.3-0.5,1-1.3,1.1-1.9c0.1-0.6-0.9-1.4-1.3-2c-0.9-1.2-1.6-2.4-2.3-3.7c-2.6-4.8-4.2-10.2-5.3-15.5
	c-2.3-11.1-2.5-22.8-1.9-34.1c0.3-5.6,0.9-11.2,2.2-16.7c1.2-5.3,2.9-10.6,5.8-15.2c3-4.8,7.2-8.2,12.7-9.7
	c5.4-1.5,11.4-1.1,16.5,1.1c10.2,4.4,14,16.9,15.8,27c2.1,11.1,2.1,22.8,1.4,34c-0.4,5.6-1.1,11.2-2.5,16.6
	c-1.3,5.2-3.1,10.5-6.1,15c-3,4.5-7.2,7.9-12.5,9.3c-5.6,1.5-11.7,0.8-16.8-1.9c-2.1-1.1-3.9-2.7-5.5-4.5c-3,5.1-6.1,10.2-9.1,15.3
	c-1.4,2.3-2.8,4.7-4.2,7c-0.5,0.8-0.9,1.6-1.4,2.4c-0.1,0.1-0.4,0.6-0.4,0.7c0,0.2,0.9,0.6,1,0.7c0.4,0.3,0.9,0.6,1.3,0.8
	c3.4,2.1,7,3.8,10.8,5.1c15,5,32.7,3.6,46.4-4.4c13.9-8.2,22.3-22.7,26.7-37.9c4.5-15.4,5.2-31.9,4-47.9
	C138.6,65,138.4,63,138.2,60.9z"/>
<path d="M98.3,76.4c-0.1-0.6-0.2-1.2-0.3-1.8c-0.1-0.6-0.3-1.1-0.4-1.7s-0.4-1.1-0.6-1.6c-0.2-0.5-0.5-1-0.8-1.6s-0.6-1-0.9-1.5
	c-0.3-0.5-0.7-1-1.1-1.4c-0.2-0.3-0.5-0.6-0.7-0.8s-0.5-0.5-0.8-0.8c-0.2-0.2-0.3-0.3-0.5-0.5c-0.2-0.2-0.3-0.3-0.5-0.4
	c-0.5-0.4-1-0.7-1.5-1c-0.5-0.3-1-0.6-1.6-0.8c-0.5-0.3-1.1-0.5-1.7-0.7c-0.6-0.2-1.2-0.4-1.8-0.5c-0.6-0.2-1.3-0.3-1.9-0.4
	c-0.7-0.1-1.4-0.2-2.1-0.2c-0.7,0-1.4-0.1-2.1-0.1c-0.7,0-1.3,0-2,0.1c-0.6,0.1-1.3,0.2-1.9,0.3s-1.2,0.3-1.8,0.5
	c-0.6,0.2-1.1,0.4-1.7,0.6c-0.5,0.2-1.1,0.5-1.6,0.8c-0.5,0.3-1,0.6-1.5,1s-0.9,0.7-1.4,1.1c-0.4,0.4-0.9,0.8-1.3,1.3
	c-0.4,0.4-0.8,0.9-1.1,1.4c-0.3,0.5-0.7,0.9-1,1.4c-0.3,0.5-0.6,1-0.8,1.5c-0.2,0.5-0.5,1.1-0.7,1.6c-0.2,0.6-0.4,1.1-0.5,1.7
	s-0.3,1.2-0.4,1.8s-0.2,1.2-0.2,1.9c0,0.6-0.1,1.3,0,1.9c0,0.6,0,1.2,0.1,1.8c0.1,0.6,0.2,1.2,0.3,1.8s0.3,1.1,0.4,1.7
	c0.2,0.6,0.4,1.1,0.6,1.6s0.5,1,0.8,1.6c0.3,0.5,0.6,1,0.9,1.5c0.3,0.5,0.7,1,1.1,1.4c0.4,0.5,0.8,0.9,1.2,1.3
	c0.4,0.4,0.9,0.8,1.3,1.2s1,0.7,1.5,1c0.5,0.3,1,0.6,1.6,0.8c0.2,0.1,0.4,0.2,0.5,0.2c0.2,0.1,0.4,0.1,0.5,0.2
	c0.4,0.2,0.8,0.3,1.2,0.4c0.4,0.1,0.8,0.2,1.2,0.4c0.6,0.1,1.3,0.3,1.9,0.4c0.7,0.1,1.4,0.2,2.1,0.2c0.7,0,1.4,0.1,2.1,0.1
	c0.7,0,1.3,0,2-0.1c0.6-0.1,1.3-0.2,1.9-0.3c0.6-0.1,1.2-0.3,1.8-0.5c0.6-0.2,1.1-0.4,1.7-0.6c0.5-0.2,1.1-0.5,1.6-0.8
	c0.5-0.3,1-0.6,1.5-1c0.5-0.4,0.9-0.7,1.4-1.1c0.4-0.4,0.9-0.8,1.3-1.3c0.4-0.4,0.8-0.9,1.1-1.4c0.3-0.5,0.7-0.9,1-1.4
	c0.3-0.5,0.6-1,0.8-1.5c0.2-0.5,0.5-1.1,0.7-1.6c0.2-0.6,0.4-1.1,0.5-1.7c0.1-0.6,0.3-1.2,0.4-1.8c0.1-0.6,0.2-1.2,0.2-1.9
	c0-0.6,0.1-1.3,0-1.9C98.4,77.6,98.4,77,98.3,76.4z"/>
</svg>
