<?xml version="1.0" encoding="utf-8"?>
<!-- Generator: Adobe Illustrator 22.1.0, SVG Export Plug-In . SVG Version: 6.00 Build 0)  -->
<svg version="1.1" id="レイヤー_1" xmlns="http://www.w3.org/2000/svg" xmlns:xlink="http://www.w3.org/1999/xlink" x="0px"
	 y="0px" viewBox="0 0 160 160" style="enable-background:new 0 0 160 160;" xml:space="preserve">
<path d="M133.1,0.7H48.6c-1.5,0-3.3,1-3.6,3L23.4,157.6c-0.3,2,1.3,3,2.8,3h84.6c2,0,3-1.5,3.3-3l1.3-8.6c0.3-1.5-0.5-3-2.5-3H40.7
	l7.9-56.6h59.2c2,0,3.3-1.5,3.6-3l1-8.6c0.3-1.5-0.5-3-2.5-3H50.6L59,15.4h72.1c2,0,3.3-1.5,3.6-3l1-8.6
	C135.9,2.2,135.2,0.7,133.1,0.7z"/>
</svg>
