<?xml version="1.0" encoding="utf-8"?>
<!-- Generator: Adobe Illustrator 22.1.0, SVG Export Plug-In . SVG Version: 6.00 Build 0)  -->
<svg version="1.1" id="レイヤー_1" xmlns="http://www.w3.org/2000/svg" xmlns:xlink="http://www.w3.org/1999/xlink" x="0px"
	 y="0px" viewBox="0 0 160 160" style="enable-background:new 0 0 160 160;" xml:space="preserve">
<path d="M35.5,69.8c-6.1-16.4-9.5-26.3-10.7-32l-0.3-0.1c0.4,7.9,4,19.8,8.9,33.2l7.3,20c2.2,6.3,9.8,25.4,12.8,31.4l0.3-0.1
	c-1.8-6.9-8.5-25.8-10.7-32L35.5,69.8z"/>
<path d="M107.4,88l-9-24.2c-5.3-14.1-5.7-19.7-5.4-25.6l-0.1-0.1c-1.3,3.6-2.2,11.8,3.4,26.8l9,23.9c2.9,7.7,7.4,19.4,10.8,25.9
	l0.1-0.3C114.4,107.4,110.1,95.3,107.4,88z"/>
<path d="M27.2,64.7c-5-13.5-9.2-22.2-12.7-26.2l-0.1,0.1c3.3,6.9,6.1,14.9,10.7,27.1l10.4,27.6c2.4,6.2,9.6,24,12.6,30.3h0.3
	c-2-7-8.3-25-10.6-30.9L27.2,64.7z"/>
<path d="M57.3,114.4c-1.9-7-6.1-19.2-8.9-26.4l-9-24.2c-5.3-14.1-5.7-19.7-5.4-25.6l-0.1-0.1c-1.3,3.6-2.2,11.8,3.4,26.8l9,23.9
	c2.9,7.7,7.4,19.4,10.8,25.9L57.3,114.4z"/>
<path d="M94.4,69.8c-6.1-16.4-9.5-26.3-10.7-32l-0.3-0.1c0.4,7.9,4,19.8,8.9,33.2l7.3,20c2.2,6.3,9.8,25.4,12.8,31.4l0.3-0.1
	c-1.9-6.9-8.5-25.8-10.7-32L94.4,69.8z"/>
<path d="M86.1,64.7c-5-13.5-9.2-22.2-12.7-26.2l-0.1,0.1c3.3,6.9,6.1,14.9,10.7,27.1l10.4,27.6c2.4,6.2,9.6,24,12.6,30.3h0.3
	c-2-7-8.3-25-10.6-30.9L86.1,64.7z"/>
<path d="M145.6,32.4V35h7.2c-3,3.2-6.6,8.5-8.7,12.7c-0.3-4.2-2-9.1-5.7-12.7h7.2V32.4h-16.3V33c8.1,1.5,15.3,11,10.6,23.8
	l-18.6,49.9l-19.7-52.8c-4.6-12.4-2-19,3.7-20.9v-0.7H58.7V33c3.7,1.2,7,4,13.6,20.9l5.5,14.1l-15.5,39.2L42.6,53.9
	c-4.6-12.4-2-19,3.7-20.9v-0.7H-0.2V33c3.7,1.2,7,4,13.6,20.9l29.2,74.9h14.5l0,0l-1.7-2.6h-11L15.9,53c-2.4-6.1-5.8-14-9-18h32.8
	c-3.3,5.2-2.1,12.8,0.5,19.8l21,56.5l-5.8,14.8l0,0l1.7,2.6L79.5,72l22.1,56.8h14.5l-1.8-2.6l0,0h-10.8L74.9,53
	c-2.4-6.1-5.8-14-9-18h32.8c-3.3,5.2-2.1,12.8,0.5,19.8l20.9,56.3l-5.8,15.1l1.8,2.6l0,0L143.7,55c4.2-11.2,11.6-20.5,16.1-21.9
	v-0.7H145.6z"/>
</svg>
