<?xml version="1.0" encoding="utf-8"?>
<!-- Generator: Adobe Illustrator 22.1.0, SVG Export Plug-In . SVG Version: 6.00 Build 0)  -->
<svg version="1.1" id="レイヤー_1" xmlns="http://www.w3.org/2000/svg" xmlns:xlink="http://www.w3.org/1999/xlink" x="0px"
	 y="0px" viewBox="0 0 160 160" style="enable-background:new 0 0 160 160;" xml:space="preserve">
<path d="M41.8,89c0-4.2,0.4-8.3,1.2-12.3s2-7.9,3.5-11.6c1.5-3.7,3.4-7.2,5.7-10.6c2.2-3.3,4.8-6.4,7.7-9.3s6.1-5.4,9.6-7.7
	s7.3-4.2,11.3-5.8s8.4-2.8,13-3.7c4.6-0.8,9.4-1.3,14.5-1.3c2.3,0,4.6,0.1,6.8,0.3c2.2,0.2,4.3,0.4,6.3,0.7c2,0.3,4,0.7,5.9,1.1
	s3.7,0.8,5.3,1.3c1.7,0.5,3.3,0.9,4.8,1.4s2.9,1,4.2,1.5s2.5,0.9,3.6,1.4c1.1,0.4,2,0.8,2.9,1.2v-1v-1v-1v-1v-1v-1v-1v-1l-4.1-3.3
	l-4.1-3.3l-4.1-3.3l-4.1-3.3l-4.1-3.3l-4.1-3.3l-4.1-3.3L115,1.6v1v1v1v1v1v1v1v1c-1.3-0.5-2.7-1.1-4.1-1.6s-2.8-1.1-4.2-1.6
	c-1.4-0.5-2.9-1-4.4-1.5s-3-0.9-4.6-1.3s-3.2-0.8-4.9-1.1c-1.7-0.3-3.4-0.6-5.2-0.9S83.9,1.2,82,1c-1.9-0.1-3.9-0.2-6-0.2
	c-5.4,0-10.5,0.5-15.2,1.4s-9.2,2.2-13.4,3.9s-8,3.8-11.5,6.1c-3.5,2.4-6.7,5-9.5,8s-5.4,6.1-7.5,9.4s-4,6.9-5.4,10.5
	c-1.5,3.7-2.6,7.5-3.3,11.3C9.3,55,8.9,58.9,8.9,62.9c0,1.1,0,2.5,0.1,4.3s0.3,3.9,0.7,6.2s1,4.9,1.8,7.6s1.9,5.6,3.2,8.5
	s3.1,5.9,5.1,8.9c2.1,3,4.5,5.9,7.5,8.7s6.3,5.6,10.3,8.1s8.4,4.9,13.5,7c-0.4-0.6-0.8-1.3-1.2-2.1s-0.9-1.7-1.4-2.7s-1-2.1-1.5-3.3
	c-0.5-1.2-1-2.5-1.5-3.8s-1-2.9-1.4-4.4c-0.4-1.6-0.8-3.3-1.1-5c-0.3-1.8-0.6-3.6-0.8-5.6C41.9,93.3,41.8,91.2,41.8,89z"/>
<path d="M118.8,70.6v6.6v6.6v6.6V97v6.6v6.6v6.6v6.6c-1,0.4-2,0.9-3.2,1.5c-1.2,0.5-2.5,1.1-3.9,1.6c-1.4,0.6-3,1.1-4.6,1.7
	s-3.4,1.1-5.3,1.7s-3.8,1-5.9,1.5s-4.3,0.9-6.6,1.2c-2.3,0.3-4.7,0.6-7.2,0.8s-5.1,0.3-7.8,0.3c-2.5,0-4.9-0.1-7.1-0.3
	s-4.3-0.4-6.3-0.7s-3.8-0.7-5.6-1.2s-3.4-0.9-5-1.5c-1.6-0.5-3.1-1.1-4.5-1.7c-1.4-0.6-2.8-1.3-4.1-1.9c-1.3-0.7-2.6-1.3-3.8-2
	s-2.4-1.4-3.6-2.1l3.6,2.9l3.6,2.9l3.6,2.9l3.6,2.9l3.6,2.9l3.6,2.9l3.6,2.9l3.6,2.9c1.6,1.3,3.3,2.5,4.9,3.6s3.3,2.1,5,3.1
	s3.4,1.8,5.1,2.6s3.5,1.5,5.3,2.1s3.6,1.1,5.4,1.6s3.7,0.8,5.6,1.1s3.9,0.5,5.9,0.7c2,0.1,4,0.2,6.1,0.2c2.8,0,5.5-0.1,8.1-0.3
	s5.1-0.5,7.4-0.8s4.6-0.7,6.7-1.2s4.1-1,6-1.5s3.7-1.1,5.3-1.7c1.7-0.6,3.2-1.1,4.7-1.7c1.5-0.6,2.8-1.1,4-1.7
	c1.2-0.5,2.4-1,3.4-1.5v-6.6v-6.6v-6.6v-6.6v-6.6v-6.6v-6.6v-6.6l-4.1-3.3l-4.1-3.3l-4.1-3.3l-4.1-3.3l-4.1-3.3l-4.1-3.3l-4.1-3.3
	L118.8,70.6z"/>
<path d="M111.3,100 111.3,98.6 111.3,97.3 111.3,95.9 111.3,94.5 111.3,93.1 111.3,91.8 111.3,90.4 111.3,89 111.3,87.6 
	111.3,86.3 111.3,84.9 111.3,83.5 111.3,82.1 111.3,80.8 111.3,79.4 111.3,78 109.6,78 107.8,78 106.1,78 104.3,78 102.6,78 
	100.8,78 99.1,78 97.3,78 95.6,78 93.8,78 92.1,78 90.4,78 88.7,78 86.9,78 85.2,78 83.4,78 85.2,79.4 86.9,80.8 88.7,82.1 
	90.4,83.5 92.1,84.9 93.8,86.3 95.6,87.6 97.3,89 99.1,90.4 100.8,91.8 102.6,93.1 104.3,94.5 106.1,95.9 107.8,97.3 109.6,98.6z"/>
</svg>
