<?xml version="1.0" encoding="utf-8"?>
<!-- Generator: Adobe Illustrator 22.1.0, SVG Export Plug-In . SVG Version: 6.00 Build 0)  -->
<svg version="1.1" id="レイヤー_1" xmlns="http://www.w3.org/2000/svg" xmlns:xlink="http://www.w3.org/1999/xlink" x="0px"
	 y="0px" viewBox="0 0 160 160" style="enable-background:new 0 0 160 160;" xml:space="preserve">
<path d="M111.9,12.7v0.8c-1.4,23.1-2.1,45.9-2.1,68.2s0.6,42.4,1.9,60.2l0.4,4.2H63.3v-6.4h20.7v-4.9H63.3v-6.4h20.7v-4.8H63.3v-6.4
	h20.7v-4.9H63.3v-6.4h20.7V101H63.3v-6.4h20.7v-4.9H63.3v-6.4h20.7v-4.8H63.3v-6.4h20.7V67H63.3v-6.4h20.7v-4.8H63.3v-6.4h20.7v-4.9
	H63.3V38h20.7v-4.8H63.3v-6.4h20.7v-4.9H63.5v-5.6l2.1-0.1c7-0.5,12.5-0.7,16.4-0.7h2.1v-4.8c-13.3,0.2-26.6,1-40,2.6
	c-13.4,1.6-26.8,4-40.4,7.1l-3,0.7L5,0.8h149.7L159,21c-12.7-3.4-28.1-6.1-45.9-8.1L111.9,12.7z M47.6,17.3
	c2.9-0.4,6.5-0.7,10.8-0.9v134.7h53.9c0.1,1.7,0.3,5,0.6,9.7H46.7l0.2-2.6c0.8-8.6,1.5-20.5,2.1-35.6c0.2-3.6,0.3-7.2,0.4-10.8
	c0.1-3.6,0.2-7.1,0.3-10.7c0.2-5.2,0.2-10,0.2-14.4l-0.6-37.4C49.2,33.6,48.6,22.9,47.6,17.3z"/>
</svg>
