<?xml version="1.0" encoding="utf-8"?>
<!-- Generator: Adobe Illustrator 22.1.0, SVG Export Plug-In . SVG Version: 6.00 Build 0)  -->
<svg version="1.1" id="レイヤー_1" xmlns="http://www.w3.org/2000/svg" xmlns:xlink="http://www.w3.org/1999/xlink" x="0px"
	 y="0px" viewBox="0 0 160 160" style="enable-background:new 0 0 160 160;" xml:space="preserve">
<path d="M79.7,0.8c-1.9,0-4.4,0.2-7.4,0.6s-6.3,1.2-9.7,2.5c-3.4,1.2-6.9,3-10.3,5.3c-3.3,2.3-6.5,5.3-9.2,9.1
	c-3.4,4.7-6,10.1-8,15.8s-3.5,11.6-4.5,17.4s-1.6,11.4-1.9,16.4c-0.3,5-0.4,9.5-0.4,12.9c0,3,0.1,7.2,0.4,12.2
	c0.3,4.9,0.9,10.6,1.9,16.5s2.4,12,4.5,17.8c2,5.8,4.7,11.4,8.1,16.2c1.8,2.4,4,4.8,6.5,6.9c2.5,2.1,5.4,4,8.5,5.6s6.5,2.8,10.1,3.7
	c3.6,0.9,7.4,1.4,11.3,1.4c0,0,0,0,0.1,0c0,0,0,0,0.1,0s0,0,0.1,0s0,0,0.1,0v-5.6v-5.6V144v-5.6c0,0,0,0-0.1,0s0,0-0.1,0
	c0,0,0,0-0.1,0c0,0,0,0-0.1,0c-4.9,0-9-1.6-12.2-4.4c-3.3-2.9-5.7-7-7.6-12.2s-3.1-11.4-3.9-18.3c-0.8-6.9-1.1-14.6-1.1-22.7
	c0-8.1,0.3-15.7,1.1-22.7c0.8-6.9,2-13.1,3.9-18.3s4.3-9.4,7.6-12.3c3.3-2.9,7.3-4.5,12.3-4.5c4.9,0,9,1.6,12.2,4.4s5.7,7,7.6,12.2
	s3.1,11.4,3.9,18.3c0.8,6.9,1.1,14.6,1.1,22.7c0,8-0.3,15.6-1.1,22.5c-0.8,6.9-2,13.1-3.8,18.3s-4.3,9.4-7.5,12.3s-7.2,4.6-12.1,4.6
	v5.6v5.6v5.6v5.6c3.6,0,7.2-0.5,10.7-1.3s6.8-2,9.9-3.6c3.1-1.5,6-3.4,8.7-5.5s5-4.5,6.9-7.1c3.4-4.7,6.1-10.2,8.1-16.1
	c2-5.8,3.4-12,4.4-17.9c1-5.9,1.5-11.6,1.8-16.6c0.3-4.9,0.4-9.1,0.4-12.1c0-7.6-0.4-16.4-1.6-25.3c-1.3-8.9-3.4-18-7-26
	S113.8,14.1,106.8,9C99.9,3.9,91.1,0.8,79.7,0.8z"/>
</svg>
