<?xml version="1.0" encoding="utf-8"?>
<!-- Generator: Adobe Illustrator 22.1.0, SVG Export Plug-In . SVG Version: 6.00 Build 0)  -->
<svg version="1.1" id="レイヤー_1" xmlns="http://www.w3.org/2000/svg" xmlns:xlink="http://www.w3.org/1999/xlink" x="0px"
	 y="0px" viewBox="0 0 160 160" style="enable-background:new 0 0 160 160;" xml:space="preserve">
<path d="M18.6,0.5h9.7H38h9.7h9.7H67h9.7h9.7h9.7c2.5,0,4.9,0.1,7.2,0.2c2.3,0.1,4.5,0.3,6.6,0.6c2.1,0.3,4.1,0.6,6,1
	c1.9,0.4,3.7,0.8,5.3,1.4s3.2,1.1,4.7,1.8s2.8,1.4,4.1,2.2s2.4,1.7,3.5,2.6s2,1.9,2.9,3c0.8,0.9,1.5,1.9,2.2,3
	c0.7,1.1,1.3,2.2,1.9,3.5c0.6,1.2,1.2,2.5,1.7,3.9c0.5,1.4,1,2.8,1.4,4.3c0.4,1.5,0.8,3,1.1,4.6c0.3,1.6,0.6,3.2,0.8,4.8
	s0.4,3.3,0.5,5c0.1,1.7,0.2,3.4,0.2,5.2c0,2.1-0.1,4.1-0.2,6.1c-0.1,2-0.4,3.9-0.7,5.8s-0.7,3.7-1.1,5.5c-0.4,1.8-0.9,3.5-1.5,5.1
	c-0.6,1.6-1.2,3.2-1.9,4.7c-0.7,1.5-1.5,2.9-2.3,4.2c-0.8,1.3-1.7,2.6-2.7,3.7c-1,1.2-2,2.2-3,3.2c-1,0.9-2.1,1.8-3.2,2.6
	s-2.3,1.5-3.5,2.2c-1.2,0.7-2.6,1.3-4,1.8s-2.9,1-4.4,1.5c-1.6,0.4-3.2,0.8-4.9,1.1c-1.7,0.3-3.6,0.6-5.5,0.8s-4,0.4-6.1,0.5
	c-2.1,0.1-4.4,0.1-6.7,0.1h-2.6h-2.6h-2.6H84h-2.6h-2.6h-2.6h-2.6c-2.4,0.1-4.6,0.3-6.5,0.6c-2,0.3-3.8,0.6-5.3,1s-3,0.9-4.2,1.5
	c-1.2,0.6-2.3,1.3-3.2,2.1c-0.9,0.8-1.7,1.7-2.3,2.7c-0.6,1-1.1,2.2-1.5,3.5c-0.4,1.3-0.6,2.7-0.7,4.3c-0.1,1.6-0.2,3.3-0.1,5.2v1.6
	v1.6v1.6v1.6v1.6v1.6v1.6v1.6h11.7h11.7h11.7h11.7H108h11.7h11.7h11.7v3.8v3.8v3.8v3.8v3.8v3.8v3.8v3.8h-16.2h-16.2H94.4H78.1H61.9
	H45.6H29.4H13.1V156v-4.5v-4.5v-4.5v-4.5v-4.5v-4.5v-4.5c-0.1-5.5,0.1-10.5,0.6-15.2s1.3-8.9,2.4-12.8s2.5-7.4,4.3-10.6
	c1.8-3.2,3.8-6,6.3-8.4c2.4-2.5,5.2-4.6,8.4-6.4c3.2-1.8,6.7-3.2,10.6-4.4c3.9-1.2,8.2-2,12.9-2.6c4.7-0.6,9.8-0.8,15.3-0.8h2.5h2.5
	h2.5h2.5h2.5h2.5h2.5h2.5c1.7,0,3.2,0,4.6-0.1c1.4-0.1,2.6-0.2,3.7-0.5c1.1-0.2,2-0.5,2.8-0.9c0.8-0.4,1.5-0.9,2.1-1.5
	c0.6-0.6,1.1-1.3,1.5-2.1s0.7-1.8,0.9-2.8c0.2-1.1,0.4-2.3,0.5-3.7c0.1-1.4,0.1-2.9,0.1-4.6c0-1.7-0.1-3.2-0.2-4.6s-0.4-2.6-0.7-3.7
	c-0.3-1.1-0.7-2-1.3-2.9c-0.5-0.8-1.2-1.5-2-2.1c-0.8-0.6-1.7-1.1-2.8-1.5c-1.1-0.4-2.3-0.7-3.8-1c-1.4-0.2-3-0.4-4.9-0.5
	c-1.8-0.1-3.8-0.2-6.1-0.2h-8.7h-8.7h-8.7h-8.7h-8.7H36h-8.7h-8.7v-3.8v-3.8v-3.8v-3.8V12V8.1V4.3V0.5z"/>
</svg>
