<?xml version="1.0" encoding="utf-8"?>
<!-- Generator: Adobe Illustrator 22.1.0, SVG Export Plug-In . SVG Version: 6.00 Build 0)  -->
<svg version="1.1" id="レイヤー_1" xmlns="http://www.w3.org/2000/svg" xmlns:xlink="http://www.w3.org/1999/xlink" x="0px"
	 y="0px" viewBox="0 0 160 160" style="enable-background:new 0 0 160 160;" xml:space="preserve">
<path d="M109,71.8c1.1-1,2.1-2,3.1-3c1-1.1,1.8-2.2,2.6-3.3c0.8-1.2,1.5-2.4,2.2-3.6s1.3-2.5,1.8-3.8s1-2.6,1.4-3.9
	c0.4-1.3,0.7-2.7,1-4c0.3-1.4,0.4-2.7,0.6-4.1c0.1-1.4,0.2-2.7,0.2-4c0-2.9-0.3-5.8-0.8-8.6c-0.5-2.8-1.3-5.4-2.3-7.9
	c-1-2.5-2.2-4.9-3.6-7.1c-1.4-2.2-3.1-4.3-4.9-6.1s-3.9-3.6-6.1-5s-4.6-2.7-7.2-3.8S91.6,1.6,88.7,1s-5.9-0.8-9.1-0.8v3.1v3.1v3.1
	v3.1v3.1V19v3.1v3.1c1.1,0,2.2,0.1,3.3,0.3c1,0.2,2,0.5,3,0.9c0.9,0.4,1.8,0.9,2.7,1.5c0.8,0.6,1.6,1.3,2.3,2s1.3,1.6,1.9,2.5
	c0.6,0.9,1,1.9,1.4,3c0.4,1.1,0.7,2.2,0.9,3.4c0.2,1.2,0.3,2.5,0.3,3.8c0,1.2-0.1,2.4-0.3,3.6c-0.2,1.2-0.5,2.3-0.8,3.3
	c-0.4,1-0.8,2-1.4,3c-0.5,0.9-1.1,1.8-1.8,2.6s-1.4,1.5-2.3,2.1C87.9,58,87,58.6,86.1,59c-1,0.4-2,0.8-3,1c-1.1,0.2-2.2,0.3-3.4,0.3
	c-1.1,0-2.3-0.1-3.3-0.3s-2.1-0.5-3-0.9c-1-0.4-1.8-0.9-2.7-1.5s-1.6-1.3-2.3-2s-1.3-1.6-1.9-2.5c-0.5-0.9-1-1.9-1.4-3
	c-0.4-1.1-0.7-2.2-0.9-3.4S64,44.2,64,42.9c0-1.4,0.1-2.7,0.3-3.9c0.2-1.2,0.5-2.4,0.9-3.5s0.9-2.1,1.5-3c0.6-0.9,1.2-1.8,1.9-2.5
	s1.5-1.4,2.3-2c0.8-0.6,1.7-1.1,2.7-1.5c0.9-0.4,1.9-0.7,2.9-0.9c1-0.2,2.1-0.3,3.1-0.3v-3.1V19v-3.1v-3.1V9.6V6.5V3.3V0.2
	c-3.2,0-6.2,0.3-9.1,0.8S65,2.4,62.4,3.4s-5,2.3-7.2,3.8s-4.3,3.2-6.1,5s-3.5,3.9-4.9,6.1c-1.4,2.2-2.6,4.6-3.6,7.1
	c-1,2.5-1.7,5.1-2.3,7.9s-0.8,5.6-0.8,8.6c0,1.4,0.1,2.8,0.2,4.2s0.3,2.8,0.6,4.2c0.3,1.4,0.6,2.7,1,4.1s0.9,2.7,1.4,3.9
	s1.1,2.5,1.8,3.8s1.4,2.4,2.2,3.5c0.8,1.1,1.7,2.2,2.6,3.2c0.9,1,1.9,2,3,2.9c-1.5,1-2.9,2.2-4.2,3.4c-1.3,1.2-2.6,2.5-3.7,4
	c-1.2,1.4-2.2,2.9-3.2,4.4s-1.9,3.2-2.7,4.9s-1.5,3.4-2.1,5.3c-0.6,1.8-1.1,3.7-1.5,5.6c-0.4,1.9-0.7,3.8-0.9,5.8
	c-0.2,2-0.3,4-0.3,6c0,3.7,0.3,7.3,1,10.7c0.6,3.4,1.6,6.6,2.8,9.6s2.7,5.8,4.5,8.4c1.7,2.6,3.7,5,5.9,7.1s4.6,4,7.1,5.7
	s5.3,3.1,8.2,4.2c2.9,1.1,5.9,2,9,2.6c3.1,0.6,6.3,0.9,9.6,0.9v-3.6v-3.6v-3.6V146v-3.6v-3.6v-3.6v-3.6c-1.4,0-2.8-0.1-4.1-0.4
	c-1.3-0.3-2.6-0.7-3.8-1.3c-1.2-0.5-2.3-1.2-3.4-2c-1.1-0.8-2-1.7-2.9-2.6s-1.7-2.1-2.4-3.2c-0.7-1.2-1.3-2.4-1.8-3.7
	c-0.5-1.3-0.9-2.7-1.1-4.1s-0.4-2.9-0.4-4.5c0-1.4,0.1-2.8,0.3-4.2s0.6-2.7,1-3.9c0.4-1.3,1-2.5,1.7-3.6s1.4-2.2,2.3-3.2
	s1.8-1.9,2.9-2.6s2.2-1.5,3.4-2c1.2-0.6,2.5-1,3.9-1.3s2.9-0.4,4.4-0.4c1.6,0,3.1,0.2,4.5,0.4s2.7,0.7,4,1.3c1.2,0.6,2.4,1.2,3.4,2
	c1,0.8,2,1.7,2.8,2.6s1.6,2,2.2,3.2s1.2,2.3,1.6,3.6c0.4,1.3,0.8,2.6,1,3.9s0.3,2.7,0.3,4.2c0,1.5-0.1,3-0.4,4.5
	c-0.3,1.4-0.6,2.8-1.1,4.1c-0.5,1.3-1.1,2.6-1.8,3.7c-0.7,1.2-1.5,2.2-2.4,3.2s-1.9,1.9-2.9,2.6c-1.1,0.8-2.2,1.4-3.4,2
	c-1.2,0.5-2.5,1-3.8,1.3c-1.3,0.3-2.7,0.4-4.2,0.4v3.6v3.6v3.6v3.6v3.6v3.6v3.6v3.6c3.3,0,6.5-0.3,9.6-0.9s6.1-1.4,9-2.6
	c2.9-1.1,5.6-2.5,8.2-4.2c2.6-1.6,4.9-3.5,7.1-5.7s4.2-4.5,5.9-7.1c1.7-2.6,3.2-5.4,4.5-8.4c1.2-3,2.2-6.2,2.8-9.6
	c0.6-3.4,1-7,1-10.7c0-2.2-0.1-4.4-0.4-6.4c-0.2-2.1-0.6-4.1-1.1-6.1c-0.5-2-1-3.9-1.7-5.7c-0.7-1.8-1.4-3.6-2.2-5.3
	s-1.8-3.3-2.8-4.8c-1-1.5-2.1-2.9-3.2-4.2c-1.1-1.3-2.3-2.5-3.6-3.7S110.3,72.7,109,71.8z"/>
</svg>
