<?xml version="1.0" encoding="utf-8"?>
<!-- Generator: Adobe Illustrator 22.1.0, SVG Export Plug-In . SVG Version: 6.00 Build 0)  -->
<svg version="1.1" id="レイヤー_1" xmlns="http://www.w3.org/2000/svg" xmlns:xlink="http://www.w3.org/1999/xlink" x="0px"
	 y="0px" viewBox="0 0 160 160" style="enable-background:new 0 0 160 160;" xml:space="preserve">
<path d="M64.4,130.9c-0.4-6.7-0.8-13.7-1.1-20.4c-0.3-6.7-0.5-13-0.5-18.2v-4.7v-4.7v-4.7c0,0,0.2-20.5,0.4-28
	c0.3-7.4,0.6-14.5,1-20.8c0.4-6.3,0.8-12,1.1-16.7s0.6-8.5,0.7-11c-3.4,0.1-7.2,0.1-11.1,0.1c-3.9,0-8-0.1-12.1-0.3
	c-4.1-0.1-8.3-0.2-12.3-0.3s-7.9-0.2-11.6-0.2c-0.6,0-1.2,0.1-1.7,0.3c-0.5,0.2-1,0.4-1.3,0.7c-0.4,0.3-0.7,0.7-0.9,1.2
	c-0.2,0.5-0.4,1-0.4,1.6C14.3,6,14.2,8.2,14,10.6c-0.2,2.4-0.4,5.2-0.5,8c-0.2,2.7-0.3,5.4-0.4,7.7c-0.1,2.3-0.2,4.2-0.2,5.3
	c0,0.4,0.3,0.7,0.9,0.9c0.5,0.2,1.2,0.3,1.9,0.3c0.7,0,1.4-0.1,2-0.2s0.9-0.4,1-0.7c0.8-2.7,1.8-5.5,3.3-8.3
	c1.4-2.8,3.2-5.4,5.5-7.8c2.2-2.3,4.8-4.4,7.9-5.8c3.1-1.4,6.6-2.3,10.7-2.3h1h1h1h1c0.9,0,1.6,0.1,2.2,0.4s1.1,0.6,1.5,1.1
	s0.7,1,0.9,1.6c0.2,0.6,0.3,1.3,0.4,2c0.3,2.7,0.5,6.5,0.7,11c0.2,4.5,0.3,9.6,0.4,15.1c0.1,5.4,0.2,11.2,0.2,16.8
	c0,5.6,0.1,11.2,0.1,16.2V77v5.1v5.1v5.1c0,4.6,0,9.3,0,14s-0.1,9.4-0.1,14c-0.1,4.6-0.2,9.2-0.3,13.7c-0.2,4.5-0.4,8.9-0.7,13.1
	c-0.1,1.3-0.5,2.5-1.1,3.5c-0.6,1-1.4,1.8-2.4,2.5c-1,0.7-2.1,1.2-3.4,1.6s-2.6,0.6-4,0.8c-0.3,0.1-0.6,0.4-0.8,1
	c-0.2,0.6-0.2,1.3-0.2,2c0,0.7,0.1,1.4,0.3,1.9c0.2,0.5,0.4,0.8,0.7,0.7c2.1-0.2,4-0.4,5.8-0.5c1.8-0.1,3.5-0.1,5.2-0.1
	s3.3,0.1,5.1,0.1c1.7,0.1,3.6,0.1,5.5,0.2c-0.1-2.3-0.3-6.4-0.6-11.6C65.2,143.9,64.8,137.6,64.4,130.9z"/>
<path d="M147.5,26.2c-0.1-2.3-0.2-5.1-0.4-7.9c-0.2-2.8-0.3-5.6-0.5-8.1c-0.2-2.5-0.4-4.6-0.5-6c-0.1-0.5-0.2-0.9-0.3-1.3
	s-0.4-0.7-0.6-1s-0.6-0.5-1-0.7s-0.9-0.2-1.5-0.2C137,1,131.5,1.1,126,1.2s-10.9,0.2-16.4,0.3c-5.5,0.1-11.1,0.2-16.9,0.2
	S81,1.8,74.8,1.6c0.5,5.4,1,11.1,1.4,17c0.4,5.9,0.7,12,1,18.1c0.3,6.1,0.5,12.2,0.6,18.1c0.1,6,0.2,22.6,0.2,22.6v5.3V88v5.3
	c0,6.1-0.1,12.3-0.2,18.5c-0.1,6.2-0.4,12.3-0.6,18.2c-0.3,5.9-0.6,11.5-1,16.7c-0.4,5.2-0.9,9.9-1.4,14.1c3.7-0.1,7.5-0.1,11.4-0.1
	c3.9,0,7.8,0,11.5,0c3.8,0,7.4,0.1,10.7,0.1c3.3,0.1,6.3,0.1,8.9,0.3c0.3,0,0.6-0.3,0.8-0.8c0.2-0.5,0.3-1.2,0.3-1.9
	c0-0.7-0.1-1.4-0.3-1.9c-0.2-0.5-0.5-0.9-0.9-1c-1.8-0.2-3.4-0.6-4.8-1.2c-1.4-0.6-2.6-1.3-3.6-2.1s-1.8-1.8-2.4-3
	c-0.6-1.1-0.9-2.3-1-3.7c-0.2-2.6-0.4-5.7-0.5-9.4s-0.2-7.9-0.2-12.5c0-4.6,0-9.7,0-15.1c0-5.4,0-11.2,0-17.2V86v-5.2v-5.2v-5.2
	c0-2.6,0-6.9-0.1-12c-0.1-5.1-0.1-11-0.1-17s0-11.9,0-17c0.1-5.1,0.2-9.4,0.4-12c0.1-0.7,0.3-1.4,0.6-2s0.8-1.2,1.3-1.6
	c0.6-0.5,1.2-0.8,1.9-1.1c0.7-0.3,1.5-0.4,2.4-0.4h0.8h0.8h0.8h0.8c4.2,0,7.8,0.9,10.9,2.3s5.6,3.5,7.7,5.9s3.8,5.1,5.3,7.9
	c1.4,2.8,2.5,5.6,3.5,8.2c0.1,0.4,0.5,0.7,1.1,0.8c0.6,0.2,1.3,0.2,2,0.2c0.7,0,1.4-0.2,1.9-0.4c0.5-0.2,0.8-0.5,0.8-0.9
	C147.6,30.5,147.6,28.5,147.5,26.2z"/>
</svg>
