<?xml version="1.0" encoding="utf-8"?>
<!-- Generator: Adobe Illustrator 22.1.0, SVG Export Plug-In . SVG Version: 6.00 Build 0)  -->
<svg version="1.1" id="レイヤー_1" xmlns="http://www.w3.org/2000/svg" xmlns:xlink="http://www.w3.org/1999/xlink" x="0px"
	 y="0px" viewBox="0 0 160 160" style="enable-background:new 0 0 160 160;" xml:space="preserve">
<path d="M152,10.2c0.4-0.5,0.8-0.9,1.2-1.3c0.3-0.3,0.6-0.6,0.8-0.8c0.5-0.5,0.9-0.9,1.3-1.2c0.5-0.4,1-0.8,1.5-1.1
	c-0.4-0.6-0.7-1-1.1-1.2c-0.4-0.2-0.8-0.3-1.1-0.3c-0.5,0-1,0.2-1.5,0.4c-0.5,0.3-1.1,0.8-1.5,1.3c-0.5,0.6-0.9,1.2-1.3,1.8
	c-0.4,0.6-0.7,1.1-0.9,1.6c0.5,0,1,0,1.4,0.1C151.4,9.7,151.7,9.9,152,10.2z"/>
<path d="M121.8,55l0.5,0.5l0.5,0.5l0.6,0.5l0.6,0.5l0.6-1.2l0.6-1.2l0.4-0.8l0.4-0.8c-0.5-0.3-1-0.5-1.5-0.4c-0.5,0.1-1,0.3-1.4,0.7
	c-0.2,0.2-0.4,0.5-0.6,0.8S122,54.6,121.8,55z"/>
<path d="M160,11.4c-0.2-1.2-1.9-1.5-3.4-0.5c-7.3,6.1-14.1,14.8-18.5,20.2l-1.7-0.5c3.9-6.3,10-14.3,13.6-18.5l-0.7-0.2
	c-2.4-0.7-6.1,3.2-8.5,6.1c-0.7-4.1,3.9-8.3,6.6-10.5c-4.4-3.6-7.3,2.9-10.5,2.7c-3.2,4.4-18.5,20.4-27.7,28c-1.9,0.7-3.4,0-2.4-1
	c9.7-8.8,20.2-20.2,22.9-23.8c-1-2.2-4.6-2.7-6.6-0.5l-9.5,10.2c-12.4-1.2-9.7,8.3-19.9,7.8c-19.4,26-39.1,49.8-63.2,71.7l-3.9-10.7
	c0.6-1.9,1.1-3.8,1.7-5.8l-3.1-0.8l-0.5,3.9c-1.7,0-2.4-1.9-2.2-3.9h2.7l3.1,0.8c0.2-0.8,0.4-1.7,0.6-2.5h-3.2l-2.7-1l1-4.4
	c3.6,0,1.7,3.2,1.7,5.4h3.2c1.1-4.5,2.1-9.2,2.8-13.9l2.7-0.5c0.7-7-4.4-13.4-1.5-21.6c-1-20.4-8.7-38.4-27.5-45.9
	c-5.6,4.4-0.2,13.9-0.5,19.4c-1,14.3-5.3,94.1-4.9,107.9c0.2,10,7.3,16.8,11.4,24.1l15.1,5.1C49.3,133.5,78,106,97.8,81.9v-5
	l-1.5-2.9l3.7-5.4c1.7,1,1.9,3.9-2.2,8.3v5c3.5-4.2,6.7-8.4,9.5-12.3c1.5-2,2.7-4.6,4.1-6.3v-4.8c-1,0-2.4-0.2-3.9-1.5l8-4.6
	c-0.2,3.2-1.7,5.8-4.1,6.1v4.8c1-1.1,2-1.9,3.4-1.9c4.4-0.2,1.7-12.4,11.7-11.2c3.4-2.2,6.5-5.2,9.5-8.7v-7.1
	c-0.7,1.5-2.9,4.9-6.3,7.5c-3.2,2.4-4.1-1.2-1.2-2.7l5.1-5.1c0.2-0.5,1,1,2.4,0.2v7.1C144.1,31.7,151.1,18.8,160,11.4z"/>
</svg>
