<?xml version="1.0" encoding="utf-8"?>
<!-- Generator: Adobe Illustrator 22.1.0, SVG Export Plug-In . SVG Version: 6.00 Build 0)  -->
<svg version="1.1" id="レイヤー_1" xmlns="http://www.w3.org/2000/svg" xmlns:xlink="http://www.w3.org/1999/xlink" x="0px"
	 y="0px" viewBox="0 0 218 320" style="enable-background:new 0 0 218 320;" xml:space="preserve">
<path d="M160.5,155.3c27.5-9.9,47.4-35.2,47.4-69.1c0-50.1-36.1-86.2-97.5-86.2H0.2v90.7h53.7V46h47.8c33,0,51.9,17.6,51.9,44.7
	c0,26.6-19,44.7-50.6,44.7H53.9V90.7H0.2v136.8h53.7V181h56.9c33.4,0,51.9,19.4,51.9,46.9c0,28.4-21.2,46-53.7,46H53.9v-46.5H0.2
	V320h118.2c59.6,0,99.3-37,99.3-88.5C217.8,193.6,194.3,164.3,160.5,155.3z"/>
</svg>
