<?xml version="1.0" encoding="utf-8"?>
<!-- Generator: Adobe Illustrator 22.1.0, SVG Export Plug-In . SVG Version: 6.00 Build 0)  -->
<svg version="1.1" id="レイヤー_1" xmlns="http://www.w3.org/2000/svg" xmlns:xlink="http://www.w3.org/1999/xlink" x="0px"
	 y="0px" viewBox="0 0 160 160" style="enable-background:new 0 0 160 160;" xml:space="preserve">
<path d="M116.2,160.1c-1.8,0-3.8,0-6.1-0.1c-2.3-0.1-4.9-0.2-7.8-0.3s-6.1-0.2-9.6-0.3c-3.5-0.1-7.4-0.1-11.6-0.1
	c-4.3,0-8.4,0-12.2,0.1c-3.8,0.1-7.3,0.2-10.6,0.3c-3.2,0.1-6.1,0.2-8.6,0.3c-2.5,0.1-4.6,0.1-6.3,0.1c-0.3-0.2-0.5-0.7-0.6-1.4
	c-0.1-0.7-0.2-1.5-0.2-2.3s0.1-1.7,0.2-2.4c0.1-0.7,0.3-1.3,0.6-1.5c1.5-0.1,3-0.3,4.4-0.4c1.4-0.1,2.8-0.3,4.2-0.4
	c1.3-0.1,2.6-0.3,3.9-0.5s2.4-0.3,3.5-0.5c2-0.4,3.6-0.9,4.9-1.7c1.3-0.7,2.2-1.7,2.9-2.9s1.2-2.5,1.4-4.2c0.3-1.6,0.4-3.5,0.4-5.7
	c0.1-3,0.2-6.6,0.3-10.7c0.1-4.1,0.2-8.7,0.2-13.6c0.1-4.9,0.1-10.1,0.1-15.6c0-5.4,0-11,0-16.6c0-6.2,0-12.3-0.1-17.9
	S69.7,51,69.6,46.4c-0.1-4.6-0.2-8.6-0.3-11.8c-0.1-3.1-0.2-5.5-0.2-6.7c-0.1-0.9-0.3-1.8-0.6-2.7c-0.3-0.9-0.6-1.7-1.1-2.4
	c-0.5-0.7-1.2-1.3-2-1.8c-0.9-0.5-2-0.8-3.4-0.9c-0.8-0.1-1.8-0.1-2.9-0.2s-2.4-0.2-3.8-0.3c-1.4-0.1-2.8-0.2-4.2-0.2
	c-1.4-0.1-2.9-0.1-4.3-0.1c-0.2-0.3-0.3-0.8-0.4-1.4s0-1.4,0-2.2c0.1-0.8,0.2-1.5,0.3-2.1s0.3-1,0.5-1.1c3.4-0.4,7.1-1,11-1.9
	c3.8-0.8,7.8-1.9,11.6-3S77.4,5.3,80.7,4c3.3-1.3,6.1-2.6,8.3-3.8c0.3-0.1,0.6-0.1,0.9-0.1s0.7,0.1,1.1,0.2s0.7,0.2,0.9,0.4
	s0.4,0.3,0.5,0.5c-0.3,2-0.5,4-0.6,6.5c-0.2,2.5-0.3,5.6-0.4,9.9c-0.1,4.3-0.2,9.9-0.2,17.4s-0.1,17-0.1,29c0,3.5,0,9,0,15.6
	c0,6.5,0.1,14.1,0.1,21.5c0.1,7.4,0.1,14.7,0.2,20.8c0.1,6.1,0.2,10.9,0.3,13.4c0.1,2.2,0.3,4.2,0.7,5.9c0.3,1.7,0.8,3.2,1.4,4.4
	c0.7,1.2,1.5,2.3,2.6,3.1c1.1,0.8,2.5,1.4,4.2,1.8c1.2,0.3,2.3,0.5,3.5,0.7c1.2,0.2,2.4,0.4,3.7,0.5c1.3,0.2,2.7,0.3,4.2,0.5
	c1.5,0.2,3.2,0.4,5.1,0.7c0.1,0.2,0.2,0.7,0.2,1.4c0,0.7,0,1.5-0.1,2.3c-0.1,0.8-0.2,1.6-0.4,2.3C116.7,159.4,116.5,160,116.2,160.1
	z"/>
</svg>
