<?xml version="1.0" encoding="utf-8"?>
<!-- Generator: Adobe Illustrator 22.1.0, SVG Export Plug-In . SVG Version: 6.00 Build 0)  -->
<svg version="1.1" id="レイヤー_1" xmlns="http://www.w3.org/2000/svg" xmlns:xlink="http://www.w3.org/1999/xlink" x="0px"
	 y="0px" viewBox="0 0 160 160" style="enable-background:new 0 0 160 160;" xml:space="preserve">
<path d="M136.1,138.5c-4.6-1.7-8.9-3.8-13-6.2c-4.1-2.5-8-5.3-11.9-8.5c-3.9-3.2-7.9-6.7-12-10.5c2.3-3.5,4.4-7.2,6.3-11.2
	s3.5-8.2,4.8-12.6s2.4-9.1,3.1-13.9c0.7-4.8,1.1-9.8,1.1-14.9c0-10.5-1.6-19.6-4.4-27.2c-2.9-7.6-7-13.8-12-18.8S86.9,6.2,80.3,3.8
	c-6.6-2.4-13.8-3.5-21.3-3.5c-7.2,0-13.9,1.1-19.8,3.2s-11.2,5.1-15.6,9c-4.4,3.9-7.9,8.6-10.2,14c-2.4,5.4-3.7,11.5-3.7,18.1
	c0,6.7,1.4,12.3,3.8,17.1c2.4,4.8,5.9,8.7,10,11.8c4.1,3.1,8.9,5.3,14.1,6.8c5.1,1.5,10.5,2.2,15.9,2.3l4-13.4
	c-1.5-0.3-3-0.7-4.4-1.1c-2.3-0.7-4.4-1.4-6.4-2.3c-3.1-1.4-5.8-3-7.9-5s-3.8-4.3-4.9-7s-1.7-5.9-1.7-9.5c0-3.8,0.7-7.3,2.1-10.3
	c1.3-3,3.2-5.6,5.6-7.8c2.4-2.1,5.2-3.8,8.3-4.9c3.1-1.1,6.6-1.7,10.2-1.7c5.9,0,10.9,1.2,15,3.4c4.1,2.2,7.4,5.4,9.9,9.4
	c2.5,4,4.3,8.7,5.5,14c1.2,5.3,1.7,11.2,1.7,17.4c0,3.1-0.3,6.4-0.7,9.8c-0.5,3.4-1.1,6.9-2,10.3c-0.9,3.4-1.9,6.7-3.1,9.7
	c-1.2,3-2.5,5.8-3.9,8.2c-2.6-1.5-5.3-2.9-8-4.1s-5.6-2.3-8.5-3.1c-2.9-0.9-5.8-1.5-8.8-2s-6-0.7-9.1-0.7c-4.8,0-9.2,0.6-13.2,1.9
	c-4,1.2-7.5,3-10.5,5.3c-2.9,2.3-5.3,5.1-6.9,8.4c-1.5,3.1-2.4,6.6-2.5,10.4h21c0-1.7,0.3-3.1,1-4.4s1.6-2.3,2.8-3.1
	c1.2-0.8,2.7-1.4,4.3-1.9c1.7-0.4,3.6-0.6,5.7-0.6c1.5,0,3.2,0.2,5,0.5c1.8,0.3,3.7,0.8,5.6,1.5c2,0.7,4,1.5,6,2.6s4.1,2.3,6.2,3.7
	c-1.5,1.6-3.2,3.2-5,4.6c-1.8,1.4-3.7,2.7-5.8,3.7c-2,1.1-4.2,1.9-6.4,2.5c-2.2,0.6-4.6,0.9-6.9,0.9c-2.3,0-4.3-0.3-5.9-0.9
	c-1.6-0.6-2.9-1.4-3.8-2.3c-1-0.9-1.6-2-2.1-3.2c-0.4-1.2-0.6-2.4-0.6-3.6h-21c0,0.2,0,0.4,0,0.6c0,3.1,0.5,6.3,1.7,9.3
	s2.9,5.9,5.5,8.4s5.9,4.6,10.1,6.1c4.2,1.5,9.3,2.3,15.4,2.3c3.7,0,7.3-0.4,10.9-1.2c3.6-0.8,7.1-1.9,10.5-3.3
	c3.4-1.5,6.7-3.3,9.9-5.4s6.3-4.5,9.3-7.2c4.6,4.3,9.2,8.3,13.9,11.9c4.7,3.6,9.5,6.9,14.4,9.7s10,5.2,15.3,7.1
	c5.3,1.9,10.8,3.3,16.6,4.1l1.1-4.5l1.1-4.5l1.1-4.5l1.1-4.5C145.8,141.5,140.8,140.2,136.1,138.5z"/>
</svg>
