<?xml version="1.0" encoding="utf-8"?>
<!-- Generator: Adobe Illustrator 22.1.0, SVG Export Plug-In . SVG Version: 6.00 Build 0)  -->
<svg version="1.1" id="レイヤー_1" xmlns="http://www.w3.org/2000/svg" xmlns:xlink="http://www.w3.org/1999/xlink" x="0px"
	 y="0px" viewBox="0 0 160 160" style="enable-background:new 0 0 160 160;" xml:space="preserve">
<path d="M16.9,5H8.3V0.7h66.1V5h-9.3l34.8,103.2h0.5l28.2-81.4c1.4-4.5,2.3-10.5,2.3-13.2c0-2.3-0.5-4.1-1.4-5.4
	c-0.9-1.3-2.3-2.1-4.1-2.6c-1.7-0.5-3.7-0.6-6.1-0.6h-2.3V0.7h35.7V5H152c0,0-6.1,0.6-6.7,0.9c-0.5,0.3-1.1,0.6-1.5,0.9
	c-0.9,0.7-1.8,1.6-2.6,2.6c-2,2.7-3.4,6.2-4.7,9.9L87.6,160.7H71.7L16.9,5z"/>
</svg>
