<?xml version="1.0" encoding="utf-8"?>
<!-- Generator: Adobe Illustrator 22.1.0, SVG Export Plug-In . SVG Version: 6.00 Build 0)  -->
<svg version="1.1" id="レイヤー_1" xmlns="http://www.w3.org/2000/svg" xmlns:xlink="http://www.w3.org/1999/xlink" x="0px"
	 y="0px" viewBox="0 0 160 160" style="enable-background:new 0 0 160 160;" xml:space="preserve">
<path d="M81.9,22c-0.7,0-1.2,0.5-1.4,1.4l-8,45.4c-0.2,0.9,0.2,1.4,0.9,1.4H108c1.4,0,2.1,0.9,1.9,2.4l-3.1,16.7
	c-0.2,1.4-1.2,2.4-2.6,2.4H69.7c-0.7,0-1.4,0.5-1.4,1.4l-11.5,65.2c-0.2,1.4-1.2,2.4-2.6,2.4H35.1c-1.2,0-2.1-0.9-1.9-2.4L60.5,3
	c0.2-1.4,1.2-2.4,2.6-2.4h62.6c1.4,0,2.4,0.9,2.1,2.4l-3.1,16.7c-0.2,1.4-1.4,2.4-2.8,2.4H81.9z"/>
</svg>
