<?xml version="1.0" encoding="utf-8"?>
<!-- Generator: Adobe Illustrator 22.1.0, SVG Export Plug-In . SVG Version: 6.00 Build 0)  -->
<svg version="1.1" id="レイヤー_1" xmlns="http://www.w3.org/2000/svg" xmlns:xlink="http://www.w3.org/1999/xlink" x="0px"
	 y="0px" viewBox="0 0 160 160" style="enable-background:new 0 0 160 160;" xml:space="preserve">
<path d="M65.1,85.4c19.2,0,34.8,0.7,46.6,2.2V64.1H73.6c13.3-10.5,26.8-22.4,40.5-35.7c1.7-8,3.7-14.8,5.9-20.3
	c-7.4-2-15.2-3.6-23.5-4.9c-8.3-1.3-16.2-2.1-23.9-2.3c-5.3,3.3-10.7,7.3-16.2,11.8c-5.5,4.6-10.8,9.5-15.8,14.8v36.6h24.4V20.5
	c6.8,0.2,13.7,0.9,20.9,1.9c7.1,1,13.6,2.4,19.2,4.2C93,39.5,79.6,52.1,65.1,64.1H40.6v86.8c20,6.5,39.5,9.9,58.5,10
	c6.8-5.4,13-11.3,18.7-17.8c-17.5-2-35.1-5.4-52.7-10.2V85.4z"/>
</svg>
