<?xml version="1.0" encoding="utf-8"?>
<!-- Generator: Adobe Illustrator 22.1.0, SVG Export Plug-In . SVG Version: 6.00 Build 0)  -->
<svg version="1.1" id="レイヤー_1" xmlns="http://www.w3.org/2000/svg" xmlns:xlink="http://www.w3.org/1999/xlink" x="0px"
	 y="0px" viewBox="0 0 160 160" style="enable-background:new 0 0 160 160;" xml:space="preserve">
<path d="M142.5,82.8c-1.4,2.3-2.9,4.6-4.6,6.8c-1.8,2.2-3.7,4.3-5.9,6.1c-2.1,1.8-4.5,3.3-7,4.3c-2.5,1.1-5.2,1.7-8.1,1.7
	c-4.5,0-8.7-0.9-12.3-2.6s-6.8-4-9.4-6.9s-4.7-6.3-6.1-10.2c-1.4-3.8-2.1-8-2.1-12.3c0-4.5,1.3-8.6,3.4-12.4c2-3.8,4.8-7.3,7.5-10.6
	c2.7-3.4,5.4-6.6,7.5-9.9c2.1-3.3,3.4-6.5,3.4-10c0-3.8-0.9-7.2-2.5-10.1s-3.8-5.2-6.4-7.1s-5.8-3.3-9.2-4.3s-7-1.4-10.5-1.4
	s-7.2,0.3-10.8,1c-3.5,0.7-6.9,1.8-9.8,3.5s-5.4,3.8-7.2,6.6s-2.7,6.2-2.7,10.5c0,4.5,1.8,8.4,4.4,12.2c2.6,3.8,6.1,7.4,9.6,11
	c3.5,3.7,7,7.3,9.6,11.4s4.4,8.3,4.4,13.2c0,3.6-0.4,6.6-1.3,9.4c-0.9,2.7-2.4,5.2-4.7,7.6c-2.2,2.5-5.3,5-9.3,7.9
	c-4,2.9-9,6.1-15.1,9.9v0.1v0.1v0.1v0.1c0.5-0.1,1-0.2,1.5-0.3c0.5-0.1,1-0.2,1.6-0.3s1.1-0.2,1.7-0.2c0.5-0.1,1.1-0.1,1.6-0.1
	c3.1,0,6.5,0.8,10.1,2.2c3.6,1.4,7.3,3.3,10.9,5.4c3.6,2.1,7.1,4.4,10.4,6.7s6.2,4.5,8.7,6.3c1.6,1.2,3.2,2.3,4.7,3.3
	s3.2,1.9,4.9,2.6s3.4,1.3,5.2,1.7s3.7,0.5,5.8,0.5c3.1,0,5.8-0.6,8.1-1.6c2.3-1,4.3-2.6,5.9-4.5c1.6-1.9,2.9-4.2,3.9-6.7
	c1-2.5,1.6-5.2,2-8.2h0.8h0.8h0.8h0.8c-0.6,6.2-2,12.2-4.3,17.5c-2.3,5.3-5.4,10.1-9.2,14.1s-8.4,7.2-13.6,9.4
	c-5.2,2.2-11,3.4-17.4,3.4c-7.7,0-14.3-2.1-20.3-5.1s-11.2-7.1-16-11.2c-4.8-4.1-9.2-8.2-13.3-11.2s-8.1-5.1-12.2-5.1
	c-1.7,0-3.1,0.6-4.3,1.5c-1.2,0.9-2.1,2.3-2.9,3.8s-1.3,3.3-1.8,5.1c-0.4,1.8-0.7,3.7-0.9,5.4h-1h-1h-1h-1c0.1-4.1,0.9-8,2.2-11.5
	c1.3-3.6,3.1-6.9,5.4-10c2.2-3,4.9-5.8,7.9-8.2c3-2.4,6.2-4.6,9.7-6.4c1.3-0.7,2.7-1.4,3.9-2.2c1.2-0.8,2.3-1.7,3.2-2.6
	s1.7-1.9,2.2-2.9c0.5-1,0.8-2.2,0.8-3.4c0-0.9-0.2-1.8-0.7-2.7c-0.5-0.9-1.2-2-2.3-3.3c-1.1-1.3-2.5-2.8-4.4-4.7
	c-1.9-1.9-4.2-4.1-7-6.9c-2-1.9-4-4.1-5.9-6.4c-1.9-2.3-3.7-4.8-5.2-7.5c-1.6-2.7-2.8-5.5-3.7-8.6c-0.9-3-1.4-6.3-1.4-9.7
	c0-7.5,1.8-14.1,4.8-19.8s7.4-10.6,12.6-14.4s11.2-6.8,17.7-8.8S70.4,0,77.2,0c6.9,0,14.1,0.9,21,2.8s13.4,4.7,19,8.4
	s10.4,8.3,13.8,13.7s5.4,11.8,5.4,19c0,6.7-1.4,12.3-3.6,17c-2.2,4.8-5,8.7-7.9,12.2c-2.9,3.5-5.8,6.5-7.9,9.4
	c-2.1,2.9-3.6,5.6-3.6,8.5c0,0.8,0.2,1.6,0.6,2.2c0.4,0.7,0.9,1.3,1.5,1.8s1.3,0.9,2,1.1c0.7,0.2,1.5,0.4,2.2,0.4
	c2.3,0,4.4-0.5,6.3-1.3c1.9-0.8,3.6-2,5.2-3.4c1.6-1.4,3.1-3.1,4.5-4.9s2.7-3.8,3.9-5.7l0.7,0.4L141,82l0.8,0.4L142.5,82.8z"/>
</svg>
