<?xml version="1.0" encoding="utf-8"?>
<!-- Generator: Adobe Illustrator 22.1.0, SVG Export Plug-In . SVG Version: 6.00 Build 0)  -->
<svg version="1.1" id="レイヤー_1" xmlns="http://www.w3.org/2000/svg" xmlns:xlink="http://www.w3.org/1999/xlink" x="0px"
	 y="0px" viewBox="0 0 160 160" style="enable-background:new 0 0 160 160;" xml:space="preserve">
<path d="M151.5,46.8c-4.2-9.8-10.2-18.3-17.4-25.1S118.4,9.6,109.1,6C99.9,2.5,90,0.6,79.9,0.6C69.9,0.6,60,2.5,50.8,6
	c-9.2,3.6-17.7,8.8-24.9,15.7S12.7,37,8.5,46.8C4.3,56.7,2,67.9,2,80.5c0,12.6,2.4,23.9,6.5,33.8c2.6,6.1,5.8,11.6,9.6,16.5
	l18.6-18.6c-1.4-2.3-2.6-4.8-3.7-7.4c-2.8-6.9-4.4-15-4.4-24.3c0-9.3,1.6-17.3,4.4-24.3s6.8-12.7,11.6-17.3
	C49.4,34.3,55,30.8,61,28.5c6-2.3,12.4-3.5,18.9-3.5c6.5,0,13,1.2,19,3.5c6,2.3,11.7,5.8,16.5,10.4s8.8,10.4,11.6,17.3
	s4.4,15,4.4,24.3c0,9.3-1.6,17.3-4.4,24.3c-2.8,6.9-6.8,12.7-11.6,17.3s-10.4,8.1-16.5,10.4c-6,2.3-12.5,3.5-19,3.5
	c-6.4,0-12.9-1.2-18.9-3.5s-11.6-5.8-16.4-10.4c-3-2.9-5.6-6.2-7.9-9.9l-18.6,18.6c2.4,3.1,5,6,7.8,8.7c7.2,6.9,15.7,12.1,24.9,15.7
	c9.2,3.6,19.1,5.4,29.2,5.4c10.1,0,20-1.9,29.2-5.4c9.2-3.6,17.7-8.9,25-15.7s13.2-15.3,17.4-25.2c4.2-9.9,6.5-21.2,6.5-33.8
	C158.1,67.9,155.7,56.7,151.5,46.8z"/>
<path d="M8.5,114.4c4.2,9.8,10.2,18.3,17.4,25.1s15.8,12.1,25,15.7c9.2,3.6,19.1,5.4,29.2,5.4c10.1,0,20-1.9,29.2-5.4
	c9.2-3.6,17.7-8.8,24.9-15.7s13.2-15.3,17.4-25.1c4.2-9.8,6.5-21.1,6.5-33.7c0-12.6-2.4-23.9-6.5-33.8c-2.6-6.1-5.8-11.6-9.6-16.5
	L123.4,49c1.4,2.3,2.6,4.8,3.7,7.4c2.8,6.9,4.4,15,4.4,24.3c0,9.3-1.6,17.3-4.4,24.3s-6.8,12.7-11.6,17.3
	c-4.8,4.6-10.4,8.1-16.4,10.4c-6,2.3-12.4,3.5-18.9,3.5c-6.5,0-13-1.2-19-3.5c-6-2.3-11.7-5.8-16.5-10.4S35.8,111.9,33,105
	s-4.4-15-4.4-24.3c0-9.3,1.6-17.3,4.4-24.3c2.8-6.9,6.8-12.7,11.6-17.3S55.1,31,61.1,28.7c6-2.3,12.5-3.5,19-3.5
	c6.4,0,12.9,1.2,18.9,3.5s11.6,5.8,16.4,10.4c3,2.9,5.6,6.2,7.9,9.9L142,30.4c-2.4-3.1-5-6-7.8-8.7C127,14.9,118.5,9.6,109.3,6
	c-9.2-3.6-19.1-5.4-29.2-5.4c-10.1,0-20,1.9-29.2,5.4c-9.2,3.6-17.7,8.9-25,15.7S12.7,37,8.5,46.9C4.4,56.8,2,68.1,2,80.7
	C2,93.3,4.4,104.5,8.5,114.4z"/>
</svg>
