<?xml version="1.0" encoding="utf-8"?>
<!-- Generator: Adobe Illustrator 22.1.0, SVG Export Plug-In . SVG Version: 6.00 Build 0)  -->
<svg version="1.1" id="レイヤー_1" xmlns="http://www.w3.org/2000/svg" xmlns:xlink="http://www.w3.org/1999/xlink" x="0px"
	 y="0px" viewBox="0 0 160 160" style="enable-background:new 0 0 160 160;" xml:space="preserve">
<path d="M93.1,2.8c8.6,1.3,18.1,3.4,28.6,6.2l-8,22.8c-9-2.8-17.4-5-25.1-6.6c-7.7-1.5-15.2-2.6-22.5-3.1c-1,16-1.5,31.1-1.5,45.1
	c6.7,4.2,13.9,7.9,21.6,11.1L105,61.9c9.4,4.2,18,8.9,25.9,14.2V133c-10,11.7-20.9,21-32.7,27.9c-11.1,0-22.4-1.2-33.8-3.5
	c-11.4-2.3-23.3-6-35.6-11.1l19.6-21.1c9,4.3,18.2,7.8,27.7,10.5c9.5,2.7,19.6,4.8,30.3,6.3V90.8c-5.5-3.3-12.1-6.6-19.6-9.8
	c-6.3,6.3-12,11.2-17,14.8c-5.3-1.5-10.5-3.4-15.5-5.6c-5.1-2.3-9.7-4.8-14.1-7.7c0-15.5,0.2-28.1,0.7-37.6
	c0.4-9.6,1.1-17.4,1.9-23.6C49,15.1,57,8.3,66.7,0.9C75.7,0.9,84.5,1.5,93.1,2.8z"/>
</svg>
