<?xml version="1.0" encoding="utf-8"?>
<!-- Generator: Adobe Illustrator 22.1.0, SVG Export Plug-In . SVG Version: 6.00 Build 0)  -->
<svg version="1.1" id="レイヤー_1" xmlns="http://www.w3.org/2000/svg" xmlns:xlink="http://www.w3.org/1999/xlink" x="0px"
	 y="0px" viewBox="0 0 160 160" style="enable-background:new 0 0 160 160;" xml:space="preserve">
<path d="M159.9,34.1c0-9-6.4-14.5-17.1-14.5c-21.8,0-38.4,28.1-56,56.6c-27-0.4-40-11.2-40-25c0-11.8,11.9-19.1,20.5-19.1
	c6.4,0,10.3,2,10.7,2c0.5,0,1.2-0.7,1.2-1.5c0-0.7-4.6-3.2-12.3-3.2c-10.6,0-24.9,7.5-24.9,22.5c0,14.6,14.7,27.8,42.4,28.4
	c-6.3,10.4-12.9,20.6-19.8,29.5C51.8,103.8,39.1,98.9,27,98.9c-13.4,0-27.2,8.4-27.2,22c0,12.7,10.4,19.8,22.9,19.8
	c3.6,0,7-0.5,10.3-1.4V135c-3.2,1-6.6,1.5-10,1.5c-9.6,0-18.7-6.4-18.7-15.7c0-10.7,11.6-17.9,22-17.9c11.1,0,23.3,4.6,35.6,10.3
	c-8.7,10.5-18.2,18.6-28.8,21.8v4.3c12.4-3.3,23.2-12.4,33.1-24.1c19.1,9.2,38,20.5,53.2,20.5c11,0,18.3-10,18.3-11
	c0-0.4-0.8-1.2-1.2-1.2c-1.1,0-6.7,7.6-16.6,7.6c-14.7,0-32.7-10.3-51-19.3c7.6-9.6,14.7-20.8,21.4-31.7c12.2-0.5,23.8-3.4,33.9-7.7
	v-4.2c-9.4,4.4-20.3,7.3-31.3,7.9c16.6-27.2,32.1-52.6,51.4-52.6c6.4,0,11.2,4,11.2,9.6c0,13-13.1,26.7-31.3,35.1v4.2
	C145.2,63.5,159.9,48.1,159.9,34.1z"/>
</svg>
