<?xml version="1.0" encoding="utf-8"?>
<!-- Generator: Adobe Illustrator 22.1.0, SVG Export Plug-In . SVG Version: 6.00 Build 0)  -->
<svg version="1.1" id="レイヤー_1" xmlns="http://www.w3.org/2000/svg" xmlns:xlink="http://www.w3.org/1999/xlink" x="0px"
	 y="0px" viewBox="0 0 160 160" style="enable-background:new 0 0 160 160;" xml:space="preserve">
<g>
	<g>
		<path d="M6.7,80.7c0-6.3,0.6-12.2,1.7-17.8s2.7-10.9,4.8-15.8s4.6-9.5,7.5-13.7s6.2-8,9.8-11.5s7.5-6.5,11.6-9.1s8.5-4.9,13.1-6.7
			S64.4,2.9,69.3,2S79,0.6,84,0.6c4.9,0,9.5,0.4,13.9,1s8.5,1.7,12.4,3c3.9,1.3,7.5,2.9,10.9,4.7s6.5,3.9,9.4,6.2
			c2.9,2.3,5.5,4.8,7.9,7.4c2.4,2.7,4.5,5.5,6.4,8.4c1.9,3,3.5,6.1,4.9,9.3c1.4,3.2,2.5,6.5,3.4,9.8l-3.1,1l-3.1,1l-3.1,1l-3.1,1
			l-3.1,1l-3.1,1l-3.1,1l-3.1,1c-0.6-2.3-1.3-4.6-2.2-6.8c-0.9-2.2-1.9-4.3-3.1-6.3c-1.2-2-2.5-3.9-4.1-5.7s-3.2-3.4-5-5
			c-1.8-1.5-3.8-2.9-6-4.1c-2.2-1.2-4.5-2.2-7-3.1c-2.5-0.8-5.2-1.5-8.1-1.9c-2.9-0.4-5.9-0.7-9.1-0.7c-3.2,0-6.3,0.3-9.4,0.9
			c-3.1,0.6-6.2,1.4-9.2,2.6c-3,1.2-5.8,2.6-8.6,4.3c-2.7,1.7-5.3,3.8-7.7,6.1c-2.4,2.3-4.6,4.9-6.5,7.8c-1.9,2.9-3.6,6.1-5,9.6
			c-1.4,3.5-2.5,7.3-3.2,11.3c-0.7,4.1-1.1,8.4-1.1,13.1c0,4.5,0.4,8.7,1.1,12.7s1.8,7.7,3.2,11.1c1.4,3.4,3,6.6,4.9,9.4
			c1.9,2.9,4.1,5.5,6.4,7.8c2.4,2.3,4.9,4.3,7.7,6.1c2.7,1.7,5.6,3.2,8.6,4.4c3,1.2,6.1,2.1,9.3,2.6c3.2,0.6,6.4,0.9,9.7,0.9
			c3.2,0,6.3-0.3,9.1-0.7s5.6-1.2,8.1-2.1s4.9-2,7.1-3.3s4.3-2.7,6.1-4.3s3.6-3.3,5.2-5.1c1.6-1.8,3-3.7,4.2-5.7s2.4-4.1,3.3-6.2
			c1-2.1,1.7-4.3,2.4-6.4l3,1l3,1l3,1l3,1l3,1l3,1l3,1l3,1c-0.9,3.2-2,6.5-3.4,9.6s-3,6.3-4.9,9.3s-4,5.9-6.4,8.6s-5,5.3-8,7.7
			c-2.9,2.4-6.1,4.5-9.5,6.4s-7.1,3.6-11,5s-8.1,2.4-12.5,3.2c-4.4,0.7-9.1,1.1-14,1.1c-5.2,0-10.3-0.5-15.2-1.4
			c-4.9-0.9-9.8-2.3-14.4-4.1c-4.6-1.8-9-4-13.1-6.6s-8-5.7-11.6-9.1c-3.6-3.4-6.8-7.3-9.6-11.4s-5.3-8.8-7.3-13.7
			c-2-4.9-3.6-10.2-4.7-15.8C7.3,92.9,6.7,87,6.7,80.7z"/>
	</g>
</g>
</svg>
