<?xml version="1.0" encoding="utf-8"?>
<!-- Generator: Adobe Illustrator 22.1.0, SVG Export Plug-In . SVG Version: 6.00 Build 0)  -->
<svg version="1.1" id="レイヤー_1" xmlns="http://www.w3.org/2000/svg" xmlns:xlink="http://www.w3.org/1999/xlink" x="0px"
	 y="0px" viewBox="0 0 160 160" style="enable-background:new 0 0 160 160;" xml:space="preserve">
<g>
	<path d="M46.4,64.5c0-27.6,3-56.1,4.6-64.2C41.8,0.5,33.7,0.5,25.6,0c-1.2,0-1.4,5.3,0,5.6c5.6,0.7,13,2.5,13.4,8.3
		c0.7,9.3,1.4,27.8,1.4,50.1v33.9c0,21.3-0.2,38.3-1.2,47.8c-0.5,5.8-6.5,7.9-11.8,8.3c-1.4,0.2-1.2,5.8,0,5.6
		c6.7-0.7,15.3-0.5,23.9-0.2c-2.6-15.3-4.9-42.9-4.9-64.2V64.5z"/>
	<path d="M129,129.7c-3.7,10.7-9,23.9-25.7,23.9h-8.6c-3.5,0-4.6-2.8-5.1-7.9c-0.5-6.7-1.2-27.4-1.2-53.6V64
		c0-22.3,0.7-40.8,1.4-50.1c0.5-5.8,9-7.7,14.6-8.3c1.4-0.2,1.2-5.6,0-5.6c-8.1,0.5-28.3,0.5-47.1,0.2c2.5,15.3,4.4,47.3,4.4,64.2
		v23.2c0,23.9-2.3,61.2-3.9,71.7c52.2-0.2,59.4,0.7,71.7,0.7c2.3,0,3.2-0.9,3.5-3.2c1.2-7.2,2.1-20.9,2.1-26.2
		C135,128.3,129.4,128,129,129.7z"/>
</g>
</svg>
