<?xml version="1.0" encoding="utf-8"?>
<!-- Generator: Adobe Illustrator 22.1.0, SVG Export Plug-In . SVG Version: 6.00 Build 0)  -->
<svg version="1.1" id="レイヤー_1" xmlns="http://www.w3.org/2000/svg" xmlns:xlink="http://www.w3.org/1999/xlink" x="0px"
	 y="0px" viewBox="0 0 160 160" style="enable-background:new 0 0 160 160;" xml:space="preserve">
<path d="M70.8,126.3c-3.2-1-6-2.3-8.5-4c-2.5-1.7-4.6-3.8-6.3-6.4c-1.6-2.5-2.8-5.3-3.7-8.5c-0.9-3.2-1.3-6.6-1.3-10.4V48.8V0.7h8.8
	h8.8v48.2V97c0,4.3,1.3,7.4,3.3,9.5c2,2,4.7,3,7.6,3c2.3,0,5.1-0.6,7.3-2.5c2.2-1.9,3.9-5,3.9-10V48.8V0.7h8.8h8.8v48.2V97
	c0,7.8-1.8,14.2-5.1,19.1c-3.4,4.9-8.3,8.3-14.7,10.2v17.2v17.2h-8.8h-8.8v-17.2V126.3z"/>
</svg>
