<?xml version="1.0" encoding="utf-8"?>
<!-- Generator: Adobe Illustrator 22.1.0, SVG Export Plug-In . SVG Version: 6.00 Build 0)  -->
<svg version="1.1" id="レイヤー_1" xmlns="http://www.w3.org/2000/svg" xmlns:xlink="http://www.w3.org/1999/xlink" x="0px"
	 y="0px" viewBox="0 0 160 160" style="enable-background:new 0 0 160 160;" xml:space="preserve">
<path d="M146.2,27.2c-1.4-3.2-3.6-4.8-6.4-4.8c-3,0-5.8,1-8.4,2.9c-2.6,1.9-5,4.8-7.2,8.6c-3.4,5.7-5.9,12-7.6,19S114,67.2,114,75.4
	c0,9,0.9,16.7,2.7,23.1c1.8,6.4,4.4,11.5,8,15.2l3.6-9c-1.6-3.3-2.8-7.3-3.6-11.9c-0.8-4.6-1.2-9.9-1.2-15.9c0-7.8,0.6-15,1.8-21.6
	c1.2-6.6,3-12.6,5.4-18c1.3-2.9,2.6-5.1,3.9-6.6c1.4-1.5,2.7-2.2,4.2-2.2s2.5,1,3.2,2.9c0.7,1.9,1.1,4.8,1.1,8.7c0,0.8,0,1.7,0,2.5
	s-0.1,1.7-0.1,2.6c-0.2,3.4-0.6,6.9-1.1,10.5s-1.2,7.2-1.9,10.9h2.7h2.7c1-4.9,1.7-9.5,2.2-13.7s0.7-7.9,0.7-11.3
	C148.3,35.2,147.6,30.4,146.2,27.2z"/>
<path d="M139.9,66.6c-0.2,1.2-0.5,2.5-0.8,3.8c-0.3,1.3-0.6,2.5-0.9,3.8c-0.4,1.8-0.9,3.6-1.4,5.4s-1,3.6-1.6,5.5
	c-0.6,1.8-1.1,3.6-1.7,5.4c-0.6,1.8-1.2,3.6-1.9,5.4c-0.5,1.5-1,2.9-1.6,4.4c-0.6,1.5-1.1,2.9-1.7,4.4l-1.8,4.5l-1.8,4.5
	c-1.4,3.1-2.8,6.1-4.3,8.9c-1.5,2.8-3,5.5-4.5,8s-3.1,4.8-4.7,7.1c-1.6,2.2-3.3,4.3-5,6.2c-1.7,1.9-3.4,3.6-5.2,5
	c-1.7,1.4-3.5,2.6-5.2,3.6c-1.8,0.9-3.5,1.7-5.3,2.2s-3.6,0.7-5.4,0.7c-1.1,0-2.1-0.1-3.1-0.2s-1.8-0.4-2.5-0.7
	c-0.8-0.3-1.4-0.7-2-1.1c-0.6-0.5-1.1-1-1.6-1.7c-0.4-0.6-0.8-1.3-1.1-2.2c-0.3-0.8-0.6-1.8-0.8-2.8s-0.3-2.2-0.4-3.5
	s-0.2-2.6-0.2-4s0.1-3.1,0.3-4.9c0.2-1.8,0.5-3.8,0.9-6c0.4-2.2,0.9-4.6,1.6-7.1c0.6-2.5,1.3-5.2,2.1-8.1c0.8-2.9,1.7-5.8,2.5-8.8
	c0.8-2.9,1.6-5.9,2.4-8.9s1.6-6.1,2.4-9.2s1.6-6.3,2.4-9.5s1.5-6.2,2.1-9.2c0.6-2.9,1.1-5.8,1.5-8.5c0.4-2.8,0.7-5.4,0.9-8
	c0.2-2.6,0.3-5,0.3-7.4c0-3.2-0.2-6.4-0.6-9.3c-0.4-3-1-5.8-1.7-8.4s-1.7-5.1-2.9-7.4S85,14,83.5,12s-3.3-3.7-5.2-5.2
	c-1.9-1.5-4-2.7-6.2-3.7s-4.7-1.8-7.2-2.2C62.3,0.2,59.5,0,56.6,0c-1.5,0-3,0.1-4.5,0.3c-1.5,0.2-2.9,0.5-4.4,0.8s-2.9,0.8-4.3,1.4
	s-2.8,1.2-4.2,1.9c-2.8,1.5-5.3,3.3-7.7,5.3S27,14,25,16.6s-3.8,5.4-5.4,8.5c-1.6,3.1-3,6.5-4.3,10.2c-0.7,2-1.2,3.9-1.7,5.7
	s-0.9,3.6-1.3,5.4s-0.6,3.5-0.8,5.1c-0.2,1.6-0.2,3.2-0.2,4.8s0.1,3.1,0.1,4.6c0.1,1.5,0.3,2.9,0.5,4.3s0.4,2.8,0.8,4.1
	s0.7,2.6,1.1,3.8c1,2.9,2.2,5.4,3.7,7.6c1.5,2.2,3.2,4,5.2,5.4c2,1.5,4.1,2.5,6.5,3.2c2.4,0.7,5,1.1,7.9,1.1c1.5,0,2.9-0.1,4.2-0.4
	c1.4-0.2,2.7-0.6,4-1c1.2-0.4,2.5-1,3.7-1.7s2.3-1.5,3.4-2.4c1.1-0.9,2.1-1.9,3.1-2.9c1-1,1.9-2.2,2.7-3.4c0.8-1.2,1.6-2.5,2.3-3.8
	c0.7-1.3,1.4-2.8,2-4.3c0-0.2,0.1-0.3,0.1-0.4c0-0.1,0-0.2,0-0.3c0-0.1,0-0.2-0.1-0.3c-0.1-0.1-0.2-0.2-0.3-0.3S62,69,61.8,69
	c-0.1-0.1-0.2-0.1-0.3-0.2c-0.2,0-0.3-0.1-0.4-0.1c-0.1,0-0.2,0-0.4,0s-0.3,0-0.4,0.1c-0.1,0.1-0.2,0.1-0.3,0.2
	c-0.1,0.1-0.2,0.1-0.3,0.2c-0.1,0.1-0.2,0.2-0.2,0.4c-1.2,2.8-2.7,5.2-4.2,7.2c-1.6,2.1-3.3,3.8-5.2,5.1c-1.8,1.4-3.9,2.4-6,3.1
	c-2.2,0.7-4.5,1-6.9,1c-0.8,0-1.5,0-2.2-0.1s-1.4-0.2-2-0.3s-1.3-0.3-2-0.5s-1.4-0.5-2-0.8c-2.1-1-4-2.3-5.6-4s-2.9-3.6-4-5.9
	c-1.1-2.3-1.9-4.9-2.4-7.9s-0.8-6.3-0.8-9.9c0-2.8,0.2-5.7,0.6-8.5c0.4-2.8,1-5.5,1.7-8.2c0.8-2.7,1.8-5.4,2.9-8s2.5-5.3,4.1-7.9
	c2-3.2,4.1-6.1,6.5-8.5s4.8-4.5,7.4-6.1c2.6-1.6,5.3-2.8,8.2-3.7s5.9-1.2,9.1-1.2c2,0,4,0.2,5.8,0.5c1.9,0.3,3.6,0.8,5.3,1.4
	c1.6,0.6,3.1,1.4,4.5,2.3s2.7,2,3.9,3.3c1.2,1.2,2.2,2.6,3.1,4.1s1.6,3.1,2.2,4.9c0.6,1.8,1.1,3.6,1.3,5.6c0.3,2,0.5,4.2,0.5,6.5
	c0,2.3-0.1,4.7-0.4,7.2c-0.2,2.5-0.6,5-1,7.7c-0.5,2.7-1,5.5-1.7,8.4c-0.7,2.9-1.5,5.9-2.4,9.1c-1,3.2-1.9,6.3-2.8,9.4
	c-0.9,3.1-1.9,6.2-2.8,9.4c-0.9,3.1-1.8,6.2-2.8,9.3c-0.9,3.1-1.8,6.2-2.8,9.3s-1.7,6.1-2.4,8.9c-0.7,2.9-1.3,5.6-1.7,8.3
	c-0.5,2.7-0.8,5.2-1,7.6c-0.2,2.4-0.4,4.7-0.4,6.9c0,4.2,0.5,8,1.5,11.2s2.5,5.9,4.6,8c2,2.1,4.5,3.8,7.6,4.8
	c3,1.1,6.6,1.6,10.6,1.6c1.9,0,3.9-0.2,5.8-0.8c2-0.5,3.9-1.2,5.8-2.2c1.9-1,3.8-2.2,5.7-3.7c1.9-1.5,3.8-3.2,5.7-5.2
	c1.9-1.9,3.7-4.1,5.5-6.4s3.5-4.7,5.2-7.3c1.7-2.6,3.3-5.4,5-8.3s3.2-5.9,4.7-9.2c0.8,0.4,1.5,0.8,2.3,1.1s1.6,0.6,2.3,0.8
	s1.5,0.4,2.3,0.5c0.8,0.1,1.6,0.1,2.3,0.1s1.4-0.1,2.1-0.2c0.6-0.2,1.2-0.4,1.6-0.8c0.4-0.3,0.9-0.7,1.2-1.2
	c0.3-0.5,0.6-1.1,0.7-1.7c-1.1,0-2.2-0.1-3.3-0.4c-1.1-0.2-2.1-0.6-3.1-1c-1-0.4-1.9-1-2.9-1.7c-0.9-0.7-1.8-1.5-2.5-2.4
	c1.4-3.2,2.7-6.5,3.9-9.7c1.2-3.2,2.3-6.4,3.4-9.5s2-6.3,2.9-9.4s1.6-6.3,2.3-9.4c0.1-0.5,0.2-1,0.3-1.4c0.1-0.5,0.2-1,0.3-1.5
	c0.1-0.4,0.2-0.9,0.3-1.4c0.1-0.5,0.2-0.9,0.3-1.4h-1.4h-1.3h-1.5H139.9z"/>
</svg>
