<?xml version="1.0" encoding="utf-8"?>
<!-- Generator: Adobe Illustrator 22.1.0, SVG Export Plug-In . SVG Version: 6.00 Build 0)  -->
<svg version="1.1" id="レイヤー_1" xmlns="http://www.w3.org/2000/svg" xmlns:xlink="http://www.w3.org/1999/xlink" x="0px"
	 y="0px" viewBox="0 0 160 160" style="enable-background:new 0 0 160 160;" xml:space="preserve">
<path d="M160,16.4c0-0.2-0.1-0.4-0.2-0.5s-0.2-0.2-0.3-0.3c-0.1-0.1-0.2-0.1-0.4-0.1c-2.3,0.1-4.1,0.2-5.7,0.2
	c-1.6,0.1-2.8,0.1-4,0.1c-1.1,0-2.1,0-3.2,0c-1,0-2,0-3.2,0c-1.1,0-2,0-2.9,0c-0.9,0-1.8,0-2.8,0c-1.1,0-2.4-0.1-4.1-0.1
	c-1.7-0.1-3.9-0.1-6.7-0.2c-0.2,0-0.3,0-0.5,0.1c-0.1,0.1-0.3,0.2-0.3,0.3c-0.1,0.1-0.2,0.3-0.2,0.5s-0.1,0.4-0.1,0.7s0,0.5,0.1,0.7
	s0.1,0.3,0.2,0.5c0.1,0.1,0.2,0.2,0.3,0.2c0.1,0.1,0.3,0.1,0.5,0.1l3.3,0.1l3.3,0.1l3.3,0.1l3.3,0.1c0.6,0,1.1,0.1,1.5,0.2
	s0.7,0.2,0.9,0.4c0.2,0.2,0.4,0.5,0.4,0.8s0.1,0.9,0.1,1.5v17.3v17.3v17.3v17.3h0h0h0h0l-13.2-18.6l-13.2-18.6L103,35.5L89.8,17
	c-0.2-0.3-0.4-0.6-0.6-0.8s-0.4-0.3-0.6-0.4c-0.2-0.1-0.4-0.2-0.6-0.2c-0.2,0-0.5,0-0.7,0c-5.5,0.1-9.8,0.2-13.4,0.2
	c-3.6,0.1-6.5,0.1-9.2,0.1c-2.7,0-5.2,0-7.9,0c-2.7,0-5.7,0-9.5,0c-3.7,0-6.9,0-9.8,0c-3,0-5.8,0-9,0c-3.2,0-6.7-0.1-11.1-0.1
	c-4.4-0.1-9.6-0.1-16.2-0.2c-0.2,0-0.3,0-0.5,0.1c-0.1,0.1-0.3,0.1-0.3,0.2c-0.1,0.1-0.2,0.3-0.2,0.5C0.1,16.5,0,16.7,0,17
	s0,0.5,0.1,0.7s0.1,0.3,0.2,0.5c0.1,0.1,0.2,0.2,0.3,0.3c0.1,0.1,0.3,0.1,0.5,0.2l2.2,0.1l2.2,0.1l2.2,0.1l2.2,0.1
	c0.8,0,1.5,0.1,2,0.3s1,0.3,1.3,0.6c0.3,0.3,0.5,0.6,0.7,1.1s0.2,1,0.2,1.7v29.1v29.1V110v29.1c0,0.6-0.1,1.1-0.2,1.5
	s-0.3,0.6-0.6,0.8c-0.3,0.2-0.6,0.3-1,0.4c-0.4,0.1-0.8,0.1-1.3,0.2l-2.5,0.1l-2.5,0.1l-2.5,0.1l-2.5,0.1c-0.2,0-0.3,0-0.5,0.1
	s-0.2,0.1-0.3,0.2c-0.1,0.1-0.1,0.3-0.1,0.5s0,0.4,0,0.7c0,0.3,0,0.5,0.1,0.7c0,0.2,0.1,0.4,0.2,0.5s0.2,0.2,0.3,0.3
	s0.2,0.1,0.4,0.1c2.3-0.1,4.1-0.2,5.6-0.2c1.5-0.1,2.8-0.1,3.9-0.1c1.1,0,2.1,0,3,0c1,0,2,0,3.2,0c1.1,0,2.1,0,3,0c0.9,0,1.9,0,3,0
	c1.2,0,2.5,0.1,4.3,0.1c1.8,0.1,4,0.1,6.8,0.2c0.2,0,0.3,0,0.5-0.1c0.1-0.1,0.3-0.2,0.3-0.3s0.2-0.3,0.2-0.5c0-0.2,0.1-0.4,0.1-0.7
	c0-0.3,0-0.5-0.1-0.7c0-0.2-0.1-0.3-0.2-0.5c-0.1-0.1-0.2-0.2-0.3-0.2c-0.1-0.1-0.3-0.1-0.5-0.1l-3.5-0.1l-3.5-0.1l-3.5-0.1
	l-3.5-0.1c-0.6,0-1.1-0.1-1.5-0.2c-0.4-0.1-0.7-0.2-0.9-0.4c-0.2-0.2-0.4-0.5-0.4-0.8c-0.1-0.4-0.1-0.9-0.1-1.5v-28.8V81.4V52.6
	V23.7h0h0h0h0l21.3,30l21.3,30l0,0l2.7-1.9l0,0L42,52.3L20.9,22.6c-0.3-0.4-0.5-0.7-0.7-1s-0.3-0.5-0.5-0.7
	c-0.1-0.2-0.2-0.4-0.2-0.6c-0.1-0.2-0.1-0.3-0.1-0.5c0-0.2,0-0.3,0.1-0.5c0.1-0.1,0.2-0.2,0.4-0.3c0.2-0.1,0.4-0.1,0.6-0.1
	c0.2,0,0.5,0,0.7,0h2.5h2.5h2.5h2.5c0.3,0,0.6,0,0.8,0c0.2,0,0.5,0.1,0.6,0.2c0.2,0.1,0.4,0.2,0.5,0.4s0.3,0.4,0.5,0.7l21.1,29.6
	l21.1,29.6l21.1,29.6l21.1,29.6c0.3,0.4,0.5,0.7,0.7,1c0.2,0.3,0.3,0.5,0.5,0.7c0.1,0.2,0.2,0.4,0.2,0.6s0.1,0.3,0.1,0.5
	c0,0.2,0,0.3-0.1,0.5s-0.2,0.2-0.4,0.3c-0.2,0.1-0.4,0.1-0.6,0.1c-0.2,0-0.5,0-0.7,0h-2.5h-2.5h-2.5h-2.5c-0.3,0-0.6,0-0.8,0
	s-0.5-0.1-0.6-0.2s-0.4-0.2-0.5-0.4c-0.2-0.2-0.3-0.4-0.5-0.7l-21.1-29.6L63,81.9l-2.7,1.9l21.3,30l21.3,30c0.2,0.3,0.4,0.6,0.6,0.8
	c0.2,0.2,0.3,0.3,0.5,0.4c0.2,0.1,0.3,0.2,0.5,0.2c0.2,0,0.5,0,0.8,0h9.8h9.8h9.8h9.8c0.2,0,0.3,0,0.5-0.1c0.1,0,0.3-0.1,0.3-0.2
	c0.1-0.1,0.2-0.2,0.2-0.4c0-0.2,0.1-0.4,0.1-0.6v-30.5V83.1V52.6V22.1c0-0.6,0.1-1.1,0.2-1.5s0.3-0.6,0.6-0.8c0.3-0.2,0.6-0.3,1-0.4
	c0.4-0.1,0.8-0.1,1.3-0.2l2.6-0.1l2.6-0.1l2.6-0.1l2.6-0.1c0.2,0,0.3,0,0.5-0.1c0.1-0.1,0.2-0.1,0.3-0.2c0.1-0.1,0.1-0.3,0.1-0.5
	c0-0.2,0-0.4,0-0.7S160,16.6,160,16.4z"/>
</svg>
