<?xml version="1.0" encoding="utf-8"?>
<!-- Generator: Adobe Illustrator 22.1.0, SVG Export Plug-In . SVG Version: 6.00 Build 0)  -->
<svg version="1.1" id="レイヤー_1" xmlns="http://www.w3.org/2000/svg" xmlns:xlink="http://www.w3.org/1999/xlink" x="0px"
	 y="0px" viewBox="0 0 160 160" style="enable-background:new 0 0 160 160;" xml:space="preserve">
<path d="M136.9,116.9c0-6.2-1.2-11.5-3.2-16c-2-4.6-5-8.4-8.6-11.8s-7.8-6.3-12.3-8.9c-4.6-2.7-9.5-5.1-14.6-7.6l8.5-7.3l8.5-7.3
	l8.5-7.3l8.5-7.3c0.6-0.5,1.2-1.1,1.6-1.7c0.5-0.6,0.9-1.3,1.2-2s0.6-1.5,0.8-2.2c0.2-0.8,0.3-1.6,0.3-2.4c0-1.5-0.3-3-0.9-4.3
	c-0.6-1.3-1.4-2.5-2.4-3.5s-2.2-1.8-3.5-2.3c-1.3-0.6-2.7-0.9-4.2-0.9c-0.3,0-0.6,0-1.1,0c-0.5,0-1.1,0.1-1.7,0.3s-1.4,0.4-2.1,0.8
	c-0.7,0.4-1.5,0.9-2.3,1.5l-10.1,8.9l-10.1,8.9l-10.1,8.9L77.1,62c-1.8-0.9-4.2-2.1-6.6-3.5c-2.5-1.4-5.1-3.1-7.5-4.9
	c-2.4-1.9-4.5-4-6.1-6.4c-1.6-2.3-2.5-4.9-2.5-7.7c0-0.5,0-1.2,0.2-2.2s0.5-2.1,1.2-3.4s1.7-2.7,3.2-4.2c1.5-1.5,3.5-3,6.2-4.4
	l9.8,2.2l9.8,2.2l9.8,2.2l9.8,2.2c0.2,0.1,0.4,0.1,0.6,0s0.4-0.1,0.6-0.3s0.3-0.3,0.4-0.5s0.2-0.5,0.2-0.8c0-0.2,0-0.3,0-0.4
	s-0.1-0.3-0.1-0.4s-0.1-0.2-0.1-0.3S106,31,105.9,31l-4-4.6l-4-4.6l-4-4.6l-4-4.6c-1.3-1.5-2.8-2.9-4.4-4.3s-3.4-2.7-5.3-3.8
	s-3.8-2-5.8-2.7s-4.1-1-6.1-1C65,0.8,61,1.7,56.7,3.5S48,7.8,43.9,11.1s-7.8,7.4-10.4,12.2c-2.7,4.8-4.3,10.3-4.3,16.3
	c0,4.2,0.7,8.1,2,11.7s3.3,7.1,5.8,10.4s5.6,6.3,9.2,9.3c3.6,2.9,7.7,5.7,12.3,8.3l-7.1,6.1l-7.1,6.1l-7.1,6.1l-7.1,6.1
	c-1.1,0.9-2.1,2-3,3.1s-1.7,2.4-2.4,3.8s-1.2,2.8-1.6,4.3s-0.6,3-0.6,4.6c0,3.5,1.9,7.8,5.2,12.4c3.3,4.5,8.1,9.3,14,13.5
	c5.8,4.3,12.7,8.1,20.2,10.9c7.5,2.8,15.6,4.5,24,4.5c0,0,0.1,0,0.1,0c0,0,0.1,0,0.1,0s0.1,0,0.1,0s0.1,0,0.1,0v-5.9V149V143v-5.9
	c-1.4,0-3.6-0.1-6.3-0.6c-2.7-0.5-5.9-1.3-9.4-2.6s-7.3-3.3-11-5.9c-3.8-2.7-7.6-6.1-11.1-10.5l7.9-6.8l7.9-6.8l7.9-6.8l7.9-6.8
	c4.4,1.8,8.6,3.7,12.4,5.6c3.8,1.9,7.2,4,10.1,6.1s5.2,4.5,6.8,7.1c1.6,2.5,2.5,5.3,2.5,8.3c0,2.8-0.7,5.5-1.9,7.9s-3.1,4.5-5.3,6.3
	s-5,3.2-8.1,4.2c-3.1,1-6.6,1.5-10.3,1.5v5.9v5.9v5.9v5.9c6.1,0,12.3-1,18.2-2.8c5.9-1.8,11.5-4.6,16.3-8.2
	c4.8-3.6,8.8-8.2,11.7-13.7C135.3,130.6,136.9,124.2,136.9,116.9z"/>
</svg>
